<svg xmlns="http://www.w3.org/2000/svg" xmlns:xlink="http://www.w3.org/1999/xlink" width="500" zoomAndPan="magnify" viewBox="0 0 375 374.999991" height="500" preserveAspectRatio="xMidYMid meet" version="1.0"><defs><g/><clipPath id="dcfcd2cf89"><path d="M 56.460938 57.636719 L 319 57.636719 L 319 317.363281 L 56.460938 317.363281 Z M 56.460938 57.636719 " clip-rule="nonzero"/></clipPath><clipPath id="5b52e53379"><path d="M 187.5 57.636719 C 115.128906 57.636719 56.460938 115.78125 56.460938 187.5 C 56.460938 259.21875 115.128906 317.363281 187.5 317.363281 C 259.871094 317.363281 318.539062 259.21875 318.539062 187.5 C 318.539062 115.78125 259.871094 57.636719 187.5 57.636719 Z M 187.5 57.636719 " clip-rule="nonzero"/></clipPath><clipPath id="4fa2ecf4c5"><path d="M 56.460938 57.640625 L 318.210938 57.640625 L 318.210938 317.136719 L 56.460938 317.136719 Z M 56.460938 57.640625 " clip-rule="nonzero"/></clipPath><clipPath id="cda409338e"><path d="M 187.5 57.640625 C 115.128906 57.640625 56.460938 115.78125 56.460938 187.5 C 56.460938 259.21875 115.128906 317.359375 187.5 317.359375 C 259.871094 317.359375 318.539062 259.21875 318.539062 187.5 C 318.539062 115.78125 259.871094 57.640625 187.5 57.640625 Z M 187.5 57.640625 " clip-rule="nonzero"/></clipPath></defs><rect x="-37.5" width="450" fill="#ffffff" y="-37.499999" height="449.999989" fill-opacity="1"/><rect x="-37.5" width="450" fill="#ffffff" y="-37.499999" height="449.999989" fill-opacity="1"/><g clip-path="url(#dcfcd2cf89)"><g clip-path="url(#5b52e53379)"><path fill="#be1c2d" d="M 56.460938 57.636719 L 318.210938 57.636719 L 318.210938 317.363281 L 56.460938 317.363281 Z M 56.460938 57.636719 " fill-opacity="1" fill-rule="nonzero"/></g></g><g clip-path="url(#4fa2ecf4c5)"><g clip-path="url(#cda409338e)"><path stroke-linecap="butt" transform="matrix(0.75, 0, 0, 0.75, 56.459403, 57.639911)" fill="none" stroke-linejoin="miter" d="M 174.720807 0.000952513 C 78.226009 0.000952513 0.00204574 77.521791 0.00204574 173.146797 C 0.00204574 268.771803 78.226009 346.292642 174.720807 346.292642 C 271.215605 346.292642 349.439569 268.771803 349.439569 173.146797 C 349.439569 77.521791 271.215605 0.000952513 174.720807 0.000952513 Z M 174.720807 0.000952513 " stroke="#be1c2d" stroke-width="4" stroke-opacity="1" stroke-miterlimit="4"/></g></g><g fill="#ffffff" fill-opacity="1"><g transform="translate(77.437499, 219.518189)"><g><path d="M 4.28125 -1.578125 C 4.707031 -1.585938 5.03125 -1.632812 5.25 -1.71875 C 5.476562 -1.8125 5.65625 -2 5.78125 -2.28125 C 5.90625 -2.570312 5.96875 -3.023438 5.96875 -3.640625 L 5.96875 -15.046875 L 4.875 -15.046875 C 3.9375 -15.023438 3.210938 -14.703125 2.703125 -14.078125 C 2.203125 -13.460938 1.953125 -12.53125 1.953125 -11.28125 L 0.375 -11.28125 L 0.5 -16.65625 L 14.921875 -16.65625 L 15.0625 -11.28125 L 13.5 -11.28125 C 13.5 -12.53125 13.238281 -13.476562 12.71875 -14.125 C 12.207031 -14.769531 11.488281 -15.082031 10.5625 -15.0625 L 9.421875 -15.0625 L 9.421875 -3.90625 C 9.421875 -2.84375 9.390625 -2.128906 9.328125 -1.765625 C 9.847656 -1.804688 10.484375 -1.828125 11.234375 -1.828125 L 11.234375 0 L 4.28125 0 Z M 4.28125 -1.578125 "/></g></g></g><g fill="#ffffff" fill-opacity="1"><g transform="translate(92.900377, 219.518189)"><g><path d="M 6.609375 0.375 C 5.453125 0.375 4.429688 0.117188 3.546875 -0.390625 C 2.660156 -0.910156 1.96875 -1.644531 1.46875 -2.59375 C 0.976562 -3.539062 0.734375 -4.648438 0.734375 -5.921875 C 0.734375 -7.035156 0.984375 -8.078125 1.484375 -9.046875 C 1.984375 -10.023438 2.6875 -10.804688 3.59375 -11.390625 C 4.5 -11.984375 5.53125 -12.28125 6.6875 -12.28125 C 8.226562 -12.28125 9.507812 -11.828125 10.53125 -10.921875 C 11.550781 -10.015625 12.054688 -8.507812 12.046875 -6.40625 L 4.234375 -6.265625 C 4.234375 -4.867188 4.5 -3.765625 5.03125 -2.953125 C 5.5625 -2.140625 6.414062 -1.734375 7.59375 -1.734375 C 8.144531 -1.734375 8.738281 -1.875 9.375 -2.15625 C 10.007812 -2.445312 10.582031 -2.898438 11.09375 -3.515625 L 12.15625 -2.515625 C 10.8125 -0.585938 8.960938 0.375 6.609375 0.375 Z M 8.75 -7.921875 C 8.707031 -9.710938 8.0625 -10.609375 6.8125 -10.609375 C 6.125 -10.609375 5.578125 -10.363281 5.171875 -9.875 C 4.765625 -9.394531 4.5 -8.742188 4.375 -7.921875 Z M 8.75 -7.921875 "/></g></g></g><g fill="#ffffff" fill-opacity="1"><g transform="translate(105.698888, 219.518189)"><g><path d="M 0.96875 -1.546875 C 1.570312 -1.546875 1.957031 -1.710938 2.125 -2.046875 C 2.289062 -2.378906 2.375 -2.921875 2.375 -3.671875 L 2.375 -7.65625 C 2.375 -8.375 2.40625 -9.050781 2.46875 -9.6875 L 0.8125 -9.609375 L 0.8125 -11.421875 C 1.8125 -11.421875 2.617188 -11.488281 3.234375 -11.625 C 3.859375 -11.769531 4.269531 -11.941406 4.46875 -12.140625 L 5.640625 -12.140625 C 5.640625 -12.109375 5.671875 -11.710938 5.734375 -10.953125 L 5.78125 -10.953125 C 6.238281 -11.316406 6.804688 -11.628906 7.484375 -11.890625 C 8.160156 -12.148438 8.734375 -12.28125 9.203125 -12.28125 C 10.648438 -12.28125 11.679688 -11.863281 12.296875 -11.03125 C 12.921875 -10.207031 13.234375 -8.867188 13.234375 -7.015625 L 13.234375 -3.828125 C 13.234375 -3.066406 13.203125 -2.367188 13.140625 -1.734375 C 13.660156 -1.785156 14.175781 -1.8125 14.6875 -1.8125 L 14.6875 0 L 8.453125 0 L 8.453125 -1.546875 C 9.054688 -1.546875 9.441406 -1.710938 9.609375 -2.046875 C 9.785156 -2.378906 9.875 -2.921875 9.875 -3.671875 L 9.859375 -7.046875 C 9.859375 -8.085938 9.707031 -8.851562 9.40625 -9.34375 C 9.113281 -9.84375 8.617188 -10.09375 7.921875 -10.09375 C 7.546875 -10.09375 7.15625 -10.007812 6.75 -9.84375 C 6.351562 -9.675781 6.023438 -9.460938 5.765625 -9.203125 L 5.765625 -3.828125 C 5.765625 -3.066406 5.726562 -2.367188 5.65625 -1.734375 C 6.164062 -1.785156 6.679688 -1.8125 7.203125 -1.8125 L 7.203125 0 L 0.96875 0 Z M 0.96875 -1.546875 "/></g></g></g><g fill="#ffffff" fill-opacity="1"><g transform="translate(120.82872, 219.518189)"><g><path d="M 5.90625 0.375 C 4.488281 0.375 3.472656 -0.0351562 2.859375 -0.859375 C 2.253906 -1.679688 1.953125 -3.019531 1.953125 -4.875 L 1.953125 -7.609375 C 1.953125 -8.273438 1.972656 -8.96875 2.015625 -9.6875 L 0.359375 -9.609375 L 0.359375 -11.421875 C 1.359375 -11.421875 2.164062 -11.488281 2.78125 -11.625 C 3.40625 -11.769531 3.816406 -11.941406 4.015625 -12.140625 L 5.328125 -12.140625 L 5.328125 -4.859375 C 5.328125 -3.804688 5.460938 -3.035156 5.734375 -2.546875 C 6.003906 -2.054688 6.429688 -1.8125 7.015625 -1.8125 C 7.410156 -1.8125 7.816406 -1.921875 8.234375 -2.140625 C 8.660156 -2.359375 9.015625 -2.628906 9.296875 -2.953125 L 9.296875 -7.609375 C 9.296875 -8.359375 9.332031 -9.050781 9.40625 -9.6875 L 7.734375 -9.609375 L 7.734375 -11.421875 C 8.734375 -11.421875 9.535156 -11.488281 10.140625 -11.625 C 10.753906 -11.769531 11.164062 -11.941406 11.375 -12.140625 L 12.6875 -12.140625 L 12.6875 -3.828125 C 12.6875 -3.066406 12.65625 -2.367188 12.59375 -1.734375 C 13.09375 -1.785156 13.609375 -1.8125 14.140625 -1.8125 L 14.140625 0 L 9.609375 0 L 9.46875 -1.234375 L 9.453125 -1.234375 C 8.859375 -0.722656 8.285156 -0.328125 7.734375 -0.046875 C 7.191406 0.234375 6.582031 0.375 5.90625 0.375 Z M 5.90625 0.375 "/></g></g></g><g fill="#ffffff" fill-opacity="1"><g transform="translate(135.530349, 219.518189)"><g><path d="M 5.6875 0.375 C 3.207031 0.375 1.96875 -1.144531 1.96875 -4.1875 L 2.015625 -9.921875 L 0.40625 -9.921875 L 0.40625 -11.890625 C 0.914062 -11.890625 1.394531 -12.046875 1.84375 -12.359375 C 2.289062 -12.679688 2.671875 -13.070312 2.984375 -13.53125 C 3.304688 -14 3.535156 -14.445312 3.671875 -14.875 L 5.421875 -14.875 L 5.40625 -11.890625 L 8.421875 -11.890625 L 8.421875 -10.0625 L 5.40625 -10 L 5.375 -4.140625 C 5.375 -2.597656 5.851562 -1.828125 6.8125 -1.828125 C 7.570312 -1.828125 8.289062 -2.304688 8.96875 -3.265625 L 10.109375 -2.1875 C 9.367188 -1.09375 8.625 -0.390625 7.875 -0.078125 C 7.132812 0.222656 6.40625 0.375 5.6875 0.375 Z M 5.6875 0.375 "/></g></g></g><g fill="#ffffff" fill-opacity="1"><g transform="translate(145.355227, 219.518189)"><g><path d="M 3.953125 0.375 C 2.953125 0.375 2.160156 0.078125 1.578125 -0.515625 C 1.003906 -1.109375 0.71875 -1.863281 0.71875 -2.78125 C 0.71875 -4.175781 1.363281 -5.234375 2.65625 -5.953125 C 3.957031 -6.679688 5.523438 -7.082031 7.359375 -7.15625 L 7.359375 -8.40625 C 7.359375 -9.84375 6.816406 -10.5625 5.734375 -10.5625 C 5.035156 -10.5625 4.460938 -10.34375 4.015625 -9.90625 C 4.210938 -9.675781 4.3125 -9.375 4.3125 -9 C 4.3125 -8.613281 4.175781 -8.269531 3.90625 -7.96875 C 3.644531 -7.664062 3.265625 -7.515625 2.765625 -7.515625 C 2.285156 -7.515625 1.910156 -7.671875 1.640625 -7.984375 C 1.367188 -8.296875 1.234375 -8.679688 1.234375 -9.140625 C 1.234375 -9.753906 1.453125 -10.300781 1.890625 -10.78125 C 2.335938 -11.257812 2.945312 -11.628906 3.71875 -11.890625 C 4.488281 -12.148438 5.335938 -12.28125 6.265625 -12.28125 C 9.191406 -12.28125 10.65625 -10.765625 10.65625 -7.734375 L 10.640625 -3.828125 C 10.640625 -3.066406 10.609375 -2.367188 10.546875 -1.734375 C 11.066406 -1.785156 11.582031 -1.8125 12.09375 -1.8125 L 12.09375 0 L 7.59375 0 C 7.5625 -0.207031 7.53125 -0.570312 7.5 -1.09375 L 7.46875 -1.09375 C 6.5 -0.113281 5.328125 0.375 3.953125 0.375 Z M 5.453125 -1.953125 C 6.160156 -1.953125 6.785156 -2.238281 7.328125 -2.8125 L 7.328125 -5.46875 C 6.390625 -5.375 5.613281 -5.132812 5 -4.75 C 4.394531 -4.375 4.09375 -3.863281 4.09375 -3.21875 C 4.09375 -2.78125 4.222656 -2.457031 4.484375 -2.25 C 4.742188 -2.050781 5.066406 -1.953125 5.453125 -1.953125 Z M 5.453125 -1.953125 "/></g></g></g><g fill="#ffffff" fill-opacity="1"><g transform="translate(157.820692, 219.518189)"><g/></g></g><g fill="#ffffff" fill-opacity="1"><g transform="translate(164.077211, 219.518189)"><g><path d="M 1.1875 -1.578125 C 1.613281 -1.585938 1.9375 -1.632812 2.15625 -1.71875 C 2.382812 -1.8125 2.5625 -2 2.6875 -2.28125 C 2.8125 -2.570312 2.875 -3.023438 2.875 -3.640625 L 2.875 -12.75 C 2.875 -13.644531 2.90625 -14.359375 2.96875 -14.890625 L 1.1875 -14.828125 L 1.1875 -16.65625 L 8.015625 -16.65625 L 8.015625 -15.09375 C 7.585938 -15.070312 7.257812 -15.015625 7.03125 -14.921875 C 6.8125 -14.835938 6.640625 -14.648438 6.515625 -14.359375 C 6.390625 -14.078125 6.328125 -13.628906 6.328125 -13.015625 L 6.328125 -3.90625 C 6.328125 -3.050781 6.296875 -2.351562 6.234375 -1.8125 L 9.421875 -1.8125 C 10.367188 -1.820312 11.101562 -2.15625 11.625 -2.8125 C 12.15625 -3.476562 12.421875 -4.445312 12.421875 -5.71875 L 14.015625 -5.71875 L 13.875 0 L 1.1875 0 Z M 1.1875 -1.578125 "/></g></g></g><g fill="#ffffff" fill-opacity="1"><g transform="translate(178.445794, 219.518189)"><g><path d="M 6.609375 0.375 C 5.453125 0.375 4.429688 0.117188 3.546875 -0.390625 C 2.660156 -0.910156 1.96875 -1.644531 1.46875 -2.59375 C 0.976562 -3.539062 0.734375 -4.648438 0.734375 -5.921875 C 0.734375 -7.035156 0.984375 -8.078125 1.484375 -9.046875 C 1.984375 -10.023438 2.6875 -10.804688 3.59375 -11.390625 C 4.5 -11.984375 5.53125 -12.28125 6.6875 -12.28125 C 8.226562 -12.28125 9.507812 -11.828125 10.53125 -10.921875 C 11.550781 -10.015625 12.054688 -8.507812 12.046875 -6.40625 L 4.234375 -6.265625 C 4.234375 -4.867188 4.5 -3.765625 5.03125 -2.953125 C 5.5625 -2.140625 6.414062 -1.734375 7.59375 -1.734375 C 8.144531 -1.734375 8.738281 -1.875 9.375 -2.15625 C 10.007812 -2.445312 10.582031 -2.898438 11.09375 -3.515625 L 12.15625 -2.515625 C 10.8125 -0.585938 8.960938 0.375 6.609375 0.375 Z M 8.75 -7.921875 C 8.707031 -9.710938 8.0625 -10.609375 6.8125 -10.609375 C 6.125 -10.609375 5.578125 -10.363281 5.171875 -9.875 C 4.765625 -9.394531 4.5 -8.742188 4.375 -7.921875 Z M 8.75 -7.921875 "/></g></g></g><g fill="#ffffff" fill-opacity="1"><g transform="translate(191.244305, 219.518189)"><g/></g></g><g fill="#ffffff" fill-opacity="1"><g transform="translate(197.500823, 219.518189)"><g><path d="M 4.28125 -1.578125 C 4.707031 -1.585938 5.03125 -1.632812 5.25 -1.71875 C 5.476562 -1.8125 5.65625 -2 5.78125 -2.28125 C 5.90625 -2.570312 5.96875 -3.023438 5.96875 -3.640625 L 5.96875 -15.046875 L 4.875 -15.046875 C 3.9375 -15.023438 3.210938 -14.703125 2.703125 -14.078125 C 2.203125 -13.460938 1.953125 -12.53125 1.953125 -11.28125 L 0.375 -11.28125 L 0.5 -16.65625 L 14.921875 -16.65625 L 15.0625 -11.28125 L 13.5 -11.28125 C 13.5 -12.53125 13.238281 -13.476562 12.71875 -14.125 C 12.207031 -14.769531 11.488281 -15.082031 10.5625 -15.0625 L 9.421875 -15.0625 L 9.421875 -3.90625 C 9.421875 -2.84375 9.390625 -2.128906 9.328125 -1.765625 C 9.847656 -1.804688 10.484375 -1.828125 11.234375 -1.828125 L 11.234375 0 L 4.28125 0 Z M 4.28125 -1.578125 "/></g></g></g><g fill="#ffffff" fill-opacity="1"><g transform="translate(212.963701, 219.518189)"><g><path d="M 0.96875 -1.546875 C 1.570312 -1.546875 1.957031 -1.710938 2.125 -2.046875 C 2.289062 -2.378906 2.375 -2.921875 2.375 -3.671875 L 2.375 -7.65625 C 2.375 -8.375 2.40625 -9.050781 2.46875 -9.6875 L 0.8125 -9.609375 L 0.8125 -11.421875 C 1.8125 -11.421875 2.617188 -11.488281 3.234375 -11.625 C 3.859375 -11.769531 4.269531 -11.941406 4.46875 -12.140625 L 5.640625 -12.140625 C 5.671875 -11.898438 5.691406 -11.585938 5.703125 -11.203125 C 5.722656 -10.828125 5.734375 -10.457031 5.734375 -10.09375 L 5.78125 -10.09375 C 6.863281 -11.550781 8.003906 -12.28125 9.203125 -12.28125 C 9.804688 -12.28125 10.300781 -12.113281 10.6875 -11.78125 C 11.082031 -11.445312 11.28125 -10.953125 11.28125 -10.296875 C 11.28125 -9.890625 11.144531 -9.507812 10.875 -9.15625 C 10.601562 -8.8125 10.195312 -8.640625 9.65625 -8.640625 C 9.257812 -8.640625 8.90625 -8.738281 8.59375 -8.9375 C 8.289062 -9.144531 8.113281 -9.503906 8.0625 -10.015625 C 7.625 -10.015625 7.171875 -9.753906 6.703125 -9.234375 C 6.234375 -8.722656 5.921875 -8.210938 5.765625 -7.703125 L 5.765625 -3.828125 C 5.765625 -3.066406 5.726562 -2.367188 5.65625 -1.734375 C 6.164062 -1.785156 6.679688 -1.8125 7.203125 -1.8125 L 7.203125 0 L 0.96875 0 Z M 0.96875 -1.546875 "/></g></g></g><g fill="#ffffff" fill-opacity="1"><g transform="translate(224.382444, 219.518189)"><g><path d="M 6.609375 0.375 C 5.453125 0.375 4.429688 0.117188 3.546875 -0.390625 C 2.660156 -0.910156 1.96875 -1.644531 1.46875 -2.59375 C 0.976562 -3.539062 0.734375 -4.648438 0.734375 -5.921875 C 0.734375 -7.035156 0.984375 -8.078125 1.484375 -9.046875 C 1.984375 -10.023438 2.6875 -10.804688 3.59375 -11.390625 C 4.5 -11.984375 5.53125 -12.28125 6.6875 -12.28125 C 8.226562 -12.28125 9.507812 -11.828125 10.53125 -10.921875 C 11.550781 -10.015625 12.054688 -8.507812 12.046875 -6.40625 L 4.234375 -6.265625 C 4.234375 -4.867188 4.5 -3.765625 5.03125 -2.953125 C 5.5625 -2.140625 6.414062 -1.734375 7.59375 -1.734375 C 8.144531 -1.734375 8.738281 -1.875 9.375 -2.15625 C 10.007812 -2.445312 10.582031 -2.898438 11.09375 -3.515625 L 12.15625 -2.515625 C 10.8125 -0.585938 8.960938 0.375 6.609375 0.375 Z M 8.75 -7.921875 C 8.707031 -9.710938 8.0625 -10.609375 6.8125 -10.609375 C 6.125 -10.609375 5.578125 -10.363281 5.171875 -9.875 C 4.765625 -9.394531 4.5 -8.742188 4.375 -7.921875 Z M 8.75 -7.921875 "/></g></g></g><g fill="#ffffff" fill-opacity="1"><g transform="translate(237.180954, 219.518189)"><g/></g></g><g fill="#ffffff" fill-opacity="1"><g transform="translate(243.437473, 219.518189)"><g><path d="M 1.1875 -1.578125 C 1.613281 -1.585938 1.9375 -1.632812 2.15625 -1.71875 C 2.382812 -1.8125 2.5625 -2 2.6875 -2.28125 C 2.8125 -2.570312 2.875 -3.023438 2.875 -3.640625 L 2.875 -12.75 C 2.875 -13.644531 2.90625 -14.359375 2.96875 -14.890625 L 1.1875 -14.828125 L 1.1875 -16.65625 L 7.953125 -16.703125 C 10.117188 -16.722656 11.789062 -16.34375 12.96875 -15.5625 C 14.15625 -14.78125 14.75 -13.519531 14.75 -11.78125 C 14.75 -10.6875 14.394531 -9.710938 13.6875 -8.859375 C 12.988281 -8.015625 11.945312 -7.394531 10.5625 -7 L 10.5625 -6.96875 C 10.851562 -6.863281 11.144531 -6.671875 11.4375 -6.390625 C 11.738281 -6.109375 11.992188 -5.800781 12.203125 -5.46875 L 13.328125 -3.8125 C 13.867188 -2.96875 14.316406 -2.382812 14.671875 -2.0625 C 15.023438 -1.75 15.460938 -1.585938 15.984375 -1.578125 L 15.984375 0 L 12.0625 0 C 11.789062 -0.1875 11.519531 -0.457031 11.25 -0.8125 C 10.976562 -1.175781 10.671875 -1.648438 10.328125 -2.234375 L 8.5625 -5.09375 C 8.164062 -5.726562 7.832031 -6.1875 7.5625 -6.46875 L 6.328125 -6.46875 L 6.328125 -3.921875 C 6.328125 -3.015625 6.296875 -2.296875 6.234375 -1.765625 C 6.742188 -1.804688 7.414062 -1.828125 8.25 -1.828125 L 8.25 0 L 1.1875 0 Z M 7.46875 -8.1875 C 8.769531 -8.1875 9.707031 -8.472656 10.28125 -9.046875 C 10.863281 -9.628906 11.15625 -10.539062 11.15625 -11.78125 C 11.15625 -13.09375 10.816406 -13.960938 10.140625 -14.390625 C 9.472656 -14.828125 8.734375 -15.046875 7.921875 -15.046875 C 7.367188 -15.046875 6.960938 -14.925781 6.703125 -14.6875 C 6.453125 -14.445312 6.328125 -13.9375 6.328125 -13.15625 L 6.328125 -8.28125 C 6.804688 -8.21875 7.1875 -8.1875 7.46875 -8.1875 Z M 7.46875 -8.1875 "/></g></g></g><g fill="#ffffff" fill-opacity="1"><g transform="translate(259.756758, 219.518189)"><g><path d="M 6.8125 0.375 C 5.644531 0.375 4.601562 0.128906 3.6875 -0.359375 C 2.769531 -0.847656 2.046875 -1.550781 1.515625 -2.46875 C 0.992188 -3.394531 0.734375 -4.46875 0.734375 -5.6875 C 0.734375 -6.96875 1.003906 -8.109375 1.546875 -9.109375 C 2.085938 -10.109375 2.8125 -10.882812 3.71875 -11.4375 C 4.632812 -12 5.640625 -12.28125 6.734375 -12.28125 C 7.878906 -12.28125 8.898438 -12.03125 9.796875 -11.53125 C 10.703125 -11.039062 11.414062 -10.332031 11.9375 -9.40625 C 12.46875 -8.476562 12.734375 -7.394531 12.734375 -6.15625 C 12.734375 -4.84375 12.484375 -3.691406 11.984375 -2.703125 C 11.484375 -1.722656 10.785156 -0.960938 9.890625 -0.421875 C 8.992188 0.109375 7.96875 0.375 6.8125 0.375 Z M 6.859375 -1.3125 C 7.722656 -1.3125 8.328125 -1.710938 8.671875 -2.515625 C 9.023438 -3.328125 9.203125 -4.34375 9.203125 -5.5625 C 9.203125 -6.925781 9.003906 -8.109375 8.609375 -9.109375 C 8.210938 -10.109375 7.585938 -10.609375 6.734375 -10.609375 C 5.859375 -10.609375 5.222656 -10.195312 4.828125 -9.375 C 4.429688 -8.550781 4.234375 -7.535156 4.234375 -6.328125 C 4.234375 -4.953125 4.445312 -3.769531 4.875 -2.78125 C 5.300781 -1.800781 5.960938 -1.3125 6.859375 -1.3125 Z M 6.859375 -1.3125 "/></g></g></g><g fill="#ffffff" fill-opacity="1"><g transform="translate(273.221361, 219.518189)"><g><path d="M 6.453125 0.375 C 5.765625 0.375 5.09375 0.285156 4.4375 0.109375 C 3.789062 -0.0546875 3.285156 -0.273438 2.921875 -0.546875 L 2.90625 -0.546875 L 2.96875 0.171875 L 1.171875 0.171875 L 1.078125 -3.921875 L 2.625 -3.921875 C 2.695312 -3.191406 3.078125 -2.578125 3.765625 -2.078125 C 4.460938 -1.578125 5.3125 -1.328125 6.3125 -1.328125 C 6.75 -1.328125 7.128906 -1.429688 7.453125 -1.640625 C 7.785156 -1.847656 7.953125 -2.140625 7.953125 -2.515625 C 7.953125 -2.804688 7.847656 -3.046875 7.640625 -3.234375 C 7.429688 -3.421875 7.179688 -3.578125 6.890625 -3.703125 C 6.609375 -3.835938 6.039062 -4.070312 5.1875 -4.40625 C 4.175781 -4.800781 3.414062 -5.125 2.90625 -5.375 C 2.394531 -5.632812 1.9375 -6.015625 1.53125 -6.515625 C 1.125 -7.015625 0.921875 -7.660156 0.921875 -8.453125 C 0.921875 -9.097656 1.082031 -9.707031 1.40625 -10.28125 C 1.738281 -10.863281 2.238281 -11.34375 2.90625 -11.71875 C 3.582031 -12.09375 4.414062 -12.28125 5.40625 -12.28125 C 5.863281 -12.28125 6.359375 -12.207031 6.890625 -12.0625 C 7.429688 -11.914062 7.882812 -11.71875 8.25 -11.46875 L 8.28125 -11.46875 L 8.25 -12.15625 L 10.0625 -12.15625 L 10.0625 -7.953125 L 8.515625 -7.953125 C 8.378906 -8.773438 8.015625 -9.421875 7.421875 -9.890625 C 6.835938 -10.367188 6.117188 -10.609375 5.265625 -10.609375 C 4.816406 -10.609375 4.441406 -10.503906 4.140625 -10.296875 C 3.835938 -10.097656 3.6875 -9.785156 3.6875 -9.359375 C 3.6875 -8.910156 3.859375 -8.578125 4.203125 -8.359375 C 4.554688 -8.148438 5.144531 -7.910156 5.96875 -7.640625 C 6.0625 -7.617188 6.269531 -7.554688 6.59375 -7.453125 C 7.9375 -6.972656 8.96875 -6.414062 9.6875 -5.78125 C 10.414062 -5.144531 10.78125 -4.3125 10.78125 -3.28125 C 10.78125 -2.488281 10.578125 -1.816406 10.171875 -1.265625 C 9.765625 -0.722656 9.234375 -0.3125 8.578125 -0.03125 C 7.921875 0.238281 7.210938 0.375 6.453125 0.375 Z M 6.453125 0.375 "/></g></g></g><g fill="#ffffff" fill-opacity="1"><g transform="translate(284.759065, 219.518189)"><g><path d="M 6.609375 0.375 C 5.453125 0.375 4.429688 0.117188 3.546875 -0.390625 C 2.660156 -0.910156 1.96875 -1.644531 1.46875 -2.59375 C 0.976562 -3.539062 0.734375 -4.648438 0.734375 -5.921875 C 0.734375 -7.035156 0.984375 -8.078125 1.484375 -9.046875 C 1.984375 -10.023438 2.6875 -10.804688 3.59375 -11.390625 C 4.5 -11.984375 5.53125 -12.28125 6.6875 -12.28125 C 8.226562 -12.28125 9.507812 -11.828125 10.53125 -10.921875 C 11.550781 -10.015625 12.054688 -8.507812 12.046875 -6.40625 L 4.234375 -6.265625 C 4.234375 -4.867188 4.5 -3.765625 5.03125 -2.953125 C 5.5625 -2.140625 6.414062 -1.734375 7.59375 -1.734375 C 8.144531 -1.734375 8.738281 -1.875 9.375 -2.15625 C 10.007812 -2.445312 10.582031 -2.898438 11.09375 -3.515625 L 12.15625 -2.515625 C 10.8125 -0.585938 8.960938 0.375 6.609375 0.375 Z M 8.75 -7.921875 C 8.707031 -9.710938 8.0625 -10.609375 6.8125 -10.609375 C 6.125 -10.609375 5.578125 -10.363281 5.171875 -9.875 C 4.765625 -9.394531 4.5 -8.742188 4.375 -7.921875 Z M 8.75 -7.921875 "/></g></g></g><g fill="#ffffff" fill-opacity="1"><g transform="translate(95.927958, 243.94809)"><g><path d="M 5.21875 -3.390625 C 5.644531 -3.296875 5.972656 -3.109375 6.203125 -2.828125 C 6.441406 -2.546875 6.5625 -2.1875 6.5625 -1.75 C 6.5625 -1.1875 6.351562 -0.753906 5.9375 -0.453125 C 5.519531 -0.148438 4.90625 0 4.09375 0 L 1.078125 0 L 1.078125 -6.578125 L 3.90625 -6.578125 C 4.632812 -6.578125 5.203125 -6.425781 5.609375 -6.125 C 6.015625 -5.832031 6.21875 -5.421875 6.21875 -4.890625 C 6.21875 -4.523438 6.128906 -4.210938 5.953125 -3.953125 C 5.773438 -3.703125 5.53125 -3.515625 5.21875 -3.390625 Z M 1.765625 -6 L 1.765625 -3.609375 L 3.859375 -3.609375 C 4.390625 -3.609375 4.796875 -3.707031 5.078125 -3.90625 C 5.367188 -4.113281 5.515625 -4.414062 5.515625 -4.8125 C 5.515625 -5.195312 5.367188 -5.488281 5.078125 -5.6875 C 4.796875 -5.894531 4.390625 -6 3.859375 -6 Z M 4.078125 -0.578125 C 4.671875 -0.578125 5.117188 -0.675781 5.421875 -0.875 C 5.722656 -1.070312 5.875 -1.382812 5.875 -1.8125 C 5.875 -2.632812 5.273438 -3.046875 4.078125 -3.046875 L 1.765625 -3.046875 L 1.765625 -0.578125 Z M 4.078125 -0.578125 "/></g></g></g><g fill="#ffffff" fill-opacity="1"><g transform="translate(110.525479, 243.94809)"><g><path d="M 5.78125 0.109375 L 4.859375 -0.828125 C 4.304688 -0.234375 3.578125 0.0625 2.671875 0.0625 C 2.242188 0.0625 1.863281 -0.00390625 1.53125 -0.140625 C 1.195312 -0.285156 0.929688 -0.484375 0.734375 -0.734375 C 0.546875 -0.992188 0.453125 -1.285156 0.453125 -1.609375 C 0.453125 -2.003906 0.578125 -2.359375 0.828125 -2.671875 C 1.085938 -2.984375 1.515625 -3.3125 2.109375 -3.65625 C 1.796875 -3.988281 1.578125 -4.269531 1.453125 -4.5 C 1.335938 -4.726562 1.28125 -4.96875 1.28125 -5.21875 C 1.28125 -5.632812 1.429688 -5.972656 1.734375 -6.234375 C 2.035156 -6.492188 2.441406 -6.625 2.953125 -6.625 C 3.421875 -6.625 3.789062 -6.503906 4.0625 -6.265625 C 4.34375 -6.035156 4.484375 -5.71875 4.484375 -5.3125 C 4.484375 -4.988281 4.375 -4.695312 4.15625 -4.4375 C 3.9375 -4.175781 3.554688 -3.890625 3.015625 -3.578125 L 4.8125 -1.71875 C 5.019531 -2.070312 5.171875 -2.492188 5.265625 -2.984375 L 5.796875 -2.8125 C 5.679688 -2.226562 5.488281 -1.726562 5.21875 -1.3125 L 6.15625 -0.34375 Z M 2.953125 -6.125 C 2.617188 -6.125 2.359375 -6.039062 2.171875 -5.875 C 1.992188 -5.71875 1.90625 -5.503906 1.90625 -5.234375 C 1.90625 -5.035156 1.953125 -4.847656 2.046875 -4.671875 C 2.148438 -4.492188 2.347656 -4.257812 2.640625 -3.96875 C 3.117188 -4.238281 3.445312 -4.46875 3.625 -4.65625 C 3.8125 -4.851562 3.90625 -5.070312 3.90625 -5.3125 C 3.90625 -5.5625 3.820312 -5.757812 3.65625 -5.90625 C 3.488281 -6.050781 3.253906 -6.125 2.953125 -6.125 Z M 2.703125 -0.5 C 3.429688 -0.5 4.019531 -0.742188 4.46875 -1.234375 L 2.484375 -3.28125 C 1.960938 -2.988281 1.601562 -2.722656 1.40625 -2.484375 C 1.21875 -2.242188 1.125 -1.976562 1.125 -1.6875 C 1.125 -1.320312 1.265625 -1.03125 1.546875 -0.8125 C 1.835938 -0.601562 2.222656 -0.5 2.703125 -0.5 Z M 2.703125 -0.5 "/></g></g></g><g fill="#ffffff" fill-opacity="1"><g transform="translate(124.325128, 243.94809)"><g><path d="M 5.21875 -3.390625 C 5.644531 -3.296875 5.972656 -3.109375 6.203125 -2.828125 C 6.441406 -2.546875 6.5625 -2.1875 6.5625 -1.75 C 6.5625 -1.1875 6.351562 -0.753906 5.9375 -0.453125 C 5.519531 -0.148438 4.90625 0 4.09375 0 L 1.078125 0 L 1.078125 -6.578125 L 3.90625 -6.578125 C 4.632812 -6.578125 5.203125 -6.425781 5.609375 -6.125 C 6.015625 -5.832031 6.21875 -5.421875 6.21875 -4.890625 C 6.21875 -4.523438 6.128906 -4.210938 5.953125 -3.953125 C 5.773438 -3.703125 5.53125 -3.515625 5.21875 -3.390625 Z M 1.765625 -6 L 1.765625 -3.609375 L 3.859375 -3.609375 C 4.390625 -3.609375 4.796875 -3.707031 5.078125 -3.90625 C 5.367188 -4.113281 5.515625 -4.414062 5.515625 -4.8125 C 5.515625 -5.195312 5.367188 -5.488281 5.078125 -5.6875 C 4.796875 -5.894531 4.390625 -6 3.859375 -6 Z M 4.078125 -0.578125 C 4.671875 -0.578125 5.117188 -0.675781 5.421875 -0.875 C 5.722656 -1.070312 5.875 -1.382812 5.875 -1.8125 C 5.875 -2.632812 5.273438 -3.046875 4.078125 -3.046875 L 1.765625 -3.046875 L 1.765625 -0.578125 Z M 4.078125 -0.578125 "/></g></g></g><g fill="#ffffff" fill-opacity="1"><g transform="translate(138.922647, 243.94809)"><g/></g></g><g fill="#ffffff" fill-opacity="1"><g transform="translate(148.901929, 243.94809)"><g><path d="M 5.1875 -1.75 L 1.53125 -1.75 L 0.734375 0 L 0.015625 0 L 3.03125 -6.578125 L 3.703125 -6.578125 L 6.71875 0 L 5.984375 0 Z M 4.9375 -2.3125 L 3.359375 -5.84375 L 1.78125 -2.3125 Z M 4.9375 -2.3125 "/></g></g></g><g fill="#ffffff" fill-opacity="1"><g transform="translate(163.152146, 243.94809)"><g><path d="M 6.5625 -6.578125 L 6.5625 0 L 5.984375 0 L 1.765625 -5.328125 L 1.765625 0 L 1.078125 0 L 1.078125 -6.578125 L 1.640625 -6.578125 L 5.875 -1.234375 L 5.875 -6.578125 Z M 6.5625 -6.578125 "/></g></g></g><g fill="#ffffff" fill-opacity="1"><g transform="translate(178.303481, 243.94809)"><g><path d="M 1.078125 -6.578125 L 3.75 -6.578125 C 4.445312 -6.578125 5.0625 -6.4375 5.59375 -6.15625 C 6.125 -5.875 6.535156 -5.484375 6.828125 -4.984375 C 7.117188 -4.492188 7.265625 -3.925781 7.265625 -3.28125 C 7.265625 -2.644531 7.117188 -2.078125 6.828125 -1.578125 C 6.535156 -1.078125 6.125 -0.6875 5.59375 -0.40625 C 5.0625 -0.132812 4.445312 0 3.75 0 L 1.078125 0 Z M 3.703125 -0.59375 C 4.285156 -0.59375 4.789062 -0.707031 5.21875 -0.9375 C 5.65625 -1.164062 5.988281 -1.484375 6.21875 -1.890625 C 6.457031 -2.296875 6.578125 -2.757812 6.578125 -3.28125 C 6.578125 -3.8125 6.457031 -4.273438 6.21875 -4.671875 C 5.988281 -5.078125 5.65625 -5.394531 5.21875 -5.625 C 4.789062 -5.851562 4.285156 -5.96875 3.703125 -5.96875 L 1.765625 -5.96875 L 1.765625 -0.59375 Z M 3.703125 -0.59375 "/></g></g></g><g fill="#ffffff" fill-opacity="1"><g transform="translate(193.576839, 243.94809)"><g/></g></g><g fill="#ffffff" fill-opacity="1"><g transform="translate(203.556121, 243.94809)"><g><path d="M 5.71875 -0.59375 L 5.71875 0 L 1.078125 0 L 1.078125 -6.578125 L 5.578125 -6.578125 L 5.578125 -5.96875 L 1.765625 -5.96875 L 1.765625 -3.640625 L 5.171875 -3.640625 L 5.171875 -3.046875 L 1.765625 -3.046875 L 1.765625 -0.59375 Z M 5.71875 -0.59375 "/></g></g></g><g fill="#ffffff" fill-opacity="1"><g transform="translate(217.355772, 243.94809)"><g><path d="M 6.53125 -6.578125 L 3.625 0 L 2.9375 0 L 0.03125 -6.578125 L 0.78125 -6.578125 L 3.296875 -0.859375 L 5.828125 -6.578125 Z M 6.53125 -6.578125 "/></g></g></g><g fill="#ffffff" fill-opacity="1"><g transform="translate(231.427644, 243.94809)"><g><path d="M 5.71875 -0.59375 L 5.71875 0 L 1.078125 0 L 1.078125 -6.578125 L 5.578125 -6.578125 L 5.578125 -5.96875 L 1.765625 -5.96875 L 1.765625 -3.640625 L 5.171875 -3.640625 L 5.171875 -3.046875 L 1.765625 -3.046875 L 1.765625 -0.59375 Z M 5.71875 -0.59375 "/></g></g></g><g fill="#ffffff" fill-opacity="1"><g transform="translate(245.227295, 243.94809)"><g><path d="M 6.5625 -6.578125 L 6.5625 0 L 5.984375 0 L 1.765625 -5.328125 L 1.765625 0 L 1.078125 0 L 1.078125 -6.578125 L 1.640625 -6.578125 L 5.875 -1.234375 L 5.875 -6.578125 Z M 6.5625 -6.578125 "/></g></g></g><g fill="#ffffff" fill-opacity="1"><g transform="translate(260.378631, 243.94809)"><g><path d="M 2.34375 -5.96875 L 0.03125 -5.96875 L 0.03125 -6.578125 L 5.359375 -6.578125 L 5.359375 -5.96875 L 3.046875 -5.96875 L 3.046875 0 L 2.34375 0 Z M 2.34375 -5.96875 "/></g></g></g><g fill="#ffffff" fill-opacity="1"><g transform="translate(273.286558, 243.94809)"><g><path d="M 2.890625 0.0625 C 2.398438 0.0625 1.929688 -0.015625 1.484375 -0.171875 C 1.035156 -0.328125 0.6875 -0.535156 0.4375 -0.796875 L 0.71875 -1.328125 C 0.957031 -1.097656 1.269531 -0.90625 1.65625 -0.75 C 2.050781 -0.601562 2.460938 -0.53125 2.890625 -0.53125 C 3.472656 -0.53125 3.910156 -0.640625 4.203125 -0.859375 C 4.492188 -1.078125 4.640625 -1.359375 4.640625 -1.703125 C 4.640625 -1.960938 4.5625 -2.171875 4.40625 -2.328125 C 4.25 -2.484375 4.050781 -2.601562 3.8125 -2.6875 C 3.582031 -2.769531 3.265625 -2.863281 2.859375 -2.96875 C 2.359375 -3.09375 1.960938 -3.210938 1.671875 -3.328125 C 1.378906 -3.441406 1.125 -3.617188 0.90625 -3.859375 C 0.695312 -4.097656 0.59375 -4.421875 0.59375 -4.828125 C 0.59375 -5.160156 0.679688 -5.460938 0.859375 -5.734375 C 1.035156 -6.003906 1.304688 -6.21875 1.671875 -6.375 C 2.035156 -6.539062 2.488281 -6.625 3.03125 -6.625 C 3.40625 -6.625 3.769531 -6.570312 4.125 -6.46875 C 4.488281 -6.363281 4.800781 -6.222656 5.0625 -6.046875 L 4.828125 -5.5 C 4.546875 -5.675781 4.25 -5.804688 3.9375 -5.890625 C 3.625 -5.984375 3.320312 -6.03125 3.03125 -6.03125 C 2.445312 -6.03125 2.007812 -5.921875 1.71875 -5.703125 C 1.425781 -5.484375 1.28125 -5.195312 1.28125 -4.84375 C 1.28125 -4.582031 1.359375 -4.367188 1.515625 -4.203125 C 1.679688 -4.046875 1.882812 -3.925781 2.125 -3.84375 C 2.363281 -3.757812 2.6875 -3.664062 3.09375 -3.5625 C 3.582031 -3.445312 3.972656 -3.332031 4.265625 -3.21875 C 4.566406 -3.101562 4.816406 -2.925781 5.015625 -2.6875 C 5.222656 -2.457031 5.328125 -2.140625 5.328125 -1.734375 C 5.328125 -1.398438 5.238281 -1.097656 5.0625 -0.828125 C 4.882812 -0.554688 4.609375 -0.335938 4.234375 -0.171875 C 3.867188 -0.015625 3.421875 0.0625 2.890625 0.0625 Z M 2.890625 0.0625 "/></g></g></g><path fill="#ffffff" d="M 153.535156 166.320312 C 146.917969 172.515625 132.800781 178.421875 125.59375 170.402344 C 123.519531 168.09375 122.164062 165.34375 121.109375 162.449219 C 120.460938 160.664062 119.695312 158.925781 119.148438 157.105469 C 118.84375 156.09375 118.851562 152.449219 117.457031 153.675781 C 116.644531 154.390625 116.683594 158.238281 116.566406 159.320312 C 116.128906 163.339844 115.5 168.480469 118.847656 171.511719 C 121.09375 173.546875 126.511719 175.824219 129.511719 176.796875 C 133.769531 178.179688 140.039062 178.109375 144.175781 176.34375 C 146.660156 175.285156 156.15625 170.367188 153.535156 166.320312 " fill-opacity="1" fill-rule="nonzero"/><path fill="#ffffff" d="M 125.300781 166.34375 C 123.335938 161.851562 121.894531 155.761719 124.125 151.117188 C 126.175781 146.847656 130.511719 145.851562 134.632812 144.382812 C 134.976562 144.261719 140.789062 142.25 140.625 141.898438 C 140.046875 140.660156 135.351562 139.390625 134.144531 139.035156 C 128.226562 137.28125 122.273438 138.488281 120.21875 144.910156 C 119.765625 146.332031 119.96875 168.566406 125.300781 166.34375 " fill-opacity="1" fill-rule="nonzero"/><path fill="#ffffff" d="M 126.25 164.128906 C 130.867188 166.222656 139.691406 169.730469 144.097656 165.675781 C 147.613281 162.441406 146.46875 155.59375 144.519531 151.816406 C 143.773438 150.375 139.492188 147.300781 139.28125 146.230469 C 139.082031 145.222656 141.253906 143.105469 142.015625 142.761719 C 144.378906 141.6875 147.363281 143.484375 149.023438 145.144531 C 153.117188 149.234375 151.269531 155.273438 149.53125 160.046875 C 147.980469 164.304688 146.5 168.011719 141.824219 168.945312 C 136.257812 170.054688 129.941406 168.664062 126.25 164.128906 " fill-opacity="1" fill-rule="nonzero"/><path fill="#ffffff" d="M 127.703125 167.796875 C 143.71875 174.691406 153.707031 165.398438 152.5 149.011719 C 160.183594 157.625 152.589844 166.707031 144.253906 170.8125 C 140.660156 172.578125 135.449219 173.367188 131.347656 172.773438 C 128.382812 172.347656 123.871094 166.375 127.703125 167.796875 " fill-opacity="1" fill-rule="nonzero"/><path fill="#ffffff" d="M 133.714844 164.742188 C 128.6875 161.671875 123 155.589844 127.875 150.039062 C 127.996094 149.902344 127.890625 149.679688 127.703125 149.683594 C 123.347656 149.757812 123.609375 158.121094 124.792969 160.953125 C 125.8125 163.398438 130.632812 166.3125 133.679688 165.128906 C 133.847656 165.0625 133.867188 164.835938 133.714844 164.742188 " fill-opacity="1" fill-rule="nonzero"/><path fill="#ffffff" d="M 129.277344 155.886719 C 130.589844 154.726562 132.382812 154 133.984375 153.382812 C 135.363281 152.847656 136.824219 152.417969 138.308594 152.347656 C 140.421875 152.242188 142.089844 154.476562 142.984375 156.023438 C 143.179688 156.359375 143.703125 156.199219 143.667969 155.808594 C 143.125 149.699219 138.261719 143.46875 131.453125 147.289062 C 129.238281 148.53125 128.101562 150.714844 127.585938 153.121094 C 127.398438 154.011719 127.285156 154.984375 127.367188 155.894531 C 127.480469 157.207031 128 157.199219 128.863281 156.289062 C 128.996094 156.148438 129.132812 156.015625 129.277344 155.886719 " fill-opacity="1" fill-rule="nonzero"/><path fill="#ffffff" d="M 130.113281 158.863281 C 130.84375 159.382812 131.804688 159.722656 132.625 160.078125 C 133.445312 160.433594 134.273438 160.761719 135.117188 161.054688 C 136.613281 161.574219 138.277344 162.109375 139.882812 161.996094 C 141.171875 161.90625 141.953125 161.140625 141.792969 159.8125 C 141.746094 159.414062 141.636719 159.023438 141.503906 158.644531 C 141.421875 158.410156 141.328125 158.175781 141.230469 157.949219 C 141.179688 157.835938 140.972656 157.195312 140.863281 157.171875 C 144.839844 158.09375 143.851562 162.558594 140.761719 164.027344 C 138.851562 164.9375 136.410156 164.558594 134.488281 163.902344 C 132.464844 163.210938 130.257812 161.910156 129.4375 159.820312 C 129.351562 159.601562 129.28125 159.371094 129.230469 159.140625 C 129.203125 159.023438 129.183594 158.894531 129.238281 158.785156 C 129.328125 158.597656 129.597656 158.566406 129.789062 158.652344 C 129.90625 158.703125 130.003906 158.789062 130.109375 158.863281 C 130.109375 158.863281 130.113281 158.863281 130.113281 158.863281 " fill-opacity="1" fill-rule="nonzero"/><path fill="#ffffff" d="M 135.515625 159.828125 C 134.898438 157.539062 135.074219 154.09375 138.332031 155.824219 C 133.273438 151.664062 130.125 158.113281 135.515625 159.828125 " fill-opacity="1" fill-rule="nonzero"/><path fill="#ffffff" d="M 137.507812 159.828125 C 138.574219 158.90625 138.8125 157.6875 137.253906 156.972656 C 141.230469 156.550781 139.851562 162.609375 137.507812 159.828125 " fill-opacity="1" fill-rule="nonzero"/><path fill="#ffffff" d="M 156.800781 155.335938 C 155.742188 162.351562 156.28125 174.503906 148.882812 177.683594 C 141.84375 180.707031 132.953125 180.0625 126.230469 176.785156 C 125.21875 176.289062 120.175781 174.21875 118.011719 173.332031 C 117.59375 173.160156 117.207031 173.625 117.445312 174.007812 C 118.34375 175.433594 121.125 178.089844 129.746094 180.835938 C 135.246094 182.585938 141.144531 182.085938 146.742188 181.011719 C 152.902344 179.828125 156.976562 178.308594 160.492188 173.046875 C 165.585938 165.433594 162.621094 161.554688 156.800781 155.335938 " fill-opacity="1" fill-rule="nonzero"/><path fill="#ffffff" d="M 162.558594 160.335938 C 164.6875 155.582031 170.175781 149.746094 165.320312 144.128906 C 163.148438 141.613281 148.289062 133.671875 148.242188 139.789062 C 148.226562 142.070312 154.542969 149.378906 155.710938 151.253906 C 156.644531 152.75 162.027344 161.34375 162.558594 160.335938 " fill-opacity="1" fill-rule="nonzero"/><path fill="#ffffff" d="M 149.085938 143.507812 C 145.257812 135.390625 138.457031 126.425781 128.222656 132.3125 C 121.367188 136.257812 117.804688 142.335938 116.550781 149.554688 C 116.507812 149.800781 116.859375 149.894531 116.945312 149.65625 C 119.320312 143.171875 122.714844 136.65625 130.527344 137.554688 C 134.964844 138.066406 145.742188 140.574219 149.085938 143.507812 " fill-opacity="1" fill-rule="nonzero"/><path fill="#ffffff" d="M 115.003906 143.761719 C 115.601562 143.597656 116.175781 144.105469 116.082031 144.722656 C 115.445312 148.917969 114.195312 153.160156 113.976562 157.3125 C 113.761719 161.367188 114.835938 165.753906 115.78125 169.824219 C 115.960938 170.597656 115.089844 171.183594 114.441406 170.722656 C 109.503906 167.238281 105.152344 162 103.714844 156.183594 C 102.007812 149.257812 109.039062 145.390625 115.003906 143.761719 " fill-opacity="1" fill-rule="nonzero"/><path fill="#ffffff" d="M 107.589844 167.417969 C 109.84375 172.878906 111.480469 180.421875 114.921875 185.164062 C 116.503906 187.34375 117.207031 186.96875 120.242188 187.929688 C 121.925781 188.464844 124.136719 188.96875 125.457031 190.226562 C 126.582031 191.292969 126.253906 192.894531 127.9375 193.535156 C 132.132812 195.128906 128.867188 190.15625 127.925781 188.882812 C 125.324219 185.371094 122.292969 182.113281 119.417969 178.832031 C 117.046875 176.121094 114.71875 173.335938 112.230469 170.734375 C 111.539062 170.011719 107.519531 166.523438 107.589844 167.417969 " fill-opacity="1" fill-rule="nonzero"/><path fill="#ffffff" d="M 124.984375 180.421875 C 134.261719 183.378906 142.40625 184.421875 151.867188 181.273438 C 159.734375 178.652344 154.859375 182.691406 151.222656 185.605469 C 147.332031 188.722656 142.671875 190.742188 137.597656 191.117188 C 133.140625 191.441406 130.132812 189.535156 127.253906 186.242188 C 126.910156 185.847656 122.460938 179.617188 124.984375 180.421875 " fill-opacity="1" fill-rule="nonzero"/><path fill="#ffffff" d="M 256.335938 166.320312 C 249.714844 172.515625 235.597656 178.421875 228.394531 170.402344 C 226.320312 168.09375 224.960938 165.34375 223.910156 162.449219 C 223.261719 160.664062 222.496094 158.925781 221.945312 157.105469 C 221.640625 156.09375 221.652344 152.449219 220.253906 153.675781 C 219.441406 154.390625 219.484375 158.238281 219.363281 159.320312 C 218.925781 163.339844 218.300781 168.480469 221.648438 171.511719 C 223.890625 173.546875 229.3125 175.824219 232.308594 176.796875 C 236.570312 178.179688 242.835938 178.109375 246.972656 176.34375 C 249.460938 175.285156 258.957031 170.367188 256.335938 166.320312 " fill-opacity="1" fill-rule="nonzero"/><path fill="#ffffff" d="M 228.097656 166.34375 C 226.136719 161.851562 224.695312 155.761719 226.925781 151.117188 C 228.976562 146.847656 233.3125 145.851562 237.429688 144.382812 C 237.773438 144.261719 243.585938 142.25 243.421875 141.898438 C 242.84375 140.660156 238.148438 139.390625 236.945312 139.035156 C 231.023438 137.28125 225.070312 138.488281 223.019531 144.910156 C 222.566406 146.332031 222.765625 168.566406 228.097656 166.34375 " fill-opacity="1" fill-rule="nonzero"/><path fill="#ffffff" d="M 229.046875 164.128906 C 233.667969 166.222656 242.492188 169.730469 246.898438 165.675781 C 250.410156 162.441406 249.265625 155.59375 247.316406 151.816406 C 246.574219 150.375 242.289062 147.300781 242.078125 146.230469 C 241.878906 145.222656 244.054688 143.105469 244.8125 142.761719 C 247.179688 141.6875 250.160156 143.484375 251.820312 145.144531 C 255.917969 149.234375 254.070312 155.273438 252.332031 160.046875 C 250.78125 164.304688 249.300781 168.011719 244.621094 168.945312 C 239.058594 170.054688 232.742188 168.664062 229.046875 164.128906 " fill-opacity="1" fill-rule="nonzero"/><path fill="#ffffff" d="M 230.503906 167.796875 C 246.519531 174.691406 256.503906 165.398438 255.300781 149.011719 C 262.980469 157.625 255.390625 166.707031 247.050781 170.8125 C 243.460938 172.578125 238.25 173.367188 234.144531 172.773438 C 231.183594 172.347656 226.671875 166.375 230.503906 167.796875 " fill-opacity="1" fill-rule="nonzero"/><path fill="#ffffff" d="M 236.511719 164.742188 C 231.484375 161.671875 225.796875 155.589844 230.671875 150.039062 C 230.796875 149.902344 230.691406 149.679688 230.503906 149.683594 C 226.148438 149.757812 226.40625 158.121094 227.589844 160.953125 C 228.613281 163.398438 233.429688 166.3125 236.480469 165.128906 C 236.644531 165.0625 236.664062 164.835938 236.511719 164.742188 " fill-opacity="1" fill-rule="nonzero"/><path fill="#ffffff" d="M 232.078125 155.886719 C 233.390625 154.726562 235.179688 154 236.78125 153.382812 C 238.160156 152.847656 239.625 152.417969 241.109375 152.347656 C 243.222656 152.242188 244.890625 154.476562 245.785156 156.023438 C 245.980469 156.359375 246.5 156.199219 246.46875 155.808594 C 245.925781 149.699219 241.058594 143.46875 234.25 147.289062 C 232.039062 148.53125 230.898438 150.714844 230.386719 153.121094 C 230.195312 154.011719 230.085938 154.984375 230.164062 155.894531 C 230.28125 157.207031 230.796875 157.199219 231.664062 156.289062 C 231.792969 156.148438 231.933594 156.015625 232.078125 155.886719 " fill-opacity="1" fill-rule="nonzero"/><path fill="#ffffff" d="M 232.910156 158.863281 C 233.644531 159.382812 234.601562 159.722656 235.425781 160.078125 C 236.242188 160.433594 237.074219 160.761719 237.914062 161.054688 C 239.410156 161.574219 241.074219 162.109375 242.679688 161.996094 C 243.96875 161.90625 244.75 161.140625 244.589844 159.8125 C 244.542969 159.414062 244.433594 159.023438 244.300781 158.644531 C 244.222656 158.410156 244.128906 158.175781 244.027344 157.949219 C 243.980469 157.835938 243.769531 157.195312 243.664062 157.171875 C 247.636719 158.09375 246.648438 162.558594 243.558594 164.027344 C 241.652344 164.9375 239.207031 164.558594 237.289062 163.902344 C 235.265625 163.210938 233.054688 161.910156 232.238281 159.820312 C 232.152344 159.601562 232.082031 159.371094 232.03125 159.140625 C 232.003906 159.023438 231.980469 158.894531 232.035156 158.785156 C 232.125 158.597656 232.394531 158.566406 232.585938 158.652344 C 232.703125 158.703125 232.804688 158.789062 232.910156 158.863281 " fill-opacity="1" fill-rule="nonzero"/><path fill="#ffffff" d="M 238.316406 159.828125 C 237.699219 157.539062 237.871094 154.09375 241.128906 155.824219 C 236.074219 151.664062 232.925781 158.113281 238.316406 159.828125 " fill-opacity="1" fill-rule="nonzero"/><path fill="#ffffff" d="M 240.308594 159.828125 C 241.375 158.90625 241.609375 157.6875 240.054688 156.972656 C 244.027344 156.550781 242.648438 162.609375 240.308594 159.828125 " fill-opacity="1" fill-rule="nonzero"/><path fill="#ffffff" d="M 259.601562 155.335938 C 258.539062 162.351562 259.082031 174.503906 251.683594 177.683594 C 244.644531 180.707031 235.75 180.0625 229.027344 176.785156 C 228.019531 176.289062 222.976562 174.21875 220.808594 173.332031 C 220.394531 173.160156 220.003906 173.625 220.246094 174.007812 C 221.140625 175.433594 223.925781 178.089844 232.546875 180.835938 C 238.042969 182.585938 243.941406 182.085938 249.539062 181.011719 C 255.703125 179.828125 259.777344 178.308594 263.292969 173.046875 C 268.382812 165.433594 265.417969 161.554688 259.601562 155.335938 " fill-opacity="1" fill-rule="nonzero"/><path fill="#ffffff" d="M 265.355469 160.335938 C 267.488281 155.582031 272.972656 149.746094 268.121094 144.128906 C 265.945312 141.613281 251.089844 133.671875 251.042969 139.789062 C 251.023438 142.070312 257.339844 149.378906 258.507812 151.253906 C 259.445312 152.75 264.828125 161.34375 265.355469 160.335938 " fill-opacity="1" fill-rule="nonzero"/><path fill="#ffffff" d="M 251.882812 143.507812 C 248.058594 135.390625 241.257812 126.425781 231.023438 132.3125 C 224.164062 136.257812 220.605469 142.335938 219.347656 149.554688 C 219.304688 149.800781 219.65625 149.894531 219.742188 149.65625 C 222.117188 143.171875 225.515625 136.65625 233.324219 137.554688 C 237.761719 138.066406 248.542969 140.574219 251.882812 143.507812 " fill-opacity="1" fill-rule="nonzero"/><path fill="#ffffff" d="M 217.800781 143.761719 C 218.402344 143.597656 218.972656 144.105469 218.878906 144.722656 C 218.246094 148.917969 216.992188 153.160156 216.773438 157.3125 C 216.5625 161.367188 217.636719 165.753906 218.582031 169.824219 C 218.761719 170.597656 217.886719 171.183594 217.238281 170.722656 C 212.300781 167.238281 207.953125 162 206.515625 156.183594 C 204.804688 149.257812 211.835938 145.390625 217.800781 143.761719 " fill-opacity="1" fill-rule="nonzero"/><path fill="#ffffff" d="M 210.386719 167.417969 C 212.644531 172.878906 214.277344 180.421875 217.71875 185.164062 C 219.300781 187.34375 220.003906 186.96875 223.042969 187.929688 C 224.722656 188.464844 226.9375 188.96875 228.257812 190.226562 C 229.382812 191.292969 229.050781 192.894531 230.734375 193.535156 C 234.933594 195.128906 231.664062 190.15625 230.722656 188.882812 C 228.125 185.371094 225.09375 182.113281 222.21875 178.832031 C 219.847656 176.121094 217.519531 173.335938 215.03125 170.734375 C 214.339844 170.011719 210.320312 166.523438 210.386719 167.417969 " fill-opacity="1" fill-rule="nonzero"/><path fill="#ffffff" d="M 227.78125 180.421875 C 237.0625 183.378906 245.203125 184.421875 254.664062 181.273438 C 262.53125 178.652344 257.65625 182.691406 254.023438 185.605469 C 250.132812 188.722656 245.472656 190.742188 240.398438 191.117188 C 235.941406 191.441406 232.933594 189.535156 230.054688 186.242188 C 229.710938 185.847656 225.257812 179.617188 227.78125 180.421875 " fill-opacity="1" fill-rule="nonzero"/><path fill="#ffffff" d="M 206.585938 157.753906 C 199.96875 163.949219 185.851562 169.855469 178.648438 161.835938 C 176.570312 159.527344 175.214844 156.777344 174.160156 153.878906 C 173.511719 152.097656 172.75 150.355469 172.199219 148.539062 C 171.894531 147.527344 171.902344 143.882812 170.507812 145.109375 C 169.695312 145.824219 169.734375 149.671875 169.617188 150.753906 C 169.179688 154.773438 168.550781 159.914062 171.898438 162.945312 C 174.144531 164.980469 179.5625 167.257812 182.5625 168.230469 C 186.824219 169.613281 193.089844 169.539062 197.226562 167.777344 C 199.710938 166.71875 209.210938 161.800781 206.585938 157.753906 " fill-opacity="1" fill-rule="nonzero"/><path fill="#ffffff" d="M 178.351562 157.777344 C 176.386719 153.285156 174.945312 147.191406 177.175781 142.550781 C 179.226562 138.28125 183.566406 137.285156 187.683594 135.816406 C 188.027344 135.691406 193.839844 133.683594 193.675781 133.332031 C 193.097656 132.09375 188.402344 130.824219 187.195312 130.46875 C 181.277344 128.714844 175.324219 129.921875 173.273438 136.34375 C 172.820312 137.765625 173.019531 160 178.351562 157.777344 " fill-opacity="1" fill-rule="nonzero"/><path fill="#ffffff" d="M 179.300781 155.5625 C 183.917969 157.65625 192.742188 161.160156 197.148438 157.109375 C 200.664062 153.875 199.519531 147.027344 197.570312 143.25 C 196.824219 141.808594 192.542969 138.734375 192.332031 137.660156 C 192.132812 136.65625 194.304688 134.539062 195.066406 134.195312 C 197.429688 133.121094 200.414062 134.917969 202.074219 136.578125 C 206.171875 140.667969 204.324219 146.707031 202.582031 151.480469 C 201.03125 155.738281 199.554688 159.445312 194.875 160.378906 C 189.3125 161.488281 182.996094 160.09375 179.300781 155.5625 " fill-opacity="1" fill-rule="nonzero"/><path fill="#ffffff" d="M 180.753906 159.230469 C 196.769531 166.121094 206.757812 156.832031 205.550781 140.445312 C 213.234375 149.058594 205.644531 158.136719 197.304688 162.242188 C 193.710938 164.011719 188.5 164.796875 184.398438 164.207031 C 181.4375 163.78125 176.925781 157.808594 180.753906 159.230469 " fill-opacity="1" fill-rule="nonzero"/><path fill="#ffffff" d="M 186.765625 156.175781 C 181.738281 153.101562 176.050781 147.023438 180.925781 141.472656 C 181.046875 141.332031 180.945312 141.113281 180.757812 141.117188 C 176.398438 141.191406 176.660156 149.550781 177.84375 152.386719 C 178.863281 154.832031 183.683594 157.746094 186.730469 156.558594 C 186.898438 156.496094 186.917969 156.269531 186.765625 156.175781 " fill-opacity="1" fill-rule="nonzero"/><path fill="#ffffff" d="M 182.328125 147.320312 C 183.644531 146.15625 185.433594 145.433594 187.035156 144.816406 C 188.414062 144.28125 189.875 143.851562 191.363281 143.78125 C 193.472656 143.675781 195.140625 145.90625 196.039062 147.457031 C 196.234375 147.792969 196.753906 147.632812 196.71875 147.242188 C 196.175781 141.132812 191.3125 134.902344 184.503906 138.722656 C 182.289062 139.964844 181.152344 142.148438 180.640625 144.554688 C 180.449219 145.445312 180.335938 146.417969 180.417969 147.328125 C 180.53125 148.640625 181.050781 148.632812 181.914062 147.722656 C 182.046875 147.582031 182.183594 147.449219 182.328125 147.320312 " fill-opacity="1" fill-rule="nonzero"/><path fill="#ffffff" d="M 183.164062 150.296875 C 183.898438 150.8125 184.855469 151.15625 185.679688 151.511719 C 186.496094 151.867188 187.324219 152.195312 188.167969 152.488281 C 189.664062 153.003906 191.328125 153.542969 192.933594 153.429688 C 194.222656 153.339844 195.003906 152.574219 194.84375 151.246094 C 194.796875 150.847656 194.6875 150.457031 194.554688 150.078125 C 194.472656 149.84375 194.382812 149.609375 194.28125 149.382812 C 194.234375 149.265625 194.023438 148.628906 193.914062 148.605469 C 197.890625 149.527344 196.902344 153.992188 193.8125 155.460938 C 191.90625 156.367188 189.460938 155.992188 187.539062 155.335938 C 185.519531 154.644531 183.308594 153.339844 182.492188 151.253906 C 182.402344 151.03125 182.335938 150.804688 182.28125 150.574219 C 182.253906 150.453125 182.234375 150.324219 182.289062 150.21875 C 182.378906 150.027344 182.648438 150 182.839844 150.085938 C 182.957031 150.136719 183.054688 150.222656 183.160156 150.292969 C 183.160156 150.296875 183.164062 150.296875 183.164062 150.296875 " fill-opacity="1" fill-rule="nonzero"/><path fill="#ffffff" d="M 188.566406 151.261719 C 187.953125 148.972656 188.125 145.527344 191.382812 147.257812 C 186.324219 143.097656 183.175781 149.546875 188.566406 151.261719 " fill-opacity="1" fill-rule="nonzero"/><path fill="#ffffff" d="M 190.558594 151.261719 C 191.628906 150.339844 191.863281 149.117188 190.308594 148.40625 C 194.28125 147.984375 192.902344 154.039062 190.558594 151.261719 " fill-opacity="1" fill-rule="nonzero"/><path fill="#ffffff" d="M 209.851562 146.769531 C 208.792969 153.78125 209.335938 165.9375 201.9375 169.113281 C 194.894531 172.140625 186.003906 171.496094 179.28125 168.214844 C 178.269531 167.722656 173.230469 165.652344 171.0625 164.765625 C 170.644531 164.59375 170.257812 165.058594 170.496094 165.441406 C 171.394531 166.867188 174.175781 169.523438 182.800781 172.265625 C 188.296875 174.015625 194.195312 173.519531 199.792969 172.445312 C 205.953125 171.261719 210.027344 169.742188 213.546875 164.480469 C 218.636719 156.867188 215.671875 152.984375 209.851562 146.769531 " fill-opacity="1" fill-rule="nonzero"/><path fill="#ffffff" d="M 215.609375 151.769531 C 217.738281 147.011719 223.226562 141.179688 218.371094 135.5625 C 216.199219 133.046875 201.34375 125.101562 201.296875 131.222656 C 201.277344 133.503906 207.59375 140.8125 208.761719 142.6875 C 209.695312 144.183594 215.078125 152.777344 215.609375 151.769531 " fill-opacity="1" fill-rule="nonzero"/><path fill="#ffffff" d="M 202.136719 134.941406 C 198.3125 126.824219 191.507812 117.859375 181.273438 123.746094 C 174.417969 127.691406 170.859375 133.769531 169.601562 140.984375 C 169.558594 141.230469 169.910156 141.324219 169.996094 141.089844 C 172.371094 134.601562 175.765625 128.085938 183.578125 128.988281 C 188.015625 129.5 198.792969 132.003906 202.136719 134.941406 " fill-opacity="1" fill-rule="nonzero"/><path fill="#ffffff" d="M 168.054688 135.191406 C 168.65625 135.027344 169.226562 135.539062 169.132812 136.15625 C 168.496094 140.351562 167.246094 144.59375 167.027344 148.746094 C 166.8125 152.800781 167.890625 157.1875 168.832031 161.257812 C 169.015625 162.03125 168.140625 162.613281 167.492188 162.15625 C 162.554688 158.671875 158.203125 153.433594 156.769531 147.617188 C 155.058594 140.691406 162.089844 136.824219 168.054688 135.191406 " fill-opacity="1" fill-rule="nonzero"/><path fill="#ffffff" d="M 160.640625 158.851562 C 162.894531 164.3125 164.53125 171.855469 167.972656 176.597656 C 169.554688 178.777344 170.257812 178.402344 173.292969 179.363281 C 174.976562 179.898438 177.1875 180.402344 178.507812 181.660156 C 179.632812 182.726562 179.304688 184.328125 180.988281 184.96875 C 185.1875 186.558594 181.917969 181.585938 180.976562 180.3125 C 178.378906 176.800781 175.34375 173.546875 172.46875 170.265625 C 170.097656 167.554688 167.773438 164.769531 165.28125 162.167969 C 164.589844 161.445312 160.570312 157.957031 160.640625 158.851562 " fill-opacity="1" fill-rule="nonzero"/><path fill="#ffffff" d="M 178.035156 171.855469 C 187.316406 174.8125 195.457031 175.851562 204.917969 172.703125 C 212.785156 170.085938 207.910156 174.121094 204.273438 177.039062 C 200.382812 180.15625 195.726562 182.175781 190.648438 182.546875 C 186.195312 182.875 183.183594 180.96875 180.304688 177.675781 C 179.964844 177.28125 175.511719 171.050781 178.035156 171.855469 " fill-opacity="1" fill-rule="nonzero"/></svg>