<?xml version="1.0" encoding="UTF-8" standalone="no"?>
<svg
   version="1.1"
   width="946.28815"
   height="410.47916"
   viewBox="0 0 946.28815 410.47916"
   xml:space="preserve"
   id="svg130"
   sodipodi:docname="logonavbar2.svg"
   inkscape:version="1.3.2 (091e20e, 2023-11-25, custom)"
   xmlns:inkscape="http://www.inkscape.org/namespaces/inkscape"
   xmlns:sodipodi="http://sodipodi.sourceforge.net/DTD/sodipodi-0.dtd"
   xmlns="http://www.w3.org/2000/svg"
   xmlns:svg="http://www.w3.org/2000/svg"><sodipodi:namedview
   id="namedview130"
   pagecolor="#ffffff"
   bordercolor="#000000"
   borderopacity="0.25"
   inkscape:showpageshadow="2"
   inkscape:pageopacity="0.0"
   inkscape:pagecheckerboard="0"
   inkscape:deskcolor="#d1d1d1"
   inkscape:zoom="0.73981481"
   inkscape:cx="448.08511"
   inkscape:cy="312.91615"
   inkscape:window-width="1920"
   inkscape:window-height="1013"
   inkscape:window-x="-9"
   inkscape:window-y="-9"
   inkscape:window-maximized="1"
   inkscape:current-layer="svg130" />
<desc
   id="desc1">Created with Fabric.js 5.2.4</desc>
<defs
   id="defs1">
</defs>
<g
   transform="translate(448.53128,205.26171)"
   id="5037faa8-8c72-47a4-9ca9-f789501c15d7">
<rect
   style="opacity:1;fill:#ffffff;fill-opacity:0;fill-rule:nonzero;stroke:none;stroke-width:1;stroke-linecap:butt;stroke-linejoin:miter;stroke-miterlimit:4;stroke-dasharray:none;stroke-dashoffset:0"
   vector-effect="non-scaling-stroke"
   x="-540"
   y="-540"
   rx="0"
   ry="0"
   width="1080"
   height="1080"
   id="rect1" />
</g>
<g
   transform="translate(448.53128,205.26171)"
   id="8f21e6e2-d8ba-4a10-8862-66098be658ed">
</g>
<g
   transform="matrix(5.68,0,0,5.68,208.83128,266.85171)"
   id="g1">
<path
   style="opacity:1;fill:#ffffff;fill-rule:nonzero;stroke:none;stroke-width:1;stroke-linecap:butt;stroke-linejoin:miter;stroke-miterlimit:4;stroke-dasharray:none;stroke-dashoffset:0"
   vector-effect="non-scaling-stroke"
   transform="translate(-140.22,-160.38)"
   d="m 156.77344,146.99609 c -1.0625,7.04297 -0.51953,19.2461 -7.91407,22.4375 -7.03515,3.03907 -15.92187,2.39453 -22.64062,-0.90234 -1.01172,-0.49219 -6.05078,-2.57422 -8.21484,-3.46484 -0.41797,-0.17188 -0.80469,0.29687 -0.56641,0.67968 0.89844,1.4336 3.67969,4.09766 12.29687,6.85547 5.49219,1.75781 11.38672,1.25781 16.98438,0.17578 6.15625,-1.1875 10.23047,-2.71484 13.74609,-7.99609 5.08594,-7.64844 2.125,-11.54297 -3.6914,-17.78516"
   stroke-linecap="round"
   id="path1" />
</g>
<g
   transform="matrix(5.68,0,0,5.68,179.65128,249.33171)"
   id="g2">
<path
   style="opacity:1;fill:#ffffff;fill-rule:nonzero;stroke:none;stroke-width:1;stroke-linecap:butt;stroke-linejoin:miter;stroke-miterlimit:4;stroke-dasharray:none;stroke-dashoffset:0"
   vector-effect="non-scaling-stroke"
   transform="translate(-135.08,-157.29)"
   d="m 153.50781,158.02734 c -6.61328,6.21875 -20.72265,12.15235 -27.92578,4.09766 -2.07422,-2.31641 -3.42969,-5.08203 -4.48047,-7.98828 -0.64843,-1.78906 -1.41406,-3.53906 -1.96093,-5.36328 -0.30469,-1.01563 -0.29688,-4.67969 -1.69141,-3.44922 -0.8125,0.71875 -0.77344,4.58203 -0.89063,5.67187 -0.4375,4.03516 -1.0625,9.19922 2.28125,12.24219 2.24219,2.04688 7.66016,4.33203 10.65625,5.30859 4.25782,1.38672 10.52344,1.31641 14.65625,-0.45703 2.48438,-1.0625 11.97657,-6 9.35547,-10.0625"
   stroke-linecap="round"
   id="path2" />
</g>
<g
   transform="matrix(5.68,0,0,5.68,212.92128,223.09171)"
   id="g3">
<path
   style="opacity:1;fill:#ffffff;fill-rule:nonzero;stroke:none;stroke-width:1;stroke-linecap:butt;stroke-linejoin:miter;stroke-miterlimit:4;stroke-dasharray:none;stroke-dashoffset:0"
   vector-effect="non-scaling-stroke"
   transform="translate(-140.94,-152.67)"
   d="m 127.69141,159.50781 c 16.00781,6.92188 25.98828,-2.40625 24.78125,-18.86328 7.67968,8.64844 0.0937,17.76563 -8.24219,21.89063 -3.58985,1.77734 -8.79688,2.5664 -12.89844,1.96875 -2.96094,-0.42579 -7.46875,-6.42188 -3.64062,-4.9961"
   stroke-linecap="round"
   id="path3" />
</g>
<g
   transform="matrix(5.68,0,0,5.68,152.68128,174.08171)"
   id="g4">
<path
   style="opacity:1;fill:#ffffff;fill-rule:nonzero;stroke:none;stroke-width:1;stroke-linecap:butt;stroke-linejoin:miter;stroke-miterlimit:4;stroke-dasharray:none;stroke-dashoffset:0"
   vector-effect="non-scaling-stroke"
   transform="translate(-130.33,-144.05)"
   d="m 125.28906,158.04687 c -1.96484,-4.51171 -3.40234,-10.6289 -1.17578,-15.28906 2.05078,-4.28906 6.38672,-5.28906 10.5,-6.76562 0.34375,-0.1211 6.15234,-2.14063 5.99219,-2.49219 -0.57813,-1.24219 -5.27344,-2.51953 -6.47656,-2.875 -5.91797,-1.76172 -11.86719,-0.55078 -13.91797,5.89844 -0.45313,1.42578 -0.25,23.75781 5.07812,21.52343"
   stroke-linecap="round"
   id="path4" />
</g>
<g
   transform="matrix(5.68,0,0,5.68,201.07128,193.87171)"
   id="g5">
<path
   style="opacity:1;fill:#ffffff;fill-rule:nonzero;stroke:none;stroke-width:1;stroke-linecap:butt;stroke-linejoin:miter;stroke-miterlimit:4;stroke-dasharray:none;stroke-dashoffset:0"
   vector-effect="non-scaling-stroke"
   transform="translate(-138.85,-147.53)"
   d="m 126.23828,155.82422 c 4.61328,2.10156 13.43359,5.625 17.83984,1.55078 3.51172,-3.24609 2.36719,-10.12109 0.41797,-13.91406 -0.74218,-1.44922 -5.02343,-4.53516 -5.23437,-5.61328 -0.19922,-1.00782 1.97265,-3.13672 2.73047,-3.48047 2.36328,-1.08203 5.34765,0.72265 7.00781,2.39062 4.09375,4.10938 2.24609,10.17188 0.50781,14.96875 -1.55078,4.27735 -3.03125,7.9961 -7.70703,8.9336 -5.55859,1.11718 -11.87109,-0.28125 -15.5625,-4.83594"
   stroke-linecap="round"
   id="path5" />
</g>
<g
   transform="matrix(5.68,0,0,5.68,166.68128,101.42171)"
   id="g6">
<path
   style="opacity:1;fill:#ffffff;fill-rule:nonzero;stroke:none;stroke-width:1;stroke-linecap:butt;stroke-linejoin:miter;stroke-miterlimit:4;stroke-dasharray:none;stroke-dashoffset:0"
   vector-effect="non-scaling-stroke"
   transform="translate(-132.8,-131.7)"
   d="m 149.05859,135.11719 c -3.82031,-8.15235 -10.62109,-17.15625 -20.84765,-11.2461 -6.85547,3.96485 -10.41406,10.06641 -11.66797,17.31641 -0.043,0.24609 0.30859,0.33984 0.39453,0.10547 2.375,-6.51563 5.76563,-13.0586 13.57422,-12.15625 4.43359,0.51562 15.20703,3.03125 18.54687,5.98047"
   stroke-linecap="round"
   id="path6" />
</g>
<g
   transform="matrix(5.68,0,0,5.68,144.64128,203.42171)"
   id="g7">
<path
   style="opacity:1;fill:#ffffff;fill-rule:nonzero;stroke:none;stroke-width:1;stroke-linecap:butt;stroke-linejoin:miter;stroke-miterlimit:4;stroke-dasharray:none;stroke-dashoffset:0"
   vector-effect="non-scaling-stroke"
   transform="translate(-128.92,-149.21)"
   d="m 133.69922,156.44141 c -5.02735,-3.08594 -10.71094,-9.19141 -5.83984,-14.76563 0.125,-0.14062 0.0195,-0.35937 -0.16797,-0.35547 -4.35547,0.0703 -4.09375,8.46875 -2.91016,11.31641 1.01953,2.45703 5.83594,5.3789 8.88281,4.1914 0.16406,-0.0664 0.1836,-0.29296 0.0352,-0.38671"
   stroke-linecap="round"
   id="path7" />
</g>
<g
   transform="matrix(5.68,0,0,5.68,308.31128,154.50171)"
   id="g8">
<path
   style="opacity:1;fill:#ffffff;fill-rule:nonzero;stroke:none;stroke-width:1;stroke-linecap:butt;stroke-linejoin:miter;stroke-miterlimit:4;stroke-dasharray:none;stroke-dashoffset:0"
   vector-effect="non-scaling-stroke"
   transform="translate(-157.73,-140.6)"
   d="m 162.52734,152.01562 c 2.12891,-4.77734 7.61328,-10.63281 2.76172,-16.27343 -2.17187,-2.52735 -17.02344,-10.50781 -17.07031,-4.36328 -0.0156,2.29296 6.29687,9.63281 7.46484,11.51562 0.9336,1.50391 6.3125,10.13281 6.84375,9.12109"
   stroke-linecap="round"
   id="path8" />
</g>
<g
   transform="matrix(5.68,0,0,5.68,181.96128,169.08171)"
   id="g9">
<path
   style="opacity:1;fill:#ffffff;fill-rule:nonzero;stroke:none;stroke-width:1;stroke-linecap:butt;stroke-linejoin:miter;stroke-miterlimit:4;stroke-dasharray:none;stroke-dashoffset:0"
   vector-effect="non-scaling-stroke"
   transform="translate(-135.49,-143.17)"
   d="m 129.26562,147.54687 c 1.3125,-1.16796 3.10157,-1.89453 4.70313,-2.51562 1.37891,-0.53516 2.83984,-0.96484 4.32422,-1.03906 2.10937,-0.10547 3.77734,2.13672 4.67187,3.6914 0.19532,0.33985 0.71875,0.17578 0.6836,-0.21484 -0.54297,-6.13672 -5.40625,-12.39063 -12.21094,-8.55469 -2.21094,1.2461 -3.35156,3.44141 -3.86328,5.85547 -0.19141,0.89453 -0.30078,1.87109 -0.22266,2.78516 0.11719,1.32031 0.63282,1.3125 1.5,0.39453 0.12891,-0.13672 0.26953,-0.27344 0.41406,-0.40235"
   stroke-linecap="round"
   id="path9" />
</g>
<g
   transform="matrix(5.68,0,0,5.68,186.71128,222.39171)"
   id="g10">
<path
   style="opacity:1;fill:#ffffff;fill-rule:nonzero;stroke:none;stroke-width:1;stroke-linecap:butt;stroke-linejoin:miter;stroke-miterlimit:4;stroke-dasharray:none;stroke-dashoffset:0"
   vector-effect="non-scaling-stroke"
   transform="translate(-136.32,-152.55)"
   d="m 130.09766,150.53906 c 0.73437,0.51563 1.6914,0.85938 2.51171,1.21875 0.82032,0.35547 1.64844,0.6836 2.49219,0.97656 1.49219,0.52344 3.15625,1.0625 4.76172,0.94922 1.28516,-0.0898 2.06641,-0.85937 1.90625,-2.1914 -0.0469,-0.40235 -0.15625,-0.79297 -0.28516,-1.17578 -0.082,-0.23438 -0.17578,-0.46875 -0.27343,-0.69922 -0.0508,-0.11328 -0.25782,-0.75391 -0.36719,-0.78125 3.97266,0.92968 2.98437,5.41015 -0.10547,6.88672 -1.90234,0.91406 -4.34766,0.53515 -6.26562,-0.125 -2.02344,-0.69532 -4.23047,-2.00391 -5.04688,-4.09766 -0.0859,-0.22266 -0.15625,-0.45313 -0.20703,-0.6875 -0.0273,-0.11719 -0.0508,-0.24609 0.004,-0.35547 0.0898,-0.1875 0.35937,-0.21875 0.55078,-0.13281 0.11718,0.0508 0.21875,0.13672 0.32031,0.21094 0.004,0 0.004,0 0.004,0.004"
   stroke-linecap="round"
   id="path10" />
</g>
<g
   transform="matrix(5.68,0,0,5.68,182.05128,201.12171)"
   id="g11">
<path
   style="opacity:1;fill:#ffffff;fill-rule:nonzero;stroke:none;stroke-width:1;stroke-linecap:butt;stroke-linejoin:miter;stroke-miterlimit:4;stroke-dasharray:none;stroke-dashoffset:0"
   vector-effect="non-scaling-stroke"
   transform="translate(-135.5,-148.8)"
   d="m 135.5,151.50391 c -0.61719,-2.29688 -0.44531,-5.75782 2.8125,-4.01954 -5.05469,-4.17968 -8.19922,2.29688 -2.8125,4.01954"
   stroke-linecap="round"
   id="path11" />
</g>
<g
   transform="matrix(5.68,0,0,5.68,199.05128,210.33171)"
   id="g12">
<path
   style="opacity:1;fill:#ffffff;fill-rule:nonzero;stroke:none;stroke-width:1;stroke-linecap:butt;stroke-linejoin:miter;stroke-miterlimit:4;stroke-dasharray:none;stroke-dashoffset:0"
   vector-effect="non-scaling-stroke"
   transform="translate(-138.49,-150.43)"
   d="m 137.49219,151.50391 c 1.0664,-0.92188 1.30078,-2.14844 -0.25391,-2.86719 3.97266,-0.42188 2.59375,5.66015 0.25391,2.86719"
   stroke-linecap="round"
   id="path12" />
</g>
<g
   transform="matrix(5.68,0,0,5.68,35.871279,202.05171)"
   id="g13">
<path
   style="opacity:1;fill:#ffffff;fill-rule:nonzero;stroke:none;stroke-width:1;stroke-linecap:butt;stroke-linejoin:miter;stroke-miterlimit:4;stroke-dasharray:none;stroke-dashoffset:0"
   vector-effect="non-scaling-stroke"
   transform="translate(-109.77,-148.97)"
   d="m 114.99609,135.36719 c 0.60157,-0.16407 1.17188,0.35156 1.07813,0.96875 -0.63672,4.21484 -1.88672,8.47265 -2.10547,12.64062 -0.21094,4.07422 0.86328,8.48047 1.80859,12.56641 0.17969,0.77734 -0.69531,1.36328 -1.34375,0.90234 -4.93359,-3.5 -9.28125,-8.76172 -10.71875,-14.60156 -1.70703,-6.95313 5.32032,-10.83594 11.28125,-12.47656"
   stroke-linecap="round"
   id="path13" />
</g>
<g
   transform="matrix(5.68,0,0,5.68,87.151279,334.72171)"
   id="g14">
<path
   style="opacity:1;fill:#ffffff;fill-rule:nonzero;stroke:none;stroke-width:1;stroke-linecap:butt;stroke-linejoin:miter;stroke-miterlimit:4;stroke-dasharray:none;stroke-dashoffset:0"
   vector-effect="non-scaling-stroke"
   transform="translate(-118.8,-172.33)"
   d="m 107.58594,159.12891 c 2.2539,5.48046 3.89062,13.05859 7.32812,17.82031 1.58203,2.1914 2.28516,1.8125 5.32032,2.77734 1.67968,0.53906 3.89062,1.04688 5.21093,2.30469 1.125,1.07422 0.79297,2.68359 2.48047,3.32422 4.19141,1.59765 0.92578,-3.39453 -0.0156,-4.67188 -2.59766,-3.52734 -5.62891,-6.79687 -8.5,-10.09375 -2.3711,-2.72265 -4.69532,-5.51953 -7.1836,-8.13281 -0.6914,-0.72656 -4.70703,-4.22656 -4.64062,-3.32812"
   stroke-linecap="round"
   id="path14" />
</g>
<g
   transform="matrix(5.68,0,0,5.68,736.68128,174.08171)"
   id="g15">
<path
   style="opacity:1;fill:#ffffff;fill-rule:nonzero;stroke:none;stroke-width:1;stroke-linecap:butt;stroke-linejoin:miter;stroke-miterlimit:4;stroke-dasharray:none;stroke-dashoffset:0"
   vector-effect="non-scaling-stroke"
   transform="translate(-233.13,-144.05)"
   d="m 228.08594,158.04687 c -1.96094,-4.51171 -3.40235,-10.6289 -1.17188,-15.28906 2.05078,-4.28906 6.38281,-5.28906 10.5,-6.76562 0.34375,-0.1211 6.15235,-2.14063 5.98828,-2.49219 -0.57812,-1.24219 -5.26953,-2.51953 -6.47656,-2.875 -5.91406,-1.76172 -11.86719,-0.55078 -13.91797,5.89844 -0.45312,1.42578 -0.25,23.75781 5.07813,21.52343"
   stroke-linecap="round"
   id="path15" />
</g>
<g
   transform="matrix(5.68,0,0,5.68,750.69128,103.91171)"
   id="g16">
<path
   style="opacity:1;fill:#ffffff;fill-rule:nonzero;stroke:none;stroke-width:1;stroke-linecap:butt;stroke-linejoin:miter;stroke-miterlimit:4;stroke-dasharray:none;stroke-dashoffset:0"
   vector-effect="non-scaling-stroke"
   transform="translate(-235.6,-131.7)"
   d="m 251.85937,135.11719 c -3.82421,-8.15235 -10.62109,-17.15625 -20.85156,-11.2461 -6.85156,3.96485 -10.41015,10.06641 -11.66797,17.31641 -0.043,0.24609 0.3086,0.33984 0.39453,0.10547 2.375,-6.51563 5.76954,-13.0586 13.57813,-12.15625 4.43359,0.51562 15.20703,3.03125 18.54687,5.98047"
   stroke-linecap="round"
   id="path16" />
</g>
<g
   transform="matrix(5.68,0,0,5.68,796.92128,223.09171)"
   id="g17">
<path
   style="opacity:1;fill:#ffffff;fill-rule:nonzero;stroke:none;stroke-width:1;stroke-linecap:butt;stroke-linejoin:miter;stroke-miterlimit:4;stroke-dasharray:none;stroke-dashoffset:0"
   vector-effect="non-scaling-stroke"
   transform="translate(-243.74,-152.67)"
   d="m 230.48828,159.50781 c 16.00781,6.92188 25.98828,-2.40625 24.78516,-18.86328 7.67578,8.64844 0.0898,17.76563 -8.24219,21.89063 -3.59375,1.77734 -8.80078,2.5664 -12.90234,1.96875 -2.96094,-0.42579 -7.46875,-6.42188 -3.64063,-4.9961"
   stroke-linecap="round"
   id="path17" />
</g>
<g
   transform="matrix(5.68,0,0,5.68,789.18128,266.85171)"
   id="g18">
<path
   style="opacity:1;fill:#ffffff;fill-rule:nonzero;stroke:none;stroke-width:1;stroke-linecap:butt;stroke-linejoin:miter;stroke-miterlimit:4;stroke-dasharray:none;stroke-dashoffset:0"
   vector-effect="non-scaling-stroke"
   transform="translate(-243.02,-160.38)"
   d="m 259.57031,146.99609 c -1.05859,7.04297 -0.51562,19.2461 -7.91015,22.4375 -7.03907,3.03907 -15.92579,2.39453 -22.64454,-0.90234 -1.01171,-0.49219 -6.05078,-2.57422 -8.21484,-3.46484 -0.41797,-0.17188 -0.80469,0.29687 -0.5625,0.67968 0.89453,1.4336 3.67578,4.09766 12.29297,6.85547 5.49609,1.75781 11.39062,1.25781 16.98437,0.17578 6.16016,-1.1875 10.23047,-2.71484 13.7461,-7.99609 5.08984,-7.64844 2.125,-11.54297 -3.69141,-17.78516"
   stroke-linecap="round"
   id="path18" />
</g>
<g
   transform="matrix(5.68,0,0,5.68,208.32128,364.34171)"
   id="g19">
<path
   style="opacity:1;fill:#ffffff;fill-rule:nonzero;stroke:none;stroke-width:1;stroke-linecap:butt;stroke-linejoin:miter;stroke-miterlimit:4;stroke-dasharray:none;stroke-dashoffset:0"
   vector-effect="non-scaling-stroke"
   transform="translate(-140.13,-177.54)"
   d="m 124.97266,172.1875 c 9.27343,2.96875 17.41015,4.01562 26.86718,0.85156 7.86328,-2.6289 2.99219,1.42578 -0.64062,4.35156 -3.89063,3.13282 -8.54688,5.16016 -13.6211,5.53516 -4.45312,0.32813 -7.45703,-1.58594 -10.33593,-4.89453 -0.34375,-0.39453 -4.79297,-6.65234 -2.26953,-5.84375"
   stroke-linecap="round"
   id="path19" />
</g>
<g
   transform="matrix(5.68,0,0,5.68,763.67128,249.33171)"
   id="g20">
<path
   style="opacity:1;fill:#ffffff;fill-rule:nonzero;stroke:none;stroke-width:1;stroke-linecap:butt;stroke-linejoin:miter;stroke-miterlimit:4;stroke-dasharray:none;stroke-dashoffset:0"
   vector-effect="non-scaling-stroke"
   transform="translate(-237.88,-157.29)"
   d="m 256.30859,158.02734 c -6.61718,6.21875 -20.72656,12.15235 -27.92578,4.09766 -2.07422,-2.31641 -3.43359,-5.08203 -4.48437,-7.98828 -0.64844,-1.78906 -1.41407,-3.53906 -1.96094,-5.36328 -0.30469,-1.01563 -0.29688,-4.67969 -1.69141,-3.44922 -0.8125,0.71875 -0.76953,4.58203 -0.88672,5.67187 -0.4414,4.03516 -1.0664,9.19922 2.27735,12.24219 2.24609,2.04688 7.66015,4.33203 10.65625,5.30859 4.26172,1.38672 10.52344,1.31641 14.66015,-0.45703 2.48438,-1.0625 11.97657,-6 9.35547,-10.0625"
   stroke-linecap="round"
   id="path20" />
</g>
<g
   transform="matrix(5.68,0,0,5.68,785.07128,193.87171)"
   id="g21">
<path
   style="opacity:1;fill:#ffffff;fill-rule:nonzero;stroke:none;stroke-width:1;stroke-linecap:butt;stroke-linejoin:miter;stroke-miterlimit:4;stroke-dasharray:none;stroke-dashoffset:0"
   vector-effect="non-scaling-stroke"
   transform="translate(-241.65,-147.53)"
   d="m 229.03516,155.82422 c 4.61718,2.10156 13.4375,5.625 17.83984,1.55078 3.51172,-3.24609 2.36719,-10.12109 0.41797,-13.91406 -0.74219,-1.44922 -5.02344,-4.53516 -5.23438,-5.61328 -0.19922,-1.00782 1.97266,-3.13672 2.73438,-3.48047 2.36328,-1.08203 5.34375,0.72265 7.0039,2.39062 4.09375,4.10938 2.2461,10.17188 0.50782,14.96875 -1.54688,4.27735 -3.02735,7.9961 -7.70313,8.9336 -5.5625,1.11718 -11.875,-0.28125 -15.5664,-4.83594"
   stroke-linecap="round"
   id="path21" />
</g>
<g
   transform="matrix(5.68,0,0,5.68,728.64128,203.42171)"
   id="g22">
<path
   style="opacity:1;fill:#ffffff;fill-rule:nonzero;stroke:none;stroke-width:1;stroke-linecap:butt;stroke-linejoin:miter;stroke-miterlimit:4;stroke-dasharray:none;stroke-dashoffset:0"
   vector-effect="non-scaling-stroke"
   transform="translate(-231.72,-149.21)"
   d="m 236.49609,156.44141 c -5.02343,-3.08594 -10.70703,-9.19141 -5.83593,-14.76563 0.12109,-0.14062 0.0156,-0.35937 -0.17188,-0.35547 -4.35156,0.0703 -4.09375,8.46875 -2.91016,11.31641 1.02344,2.45703 5.83985,5.3789 8.88672,4.1914 0.16407,-0.0664 0.1836,-0.29296 0.0312,-0.38671"
   stroke-linecap="round"
   id="path22" />
</g>
<g
   transform="matrix(5.68,0,0,5.68,892.31128,154.50171)"
   id="g23">
<path
   style="opacity:1;fill:#ffffff;fill-rule:nonzero;stroke:none;stroke-width:1;stroke-linecap:butt;stroke-linejoin:miter;stroke-miterlimit:4;stroke-dasharray:none;stroke-dashoffset:0"
   vector-effect="non-scaling-stroke"
   transform="translate(-260.53,-140.6)"
   d="m 265.32422,152.01562 c 2.1289,-4.77734 7.61328,-10.63281 2.76172,-16.27343 -2.17188,-2.52735 -17.01953,-10.50781 -17.06641,-4.36328 -0.0195,2.29296 6.29297,9.63281 7.46094,11.51562 0.93359,1.50391 6.3164,10.13281 6.84375,9.12109"
   stroke-linecap="round"
   id="path23" />
</g>
<g
   transform="matrix(5.68,0,0,5.68,765.97128,169.08171)"
   id="g24">
<path
   style="opacity:1;fill:#ffffff;fill-rule:nonzero;stroke:none;stroke-width:1;stroke-linecap:butt;stroke-linejoin:miter;stroke-miterlimit:4;stroke-dasharray:none;stroke-dashoffset:0"
   vector-effect="non-scaling-stroke"
   transform="translate(-238.29,-143.17)"
   d="m 232.0625,147.54687 c 1.3125,-1.16796 3.10156,-1.89453 4.70312,-2.51562 1.37891,-0.53516 2.83985,-0.96484 4.32422,-1.03906 2.11328,-0.10547 3.77735,2.13672 4.67188,3.6914 0.19531,0.33985 0.71875,0.17578 0.68359,-0.21484 -0.54297,-6.13672 -5.40625,-12.39063 -12.21094,-8.55469 -2.21093,1.2461 -3.34765,3.44141 -3.86328,5.85547 -0.1875,0.89453 -0.30078,1.87109 -0.21875,2.78516 0.11328,1.32031 0.63282,1.3125 1.4961,0.39453 0.13281,-0.13672 0.26953,-0.27344 0.41406,-0.40235"
   stroke-linecap="round"
   id="path24" />
</g>
<g
   transform="matrix(5.68,0,0,5.68,671.17128,334.72171)"
   id="g25">
<path
   style="opacity:1;fill:#ffffff;fill-rule:nonzero;stroke:none;stroke-width:1;stroke-linecap:butt;stroke-linejoin:miter;stroke-miterlimit:4;stroke-dasharray:none;stroke-dashoffset:0"
   vector-effect="non-scaling-stroke"
   transform="translate(-221.6,-172.33)"
   d="m 210.38672,159.12891 c 2.2539,5.48046 3.88672,13.05859 7.32422,17.82031 1.58203,2.1914 2.28515,1.8125 5.32031,2.77734 1.67969,0.53906 3.89453,1.04688 5.21484,2.30469 1.1211,1.07422 0.79297,2.68359 2.47657,3.32422 4.19531,1.59765 0.92968,-3.39453 -0.0117,-4.67188 -2.59766,-3.52734 -5.62891,-6.79687 -8.50391,-10.09375 -2.36719,-2.72265 -4.69531,-5.51953 -7.18359,-8.13281 -0.69141,-0.72656 -4.70703,-4.22656 -4.63672,-3.32812"
   stroke-linecap="round"
   id="path25" />
</g>
<g
   transform="matrix(5.68,0,0,5.68,770.72128,222.39171)"
   id="g26">
<path
   style="opacity:1;fill:#ffffff;fill-rule:nonzero;stroke:none;stroke-width:1;stroke-linecap:butt;stroke-linejoin:miter;stroke-miterlimit:4;stroke-dasharray:none;stroke-dashoffset:0"
   vector-effect="non-scaling-stroke"
   transform="translate(-239.12,-152.55)"
   d="m 232.89844,150.53906 c 0.73047,0.51563 1.6875,0.85938 2.51172,1.21875 0.8164,0.35547 1.64453,0.6836 2.48828,0.97656 1.49218,0.52344 3.16015,1.0625 4.76172,0.94922 1.28906,-0.0898 2.07031,-0.85937 1.91015,-2.1914 -0.0469,-0.40235 -0.15625,-0.79297 -0.28906,-1.17578 -0.082,-0.23438 -0.17188,-0.46875 -0.27344,-0.69922 -0.0469,-0.11328 -0.25781,-0.75391 -0.36328,-0.78125 3.96875,0.92968 2.98438,5.41015 -0.10547,6.88672 -1.90625,0.91406 -4.34765,0.53515 -6.26953,-0.125 -2.01953,-0.69532 -4.22656,-2.00391 -5.04687,-4.09766 -0.0859,-0.22266 -0.15625,-0.45313 -0.20704,-0.6875 -0.0273,-0.11719 -0.0469,-0.24609 0.004,-0.35547 0.0937,-0.1875 0.35938,-0.21875 0.55078,-0.13281 0.11719,0.0508 0.21875,0.13672 0.32422,0.21094 0,0 0,0 0.004,0.004"
   stroke-linecap="round"
   id="path26" />
</g>
<g
   transform="matrix(5.68,0,0,5.68,766.05128,201.12171)"
   id="g27">
<path
   style="opacity:1;fill:#ffffff;fill-rule:nonzero;stroke:none;stroke-width:1;stroke-linecap:butt;stroke-linejoin:miter;stroke-miterlimit:4;stroke-dasharray:none;stroke-dashoffset:0"
   vector-effect="non-scaling-stroke"
   transform="translate(-238.3,-148.8)"
   d="m 238.29687,151.50391 c -0.61328,-2.29688 -0.4414,-5.75782 2.8125,-4.01954 -5.05078,-4.17968 -8.19921,2.29688 -2.8125,4.01954"
   stroke-linecap="round"
   id="path27" />
</g>
<g
   transform="matrix(5.68,0,0,5.68,783.05128,210.33171)"
   id="g28">
<path
   style="opacity:1;fill:#ffffff;fill-rule:nonzero;stroke:none;stroke-width:1;stroke-linecap:butt;stroke-linejoin:miter;stroke-miterlimit:4;stroke-dasharray:none;stroke-dashoffset:0"
   vector-effect="non-scaling-stroke"
   transform="translate(-241.29,-150.43)"
   d="m 240.28906,151.50391 c 1.06641,-0.92188 1.30078,-2.14844 -0.2539,-2.86719 3.97265,-0.42188 2.59375,5.66015 0.2539,2.86719"
   stroke-linecap="round"
   id="path28" />
</g>
<g
   transform="matrix(5.68,0,0,5.68,619.88128,202.05171)"
   id="g29">
<path
   style="opacity:1;fill:#ffffff;fill-rule:nonzero;stroke:none;stroke-width:1;stroke-linecap:butt;stroke-linejoin:miter;stroke-miterlimit:4;stroke-dasharray:none;stroke-dashoffset:0"
   vector-effect="non-scaling-stroke"
   transform="translate(-212.57,-148.97)"
   d="m 217.79297,135.36719 c 0.60156,-0.16407 1.17578,0.35156 1.08203,0.96875 -0.63672,4.21484 -1.89063,8.47265 -2.10547,12.64062 -0.21484,4.07422 0.85938,8.48047 1.80469,12.56641 0.17969,0.77734 -0.69141,1.36328 -1.34375,0.90234 -4.9336,-3.5 -9.28125,-8.76172 -10.71485,-14.60156 -1.71093,-6.95313 5.32032,-10.83594 11.27735,-12.47656"
   stroke-linecap="round"
   id="path29" />
</g>
<g
   transform="matrix(5.68,0,0,5.68,513.86128,218.18171)"
   id="g30">
<path
   style="opacity:1;fill:#ffffff;fill-rule:nonzero;stroke:none;stroke-width:1;stroke-linecap:butt;stroke-linejoin:miter;stroke-miterlimit:4;stroke-dasharray:none;stroke-dashoffset:0"
   vector-effect="non-scaling-stroke"
   transform="translate(-193.27,-151.81)"
   d="m 209.82422,138.42969 c -1.0586,7.03906 -0.51953,19.24609 -7.91406,22.4375 -7.03516,3.03906 -15.92188,2.39453 -22.64063,-0.90235 -1.01172,-0.49609 -6.05078,-2.57422 -8.21484,-3.46484 -0.41797,-0.17188 -0.80469,0.29297 -0.56641,0.67578 0.89844,1.43359 3.67969,4.10156 12.29688,6.85938 5.49218,1.75781 11.39062,1.25781 16.98437,0.17578 6.16016,-1.1875 10.23047,-2.71485 13.74609,-7.9961 5.08594,-7.64843 2.125,-11.54297 -3.6914,-17.78515"
   stroke-linecap="round"
   id="path30" />
</g>
<g
   transform="matrix(5.68,0,0,5.68,502.46128,145.21171)"
   id="g31">
<path
   style="opacity:1;fill:#ffffff;fill-rule:nonzero;stroke:none;stroke-width:1;stroke-linecap:butt;stroke-linejoin:miter;stroke-miterlimit:4;stroke-dasharray:none;stroke-dashoffset:0"
   vector-effect="non-scaling-stroke"
   transform="translate(-191.9,-138.97)"
   d="m 179.28906,147.25781 c 4.61328,2.10156 13.4336,5.625 17.83985,1.55078 3.51171,-3.24609 2.36718,-10.12109 0.41796,-13.91797 -0.74218,-1.44531 -5.02343,-4.53125 -5.23437,-5.60937 -0.19922,-1.00781 1.97266,-3.13672 2.73437,-3.48047 2.36329,-1.08203 5.34375,0.72266 7.00391,2.39063 4.09375,4.10937 2.24609,10.17187 0.50781,14.96484 -1.55078,4.27734 -3.02734,8 -7.70312,8.9375 -5.5625,1.11719 -11.875,-0.28516 -15.56641,-4.83594"
   stroke-linecap="round"
   id="path31" />
</g>
<g
   transform="matrix(5.68,0,0,5.68,792.33128,364.34171)"
   id="g32">
<path
   style="opacity:1;fill:#ffffff;fill-rule:nonzero;stroke:none;stroke-width:1;stroke-linecap:butt;stroke-linejoin:miter;stroke-miterlimit:4;stroke-dasharray:none;stroke-dashoffset:0"
   vector-effect="non-scaling-stroke"
   transform="translate(-242.93,-177.54)"
   d="m 227.76953,172.1875 c 9.27734,2.96875 17.41406,4.01562 26.87109,0.85156 7.86329,-2.6289 2.98829,1.42578 -0.64453,4.35156 -3.88672,3.13282 -8.54297,5.16016 -13.61718,5.53516 -4.45313,0.32813 -7.46094,-1.58594 -10.33985,-4.89453 -0.33984,-0.39453 -4.78906,-6.65234 -2.26953,-5.84375"
   stroke-linecap="round"
   id="path32" />
</g>
<g
   transform="matrix(5.68,0,0,5.68,481.05128,200.66171)"
   id="g33">
<path
   style="opacity:1;fill:#ffffff;fill-rule:nonzero;stroke:none;stroke-width:1;stroke-linecap:butt;stroke-linejoin:miter;stroke-miterlimit:4;stroke-dasharray:none;stroke-dashoffset:0"
   vector-effect="non-scaling-stroke"
   transform="translate(-188.13,-148.73)"
   d="m 206.55859,149.45703 c -6.61328,6.22266 -20.72265,12.15625 -27.92578,4.10156 -2.07031,-2.3164 -3.42969,-5.08203 -4.48047,-7.98828 -0.64843,-1.78906 -1.41406,-3.53906 -1.96093,-5.36328 -0.30469,-1.01953 -0.29688,-4.67969 -1.69141,-3.44922 -0.8125,0.71875 -0.76953,4.58203 -0.89063,5.67188 -0.4375,4.03515 -1.0625,9.19922 2.28125,12.24218 2.24219,2.04297 7.66016,4.33204 10.65625,5.3086 4.25782,1.38672 10.52344,1.3164 14.65625,-0.45703 2.48438,-1.0625 11.97657,-6 9.35547,-10.06641"
   stroke-linecap="round"
   id="path33" />
</g>
<g
   transform="matrix(5.68,0,0,5.68,468.09128,55.261712)"
   id="g34">
<path
   style="opacity:1;fill:#ffffff;fill-rule:nonzero;stroke:none;stroke-width:1;stroke-linecap:butt;stroke-linejoin:miter;stroke-miterlimit:4;stroke-dasharray:none;stroke-dashoffset:0"
   vector-effect="non-scaling-stroke"
   transform="translate(-185.85,-123.13)"
   d="m 202.11328,126.55078 c -3.82422,-8.15234 -10.625,-17.15625 -20.85156,-11.24609 -6.85547,3.96484 -10.41016,10.0664 -11.66797,17.3125 -0.043,0.25 0.30859,0.34375 0.39453,0.10547 2.375,-6.51172 5.76563,-13.05469 13.57422,-12.15235 4.4375,0.51172 15.21094,3.03125 18.55078,5.98047"
   stroke-linecap="round"
   id="path34" />
</g>
<g
   transform="matrix(5.68,0,0,5.68,454.06128,125.42171)"
   id="g35">
<path
   style="opacity:1;fill:#ffffff;fill-rule:nonzero;stroke:none;stroke-width:1;stroke-linecap:butt;stroke-linejoin:miter;stroke-miterlimit:4;stroke-dasharray:none;stroke-dashoffset:0"
   vector-effect="non-scaling-stroke"
   transform="translate(-183.38,-135.48)"
   d="m 178.33984,149.48047 c -1.96093,-4.51172 -3.40234,-10.62891 -1.17187,-15.28906 2.04687,-4.28907 6.38281,-5.28907 10.5,-6.76563 0.33984,-0.12109 6.15234,-2.14062 5.98828,-2.49219 -0.57813,-1.24218 -5.26953,-2.51953 -6.47656,-2.8789 -5.91797,-1.75781 -11.86719,-0.54688 -13.91797,5.90234 -0.45313,1.42578 -0.25,23.75391 5.07812,21.52344"
   stroke-linecap="round"
   id="path35" />
</g>
<g
   transform="matrix(5.68,0,0,5.68,514.32128,174.41171)"
   id="g36">
<path
   style="opacity:1;fill:#ffffff;fill-rule:nonzero;stroke:none;stroke-width:1;stroke-linecap:butt;stroke-linejoin:miter;stroke-miterlimit:4;stroke-dasharray:none;stroke-dashoffset:0"
   vector-effect="non-scaling-stroke"
   transform="translate(-193.99,-144.1)"
   d="m 180.74219,150.94141 c 16.00781,6.92187 25.98828,-2.40625 24.78515,-18.86719 7.67578,8.64844 0.0898,17.76953 -8.24609,21.89453 -3.58984,1.77734 -8.79688,2.56641 -12.89844,1.96875 -2.96094,-0.42578 -7.46875,-6.42578 -3.64062,-4.99609"
   stroke-linecap="round"
   id="path36" />
</g>
<g
   transform="matrix(5.68,0,0,5.68,446.04128,154.74171)"
   id="g37">
<path
   style="opacity:1;fill:#ffffff;fill-rule:nonzero;stroke:none;stroke-width:1;stroke-linecap:butt;stroke-linejoin:miter;stroke-miterlimit:4;stroke-dasharray:none;stroke-dashoffset:0"
   vector-effect="non-scaling-stroke"
   transform="translate(-181.97,-140.64)"
   d="m 186.75,147.875 c -5.02344,-3.08594 -10.71094,-9.19141 -5.83984,-14.76563 0.125,-0.14062 0.0195,-0.35937 -0.16797,-0.35937 -4.35157,0.0742 -4.09375,8.47266 -2.91016,11.32031 1.01953,2.45313 5.83594,5.37891 8.88281,4.19141 0.16797,-0.0664 0.1875,-0.29297 0.0352,-0.38672"
   stroke-linecap="round"
   id="path37" />
</g>
<g
   transform="matrix(5.68,0,0,5.68,483.36128,120.42171)"
   id="g38">
<path
   style="opacity:1;fill:#ffffff;fill-rule:nonzero;stroke:none;stroke-width:1;stroke-linecap:butt;stroke-linejoin:miter;stroke-miterlimit:4;stroke-dasharray:none;stroke-dashoffset:0"
   vector-effect="non-scaling-stroke"
   transform="translate(-188.54,-134.6)"
   d="m 182.31641,138.98047 c 1.3125,-1.16797 3.10156,-1.89453 4.70312,-2.51563 1.37891,-0.53515 2.83984,-0.96484 4.32422,-1.03906 2.10937,-0.10547 3.77734,2.13672 4.67187,3.69141 0.19532,0.33984 0.71875,0.17578 0.6836,-0.21485 -0.54297,-6.13672 -5.40625,-12.39062 -12.21094,-8.55468 -2.21094,1.24609 -3.35156,3.4375 -3.86328,5.85546 -0.1875,0.89454 -0.30078,1.8711 -0.22266,2.78516 0.11719,1.32031 0.63282,1.3125 1.5,0.39453 0.12891,-0.14062 0.26953,-0.27344 0.41407,-0.40234"
   stroke-linecap="round"
   id="path38" />
</g>
<g
   transform="matrix(5.68,0,0,5.68,488.10128,173.73171)"
   id="g39">
<path
   style="opacity:1;fill:#ffffff;fill-rule:nonzero;stroke:none;stroke-width:1;stroke-linecap:butt;stroke-linejoin:miter;stroke-miterlimit:4;stroke-dasharray:none;stroke-dashoffset:0"
   vector-effect="non-scaling-stroke"
   transform="translate(-189.37,-143.98)"
   d="m 183.14844,141.96875 c 0.73437,0.51953 1.6914,0.86328 2.51562,1.22266 0.81641,0.35546 1.64453,0.68359 2.48828,0.97656 1.49219,0.52344 3.15625,1.05859 4.76172,0.94922 1.28906,-0.0937 2.06641,-0.85938 1.91016,-2.19532 -0.0508,-0.39843 -0.15625,-0.79296 -0.28906,-1.17187 -0.082,-0.23828 -0.17579,-0.46875 -0.27344,-0.69922 -0.0508,-0.11328 -0.25781,-0.75391 -0.36719,-0.78125 3.97266,0.92969 2.98828,5.41016 -0.10156,6.88672 -1.90625,0.91016 -4.34766,0.53125 -6.26953,-0.125 -2.02344,-0.69531 -4.23047,-2.00391 -5.04688,-4.10156 -0.0859,-0.21875 -0.15625,-0.44922 -0.20703,-0.6836 -0.0273,-0.11718 -0.0469,-0.24609 0.004,-0.35547 0.0898,-0.1914 0.35937,-0.21875 0.55078,-0.13281 0.11719,0.0508 0.21875,0.13672 0.32422,0.21094"
   stroke-linecap="round"
   id="path39" />
</g>
<g
   transform="matrix(5.68,0,0,5.68,483.43128,152.44171)"
   id="g40">
<path
   style="opacity:1;fill:#ffffff;fill-rule:nonzero;stroke:none;stroke-width:1;stroke-linecap:butt;stroke-linejoin:miter;stroke-miterlimit:4;stroke-dasharray:none;stroke-dashoffset:0"
   vector-effect="non-scaling-stroke"
   transform="translate(-188.55,-140.24)"
   d="m 188.55078,142.9375 c -0.61719,-2.29688 -0.44141,-5.75781 2.8125,-4.01953 -5.05469,-4.17969 -8.19922,2.29687 -2.8125,4.01953"
   stroke-linecap="round"
   id="path40" />
</g>
<g
   transform="matrix(5.68,0,0,5.68,500.45128,161.67171)"
   id="g41">
<path
   style="opacity:1;fill:#ffffff;fill-rule:nonzero;stroke:none;stroke-width:1;stroke-linecap:butt;stroke-linejoin:miter;stroke-miterlimit:4;stroke-dasharray:none;stroke-dashoffset:0"
   vector-effect="non-scaling-stroke"
   transform="translate(-191.55,-141.86)"
   d="m 190.54297,142.9375 c 1.0664,-0.92188 1.30078,-2.15234 -0.25391,-2.86719 3.97266,-0.42578 2.59375,5.66016 0.25391,2.86719"
   stroke-linecap="round"
   id="path41" />
</g>
<g
   transform="matrix(5.68,0,0,5.68,337.25128,153.39171)"
   id="g42">
<path
   style="opacity:1;fill:#ffffff;fill-rule:nonzero;stroke:none;stroke-width:1;stroke-linecap:butt;stroke-linejoin:miter;stroke-miterlimit:4;stroke-dasharray:none;stroke-dashoffset:0"
   vector-effect="non-scaling-stroke"
   transform="translate(-162.82,-140.41)"
   d="m 168.04687,126.80078 c 0.60157,-0.16406 1.17188,0.34766 1.07813,0.96875 -0.63281,4.21094 -1.88672,8.47266 -2.10547,12.64063 -0.21094,4.07421 0.86328,8.47656 1.80859,12.5664 0.17969,0.77735 -0.69531,1.36328 -1.34375,0.90235 -4.93359,-3.5 -9.28125,-8.76172 -10.71875,-14.60157 -1.70703,-6.95312 5.32032,-10.83593 11.28125,-12.47656"
   stroke-linecap="round"
   id="path42" />
</g>
<g
   transform="matrix(5.68,0,0,5.68,390.73128,286.06171)"
   id="g43">
<path
   style="opacity:1;fill:#ffffff;fill-rule:nonzero;stroke:none;stroke-width:1;stroke-linecap:butt;stroke-linejoin:miter;stroke-miterlimit:4;stroke-dasharray:none;stroke-dashoffset:0"
   vector-effect="non-scaling-stroke"
   transform="translate(-171.85,-163.76)"
   d="m 160.63672,150.5625 c 2.2539,5.48047 3.89062,13.05469 7.32812,17.82031 1.58203,2.19141 2.28516,1.8125 5.32032,2.77735 1.67968,0.53515 3.89062,1.04296 5.21093,2.30468 1.125,1.07422 0.79297,2.67969 2.48047,3.32422 4.19531,1.59766 0.92969,-3.39453 -0.0156,-4.67578 -2.59766,-3.52344 -5.625,-6.79297 -8.5,-10.08984 -2.3711,-2.72266 -4.69532,-5.51953 -7.1836,-8.13282 -0.6914,-0.72656 -4.70703,-4.22656 -4.64062,-3.32812"
   stroke-linecap="round"
   id="path43" />
</g>
<g
   transform="matrix(5.68,0,0,5.68,509.72128,315.68171)"
   id="g44">
<path
   style="opacity:1;fill:#ffffff;fill-rule:nonzero;stroke:none;stroke-width:1;stroke-linecap:butt;stroke-linejoin:miter;stroke-miterlimit:4;stroke-dasharray:none;stroke-dashoffset:0"
   vector-effect="non-scaling-stroke"
   transform="translate(-193.18,-168.97)"
   d="m 178.02344,163.62109 c 9.27343,2.96875 17.41015,4.01563 26.87109,0.85157 7.85938,-2.62891 2.98828,1.42578 -0.64453,4.35156 -3.89063,3.13281 -8.54688,5.16015 -13.61719,5.53515 -4.45703,0.32813 -7.46094,-1.58593 -10.33984,-4.89453 -0.34375,-0.39453 -4.79297,-6.65234 -2.26953,-5.84375"
   stroke-linecap="round"
   id="path44" />
</g>
<g
   transform="matrix(0,0,0,0,-91.468721,-334.73829)"
   id="g46">
<g
   id="g45">
</g>
</g>
<g
   transform="matrix(0,0,0,0,-91.468721,-334.73829)"
   id="g48">
<g
   id="g47">
</g>
</g>
<g
   transform="matrix(0,0,0,0,-91.468721,-334.73829)"
   id="g50">
<g
   id="g49">
</g>
</g>
<g
   transform="matrix(0,0,0,0,-91.468721,-334.73829)"
   id="g52">
<g
   id="g51">
</g>
</g>
<g
   transform="matrix(0,0,0,0,-91.468721,-334.73829)"
   id="g54">
<g
   id="g53">
</g>
</g>
<g
   transform="matrix(0,0,0,0,-91.468721,-334.73829)"
   id="g56">
<g
   id="g55">
</g>
</g>
<g
   transform="matrix(0,0,0,0,-91.468721,-334.73829)"
   id="g58">
<g
   id="g57">
</g>
</g>
<g
   transform="matrix(0,0,0,0,-91.468721,-334.73829)"
   id="g60">
<g
   id="g59">
</g>
</g>
<g
   transform="matrix(0,0,0,0,-91.468721,-334.73829)"
   id="g62">
<g
   id="g61">
</g>
</g>
<g
   transform="matrix(0,0,0,0,-91.468721,-334.73829)"
   id="g64">
<g
   id="g63">
</g>
</g>
<g
   transform="matrix(0,0,0,0,-91.468721,-334.73829)"
   id="g66">
<g
   id="g65">
</g>
</g>
<g
   transform="matrix(0,0,0,0,-91.468721,-334.73829)"
   id="g68">
<g
   id="g67">
</g>
</g>
<g
   transform="matrix(0,0,0,0,-91.468721,-334.73829)"
   id="g70">
<g
   id="g69">
</g>
</g>
<g
   transform="matrix(0,0,0,0,-91.468721,-334.73829)"
   id="g72">
<g
   id="g71">
</g>
</g>
<g
   transform="matrix(0,0,0,0,-91.468721,-334.73829)"
   id="g74">
<g
   id="g73">
</g>
</g>
<g
   transform="matrix(0,0,0,0,-91.468721,-334.73829)"
   id="g76">
<g
   id="g75">
</g>
</g>
<g
   transform="matrix(0,0,0,0,-91.468721,-334.73829)"
   id="g78">
<g
   id="g77">
</g>
</g>
<g
   transform="matrix(0,0,0,0,-91.468721,-334.73829)"
   id="g80">
<g
   id="g79">
</g>
</g>
<g
   transform="matrix(0,0,0,0,-91.468721,-334.73829)"
   id="g82">
<g
   id="g81">
</g>
</g>
<g
   transform="matrix(0,0,0,0,-91.468721,-334.73829)"
   id="g84">
<g
   id="g83">
</g>
</g>
<g
   transform="matrix(0,0,0,0,-91.468721,-334.73829)"
   id="g86">
<g
   id="g85">
</g>
</g>
<g
   transform="matrix(0,0,0,0,-91.468721,-334.73829)"
   id="g88">
<g
   id="g87">
</g>
</g>
<g
   transform="matrix(0,0,0,0,-91.468721,-334.73829)"
   id="g90">
<g
   id="g89">
</g>
</g>
<g
   transform="matrix(0,0,0,0,-91.468721,-334.73829)"
   id="g92">
<g
   id="g91">
</g>
</g>
<g
   transform="matrix(0,0,0,0,-91.468721,-334.73829)"
   id="g94">
<g
   id="g93">
</g>
</g>
<g
   transform="matrix(0,0,0,0,-91.468721,-334.73829)"
   id="g96">
<g
   id="g95">
</g>
</g>
<g
   transform="matrix(0,0,0,0,-91.468721,-334.73829)"
   id="g98">
<g
   id="g97">
</g>
</g>
<g
   transform="matrix(0,0,0,0,-91.468721,-334.73829)"
   id="g100">
<g
   id="g99">
</g>
</g>
<g
   transform="matrix(0,0,0,0,-91.468721,-334.73829)"
   id="g102">
<g
   id="g101">
</g>
</g>
<g
   id="g104"
   transform="translate(-91.468721,-334.73829)">
<g
   id="g103">
</g>
</g>
<g
   id="g106"
   transform="translate(-91.468721,-334.73829)">
<g
   id="g105">
</g>
</g>
<g
   id="g108"
   transform="translate(-91.468721,-334.73829)">
<g
   id="g107">
</g>
</g>
<g
   id="g110"
   transform="translate(-91.468721,-334.73829)">
<g
   id="g109">
</g>
</g>
<g
   id="g112"
   transform="translate(-91.468721,-334.73829)">
<g
   id="g111">
</g>
</g>
<g
   id="g114"
   transform="translate(-91.468721,-334.73829)">
<g
   id="g113">
</g>
</g>
<g
   id="g116"
   transform="translate(-91.468721,-334.73829)">
<g
   id="g115">
</g>
</g>
<g
   id="g118"
   transform="translate(-91.468721,-334.73829)">
<g
   id="g117">
</g>
</g>
<g
   id="g120"
   transform="translate(-91.468721,-334.73829)">
<g
   id="g119">
</g>
</g>
<g
   id="g122"
   transform="translate(-91.468721,-334.73829)">
<g
   id="g121">
</g>
</g>
<g
   id="g124"
   transform="translate(-91.468721,-334.73829)">
<g
   id="g123">
</g>
</g>
<g
   id="g126"
   transform="translate(-91.468721,-334.73829)">
<g
   id="g125">
</g>
</g>
<g
   id="g128"
   transform="translate(-91.468721,-334.73829)">
<g
   id="g127">
</g>
</g>
<g
   id="g130"
   transform="translate(-91.468721,-334.73829)">
<g
   id="g129">
</g>
</g>
</svg>
