<?xml version="1.0" encoding="UTF-8" standalone="no" ?>
<!DOCTYPE svg PUBLIC "-//W3C//DTD SVG 1.1//EN" "http://www.w3.org/Graphics/SVG/1.1/DTD/svg11.dtd">
<svg xmlns="http://www.w3.org/2000/svg" xmlns:xlink="http://www.w3.org/1999/xlink" version="1.1" width="1080" height="1080" viewBox="0 0 1080 1080" xml:space="preserve">
<desc>Created with Fabric.js 5.2.4</desc>
<defs>
</defs>
<g transform="matrix(1 0 0 1 540 540)" id="74a52f25-cafe-4baf-ba29-b5f97ca98ace"  >
<rect style="stroke: none; stroke-width: 1; stroke-dasharray: none; stroke-linecap: butt; stroke-dashoffset: 0; stroke-linejoin: miter; stroke-miterlimit: 4; fill: rgb(255,255,255); fill-rule: nonzero; opacity: 1; visibility: hidden;" vector-effect="non-scaling-stroke"  x="-540" y="-540" rx="0" ry="0" width="1080" height="1080" />
</g>
<g transform="matrix(1 0 0 1 540 540)" id="d0645c55-b77e-4fd5-8fbd-259979e8cee8"  >
</g>
<g transform="matrix(1 0 0 1 540 540)" clip-path="url(#CLIPPATH_4)"  >
<clipPath id="CLIPPATH_4" >
	<path transform="matrix(1.33 0 0 1.33 -0.44 -0.44) translate(-187.5, -187.5)" clip-path="url(#undefined)" d="M 187.5 57.640625 C 115.128906 57.640625 56.460938 115.78125 56.460938 187.5 C 56.460938 259.21875 115.128906 317.359375 187.5 317.359375 C 259.871094 317.359375 318.539062 259.21875 318.539062 187.5 C 318.539062 115.78125 259.871094 57.640625 187.5 57.640625 Z M 187.5 57.640625" stroke-linecap="round" />
</clipPath>
<path style="stroke: rgb(190,28,45); stroke-width: 4; stroke-dasharray: none; stroke-linecap: butt; stroke-dashoffset: 0; stroke-linejoin: miter; stroke-miterlimit: 4; fill: none; fill-rule: nonzero; opacity: 1;" vector-effect="non-scaling-stroke"  transform=" translate(-174.72, -173.15)" d="M 174.720807 0.000942913 C 78.226009 0.000942913 0.00204574 77.521781 0.00204574 173.146788 C 0.00204574 268.771794 78.226009 346.292632 174.720807 346.292632 C 271.215605 346.292632 349.439569 268.771794 349.439569 173.146788 C 349.439569 77.521781 271.215605 0.000942913 174.720807 0.000942913 Z M 174.720807 0.000942913" stroke-linecap="round" />
</g>
<g transform="matrix(1.33 0 0 1.33 403.52 571.56)"  >
<path style="stroke: none; stroke-width: 1; stroke-dasharray: none; stroke-linecap: butt; stroke-dashoffset: 0; stroke-linejoin: miter; stroke-miterlimit: 4; fill: rgb(190,28,45); fill-rule: nonzero; opacity: 1;" vector-effect="non-scaling-stroke"  transform=" translate(-7.72, 8.33)" d="M 4.28125 -1.578125 C 4.707031 -1.585938 5.03125 -1.632812 5.25 -1.71875 C 5.476562 -1.8125 5.65625 -2 5.78125 -2.28125 C 5.90625 -2.570312 5.96875 -3.023438 5.96875 -3.640625 L 5.96875 -15.046875 L 4.875 -15.046875 C 3.9375 -15.023438 3.210938 -14.703125 2.703125 -14.078125 C 2.203125 -13.460938 1.953125 -12.53125 1.953125 -11.28125 L 0.375 -11.28125 L 0.5 -16.65625 L 14.921875 -16.65625 L 15.0625 -11.28125 L 13.5 -11.28125 C 13.5 -12.53125 13.238281 -13.476562 12.71875 -14.125 C 12.207031 -14.769531 11.488281 -15.082031 10.5625 -15.0625 L 9.421875 -15.0625 L 9.421875 -3.90625 C 9.421875 -2.84375 9.390625 -2.128906 9.328125 -1.765625 C 9.847656 -1.804688 10.484375 -1.828125 11.234375 -1.828125 L 11.234375 0 L 4.28125 0 Z M 4.28125 -1.578125" stroke-linecap="round" />
</g>
<g transform="matrix(1.33 0 0 1.33 422.45 574.74)"  >
<path style="stroke: none; stroke-width: 1; stroke-dasharray: none; stroke-linecap: butt; stroke-dashoffset: 0; stroke-linejoin: miter; stroke-miterlimit: 4; fill: rgb(190,28,45); fill-rule: nonzero; opacity: 1;" vector-effect="non-scaling-stroke"  transform=" translate(-6.45, 5.95)" d="M 6.609375 0.375 C 5.453125 0.375 4.429688 0.117188 3.546875 -0.390625 C 2.660156 -0.910156 1.96875 -1.644531 1.46875 -2.59375 C 0.976562 -3.539062 0.734375 -4.648438 0.734375 -5.921875 C 0.734375 -7.035156 0.984375 -8.078125 1.484375 -9.046875 C 1.984375 -10.023438 2.6875 -10.804688 3.59375 -11.390625 C 4.5 -11.984375 5.53125 -12.28125 6.6875 -12.28125 C 8.226562 -12.28125 9.507812 -11.828125 10.53125 -10.921875 C 11.550781 -10.015625 12.054688 -8.507812 12.046875 -6.40625 L 4.234375 -6.265625 C 4.234375 -4.867188 4.5 -3.765625 5.03125 -2.953125 C 5.5625 -2.140625 6.414062 -1.734375 7.59375 -1.734375 C 8.144531 -1.734375 8.738281 -1.875 9.375 -2.15625 C 10.007812 -2.445312 10.582031 -2.898438 11.09375 -3.515625 L 12.15625 -2.515625 C 10.8125 -0.585938 8.960938 0.375 6.609375 0.375 Z M 8.75 -7.921875 C 8.707031 -9.710938 8.0625 -10.609375 6.8125 -10.609375 C 6.125 -10.609375 5.578125 -10.363281 5.171875 -9.875 C 4.765625 -9.394531 4.5 -8.742188 4.375 -7.921875 Z M 8.75 -7.921875" stroke-linecap="round" />
</g>
<g transform="matrix(1.33 0 0 1.33 441.25 574.49)"  >
<path style="stroke: none; stroke-width: 1; stroke-dasharray: none; stroke-linecap: butt; stroke-dashoffset: 0; stroke-linejoin: miter; stroke-miterlimit: 4; fill: rgb(190,28,45); fill-rule: nonzero; opacity: 1;" vector-effect="non-scaling-stroke"  transform=" translate(-7.75, 6.14)" d="M 0.96875 -1.546875 C 1.570312 -1.546875 1.957031 -1.710938 2.125 -2.046875 C 2.289062 -2.378906 2.375 -2.921875 2.375 -3.671875 L 2.375 -7.65625 C 2.375 -8.375 2.40625 -9.050781 2.46875 -9.6875 L 0.8125 -9.609375 L 0.8125 -11.421875 C 1.8125 -11.421875 2.617188 -11.488281 3.234375 -11.625 C 3.859375 -11.769531 4.269531 -11.941406 4.46875 -12.140625 L 5.640625 -12.140625 C 5.640625 -12.109375 5.671875 -11.710938 5.734375 -10.953125 L 5.78125 -10.953125 C 6.238281 -11.316406 6.804688 -11.628906 7.484375 -11.890625 C 8.160156 -12.148438 8.734375 -12.28125 9.203125 -12.28125 C 10.648438 -12.28125 11.679688 -11.863281 12.296875 -11.03125 C 12.921875 -10.207031 13.234375 -8.867188 13.234375 -7.015625 L 13.234375 -3.828125 C 13.234375 -3.066406 13.203125 -2.367188 13.140625 -1.734375 C 13.660156 -1.785156 14.175781 -1.8125 14.6875 -1.8125 L 14.6875 0 L 8.453125 0 L 8.453125 -1.546875 C 9.054688 -1.546875 9.441406 -1.710938 9.609375 -2.046875 C 9.785156 -2.378906 9.875 -2.921875 9.875 -3.671875 L 9.859375 -7.046875 C 9.859375 -8.085938 9.707031 -8.851562 9.40625 -9.34375 C 9.113281 -9.84375 8.617188 -10.09375 7.921875 -10.09375 C 7.546875 -10.09375 7.15625 -10.007812 6.75 -9.84375 C 6.351562 -9.675781 6.023438 -9.460938 5.765625 -9.203125 L 5.765625 -3.828125 C 5.765625 -3.066406 5.726562 -2.367188 5.65625 -1.734375 C 6.164062 -1.785156 6.679688 -1.8125 7.203125 -1.8125 L 7.203125 0 L 0.96875 0 Z M 0.96875 -1.546875" stroke-linecap="round" />
</g>
<g transform="matrix(1.33 0 0 1.33 460.74 574.82)"  >
<path style="stroke: none; stroke-width: 1; stroke-dasharray: none; stroke-linecap: butt; stroke-dashoffset: 0; stroke-linejoin: miter; stroke-miterlimit: 4; fill: rgb(190,28,45); fill-rule: nonzero; opacity: 1;" vector-effect="non-scaling-stroke"  transform=" translate(-7.25, 5.88)" d="M 5.90625 0.375 C 4.488281 0.375 3.472656 -0.0351562 2.859375 -0.859375 C 2.253906 -1.679688 1.953125 -3.019531 1.953125 -4.875 L 1.953125 -7.609375 C 1.953125 -8.273438 1.972656 -8.96875 2.015625 -9.6875 L 0.359375 -9.609375 L 0.359375 -11.421875 C 1.359375 -11.421875 2.164062 -11.488281 2.78125 -11.625 C 3.40625 -11.769531 3.816406 -11.941406 4.015625 -12.140625 L 5.328125 -12.140625 L 5.328125 -4.859375 C 5.328125 -3.804688 5.460938 -3.035156 5.734375 -2.546875 C 6.003906 -2.054688 6.429688 -1.8125 7.015625 -1.8125 C 7.410156 -1.8125 7.816406 -1.921875 8.234375 -2.140625 C 8.660156 -2.359375 9.015625 -2.628906 9.296875 -2.953125 L 9.296875 -7.609375 C 9.296875 -8.359375 9.332031 -9.050781 9.40625 -9.6875 L 7.734375 -9.609375 L 7.734375 -11.421875 C 8.734375 -11.421875 9.535156 -11.488281 10.140625 -11.625 C 10.753906 -11.769531 11.164062 -11.941406 11.375 -12.140625 L 12.6875 -12.140625 L 12.6875 -3.828125 C 12.6875 -3.066406 12.65625 -2.367188 12.59375 -1.734375 C 13.09375 -1.785156 13.609375 -1.8125 14.140625 -1.8125 L 14.140625 0 L 9.609375 0 L 9.46875 -1.234375 L 9.453125 -1.234375 C 8.859375 -0.722656 8.285156 -0.328125 7.734375 -0.046875 C 7.191406 0.234375 6.582031 0.375 5.90625 0.375 Z M 5.90625 0.375" stroke-linecap="round" />
</g>
<g transform="matrix(1.33 0 0 1.33 477.7 573)"  >
<path style="stroke: none; stroke-width: 1; stroke-dasharray: none; stroke-linecap: butt; stroke-dashoffset: 0; stroke-linejoin: miter; stroke-miterlimit: 4; fill: rgb(190,28,45); fill-rule: nonzero; opacity: 1;" vector-effect="non-scaling-stroke"  transform=" translate(-5.26, 7.25)" d="M 5.6875 0.375 C 3.207031 0.375 1.96875 -1.144531 1.96875 -4.1875 L 2.015625 -9.921875 L 0.40625 -9.921875 L 0.40625 -11.890625 C 0.914062 -11.890625 1.394531 -12.046875 1.84375 -12.359375 C 2.289062 -12.679688 2.671875 -13.070312 2.984375 -13.53125 C 3.304688 -14 3.535156 -14.445312 3.671875 -14.875 L 5.421875 -14.875 L 5.40625 -11.890625 L 8.421875 -11.890625 L 8.421875 -10.0625 L 5.40625 -10 L 5.375 -4.140625 C 5.375 -2.597656 5.851562 -1.828125 6.8125 -1.828125 C 7.570312 -1.828125 8.289062 -2.304688 8.96875 -3.265625 L 10.109375 -2.1875 C 9.367188 -1.09375 8.625 -0.390625 7.875 -0.078125 C 7.132812 0.222656 6.40625 0.375 5.6875 0.375 Z M 5.6875 0.375" stroke-linecap="round" />
</g>
<g transform="matrix(1.33 0 0 1.33 492.33 574.74)"  >
<path style="stroke: none; stroke-width: 1; stroke-dasharray: none; stroke-linecap: butt; stroke-dashoffset: 0; stroke-linejoin: miter; stroke-miterlimit: 4; fill: rgb(190,28,45); fill-rule: nonzero; opacity: 1;" vector-effect="non-scaling-stroke"  transform=" translate(-6.41, 5.95)" d="M 3.953125 0.375 C 2.953125 0.375 2.160156 0.078125 1.578125 -0.515625 C 1.003906 -1.109375 0.71875 -1.863281 0.71875 -2.78125 C 0.71875 -4.175781 1.363281 -5.234375 2.65625 -5.953125 C 3.957031 -6.679688 5.523438 -7.082031 7.359375 -7.15625 L 7.359375 -8.40625 C 7.359375 -9.84375 6.816406 -10.5625 5.734375 -10.5625 C 5.035156 -10.5625 4.460938 -10.34375 4.015625 -9.90625 C 4.210938 -9.675781 4.3125 -9.375 4.3125 -9 C 4.3125 -8.613281 4.175781 -8.269531 3.90625 -7.96875 C 3.644531 -7.664062 3.265625 -7.515625 2.765625 -7.515625 C 2.285156 -7.515625 1.910156 -7.671875 1.640625 -7.984375 C 1.367188 -8.296875 1.234375 -8.679688 1.234375 -9.140625 C 1.234375 -9.753906 1.453125 -10.300781 1.890625 -10.78125 C 2.335938 -11.257812 2.945312 -11.628906 3.71875 -11.890625 C 4.488281 -12.148438 5.335938 -12.28125 6.265625 -12.28125 C 9.191406 -12.28125 10.65625 -10.765625 10.65625 -7.734375 L 10.640625 -3.828125 C 10.640625 -3.066406 10.609375 -2.367188 10.546875 -1.734375 C 11.066406 -1.785156 11.582031 -1.8125 12.09375 -1.8125 L 12.09375 0 L 7.59375 0 C 7.5625 -0.207031 7.53125 -0.570312 7.5 -1.09375 L 7.46875 -1.09375 C 6.5 -0.113281 5.328125 0.375 3.953125 0.375 Z M 5.453125 -1.953125 C 6.160156 -1.953125 6.785156 -2.238281 7.328125 -2.8125 L 7.328125 -5.46875 C 6.390625 -5.375 5.613281 -5.132812 5 -4.75 C 4.394531 -4.375 4.09375 -3.863281 4.09375 -3.21875 C 4.09375 -2.78125 4.222656 -2.457031 4.484375 -2.25 C 4.742188 -2.050781 5.066406 -1.953125 5.453125 -1.953125 Z M 5.453125 -1.953125" stroke-linecap="round" />
</g>
<g transform="matrix(1.33 0 0 1.33 518.88 571.56)"  >
<path style="stroke: none; stroke-width: 1; stroke-dasharray: none; stroke-linecap: butt; stroke-dashoffset: 0; stroke-linejoin: miter; stroke-miterlimit: 4; fill: rgb(190,28,45); fill-rule: nonzero; opacity: 1;" vector-effect="non-scaling-stroke"  transform=" translate(-7.6, 8.33)" d="M 1.1875 -1.578125 C 1.613281 -1.585938 1.9375 -1.632812 2.15625 -1.71875 C 2.382812 -1.8125 2.5625 -2 2.6875 -2.28125 C 2.8125 -2.570312 2.875 -3.023438 2.875 -3.640625 L 2.875 -12.75 C 2.875 -13.644531 2.90625 -14.359375 2.96875 -14.890625 L 1.1875 -14.828125 L 1.1875 -16.65625 L 8.015625 -16.65625 L 8.015625 -15.09375 C 7.585938 -15.070312 7.257812 -15.015625 7.03125 -14.921875 C 6.8125 -14.835938 6.640625 -14.648438 6.515625 -14.359375 C 6.390625 -14.078125 6.328125 -13.628906 6.328125 -13.015625 L 6.328125 -3.90625 C 6.328125 -3.050781 6.296875 -2.351562 6.234375 -1.8125 L 9.421875 -1.8125 C 10.367188 -1.820312 11.101562 -2.15625 11.625 -2.8125 C 12.15625 -3.476562 12.421875 -4.445312 12.421875 -5.71875 L 14.015625 -5.71875 L 13.875 0 L 1.1875 0 Z M 1.1875 -1.578125" stroke-linecap="round" />
</g>
<g transform="matrix(1.33 0 0 1.33 536.51 574.74)"  >
<path style="stroke: none; stroke-width: 1; stroke-dasharray: none; stroke-linecap: butt; stroke-dashoffset: 0; stroke-linejoin: miter; stroke-miterlimit: 4; fill: rgb(190,28,45); fill-rule: nonzero; opacity: 1;" vector-effect="non-scaling-stroke"  transform=" translate(-6.45, 5.95)" d="M 6.609375 0.375 C 5.453125 0.375 4.429688 0.117188 3.546875 -0.390625 C 2.660156 -0.910156 1.96875 -1.644531 1.46875 -2.59375 C 0.976562 -3.539062 0.734375 -4.648438 0.734375 -5.921875 C 0.734375 -7.035156 0.984375 -8.078125 1.484375 -9.046875 C 1.984375 -10.023438 2.6875 -10.804688 3.59375 -11.390625 C 4.5 -11.984375 5.53125 -12.28125 6.6875 -12.28125 C 8.226562 -12.28125 9.507812 -11.828125 10.53125 -10.921875 C 11.550781 -10.015625 12.054688 -8.507812 12.046875 -6.40625 L 4.234375 -6.265625 C 4.234375 -4.867188 4.5 -3.765625 5.03125 -2.953125 C 5.5625 -2.140625 6.414062 -1.734375 7.59375 -1.734375 C 8.144531 -1.734375 8.738281 -1.875 9.375 -2.15625 C 10.007812 -2.445312 10.582031 -2.898438 11.09375 -3.515625 L 12.15625 -2.515625 C 10.8125 -0.585938 8.960938 0.375 6.609375 0.375 Z M 8.75 -7.921875 C 8.707031 -9.710938 8.0625 -10.609375 6.8125 -10.609375 C 6.125 -10.609375 5.578125 -10.363281 5.171875 -9.875 C 4.765625 -9.394531 4.5 -8.742188 4.375 -7.921875 Z M 8.75 -7.921875" stroke-linecap="round" />
</g>
<g transform="matrix(1.33 0 0 1.33 563.6 571.56)"  >
<path style="stroke: none; stroke-width: 1; stroke-dasharray: none; stroke-linecap: butt; stroke-dashoffset: 0; stroke-linejoin: miter; stroke-miterlimit: 4; fill: rgb(190,28,45); fill-rule: nonzero; opacity: 1;" vector-effect="non-scaling-stroke"  transform=" translate(-7.72, 8.33)" d="M 4.28125 -1.578125 C 4.707031 -1.585938 5.03125 -1.632812 5.25 -1.71875 C 5.476562 -1.8125 5.65625 -2 5.78125 -2.28125 C 5.90625 -2.570312 5.96875 -3.023438 5.96875 -3.640625 L 5.96875 -15.046875 L 4.875 -15.046875 C 3.9375 -15.023438 3.210938 -14.703125 2.703125 -14.078125 C 2.203125 -13.460938 1.953125 -12.53125 1.953125 -11.28125 L 0.375 -11.28125 L 0.5 -16.65625 L 14.921875 -16.65625 L 15.0625 -11.28125 L 13.5 -11.28125 C 13.5 -12.53125 13.238281 -13.476562 12.71875 -14.125 C 12.207031 -14.769531 11.488281 -15.082031 10.5625 -15.0625 L 9.421875 -15.0625 L 9.421875 -3.90625 C 9.421875 -2.84375 9.390625 -2.128906 9.328125 -1.765625 C 9.847656 -1.804688 10.484375 -1.828125 11.234375 -1.828125 L 11.234375 0 L 4.28125 0 Z M 4.28125 -1.578125" stroke-linecap="round" />
</g>
<g transform="matrix(1.33 0 0 1.33 581.99 574.49)"  >
<path style="stroke: none; stroke-width: 1; stroke-dasharray: none; stroke-linecap: butt; stroke-dashoffset: 0; stroke-linejoin: miter; stroke-miterlimit: 4; fill: rgb(190,28,45); fill-rule: nonzero; opacity: 1;" vector-effect="non-scaling-stroke"  transform=" translate(-6.05, 6.14)" d="M 0.96875 -1.546875 C 1.570312 -1.546875 1.957031 -1.710938 2.125 -2.046875 C 2.289062 -2.378906 2.375 -2.921875 2.375 -3.671875 L 2.375 -7.65625 C 2.375 -8.375 2.40625 -9.050781 2.46875 -9.6875 L 0.8125 -9.609375 L 0.8125 -11.421875 C 1.8125 -11.421875 2.617188 -11.488281 3.234375 -11.625 C 3.859375 -11.769531 4.269531 -11.941406 4.46875 -12.140625 L 5.640625 -12.140625 C 5.671875 -11.898438 5.691406 -11.585938 5.703125 -11.203125 C 5.722656 -10.828125 5.734375 -10.457031 5.734375 -10.09375 L 5.78125 -10.09375 C 6.863281 -11.550781 8.003906 -12.28125 9.203125 -12.28125 C 9.804688 -12.28125 10.300781 -12.113281 10.6875 -11.78125 C 11.082031 -11.445312 11.28125 -10.953125 11.28125 -10.296875 C 11.28125 -9.890625 11.144531 -9.507812 10.875 -9.15625 C 10.601562 -8.8125 10.195312 -8.640625 9.65625 -8.640625 C 9.257812 -8.640625 8.90625 -8.738281 8.59375 -8.9375 C 8.289062 -9.144531 8.113281 -9.503906 8.0625 -10.015625 C 7.625 -10.015625 7.171875 -9.753906 6.703125 -9.234375 C 6.234375 -8.722656 5.921875 -8.210938 5.765625 -7.703125 L 5.765625 -3.828125 C 5.765625 -3.066406 5.726562 -2.367188 5.65625 -1.734375 C 6.164062 -1.785156 6.679688 -1.8125 7.203125 -1.8125 L 7.203125 0 L 0.96875 0 Z M 0.96875 -1.546875" stroke-linecap="round" />
</g>
<g transform="matrix(1.33 0 0 1.33 597.76 574.74)"  >
<path style="stroke: none; stroke-width: 1; stroke-dasharray: none; stroke-linecap: butt; stroke-dashoffset: 0; stroke-linejoin: miter; stroke-miterlimit: 4; fill: rgb(190,28,45); fill-rule: nonzero; opacity: 1;" vector-effect="non-scaling-stroke"  transform=" translate(-6.45, 5.95)" d="M 6.609375 0.375 C 5.453125 0.375 4.429688 0.117188 3.546875 -0.390625 C 2.660156 -0.910156 1.96875 -1.644531 1.46875 -2.59375 C 0.976562 -3.539062 0.734375 -4.648438 0.734375 -5.921875 C 0.734375 -7.035156 0.984375 -8.078125 1.484375 -9.046875 C 1.984375 -10.023438 2.6875 -10.804688 3.59375 -11.390625 C 4.5 -11.984375 5.53125 -12.28125 6.6875 -12.28125 C 8.226562 -12.28125 9.507812 -11.828125 10.53125 -10.921875 C 11.550781 -10.015625 12.054688 -8.507812 12.046875 -6.40625 L 4.234375 -6.265625 C 4.234375 -4.867188 4.5 -3.765625 5.03125 -2.953125 C 5.5625 -2.140625 6.414062 -1.734375 7.59375 -1.734375 C 8.144531 -1.734375 8.738281 -1.875 9.375 -2.15625 C 10.007812 -2.445312 10.582031 -2.898438 11.09375 -3.515625 L 12.15625 -2.515625 C 10.8125 -0.585938 8.960938 0.375 6.609375 0.375 Z M 8.75 -7.921875 C 8.707031 -9.710938 8.0625 -10.609375 6.8125 -10.609375 C 6.125 -10.609375 5.578125 -10.363281 5.171875 -9.875 C 4.765625 -9.394531 4.5 -8.742188 4.375 -7.921875 Z M 8.75 -7.921875" stroke-linecap="round" />
</g>
<g transform="matrix(1.33 0 0 1.33 626.01 571.53)"  >
<path style="stroke: none; stroke-width: 1; stroke-dasharray: none; stroke-linecap: butt; stroke-dashoffset: 0; stroke-linejoin: miter; stroke-miterlimit: 4; fill: rgb(190,28,45); fill-rule: nonzero; opacity: 1;" vector-effect="non-scaling-stroke"  transform=" translate(-8.59, 8.35)" d="M 1.1875 -1.578125 C 1.613281 -1.585938 1.9375 -1.632812 2.15625 -1.71875 C 2.382812 -1.8125 2.5625 -2 2.6875 -2.28125 C 2.8125 -2.570312 2.875 -3.023438 2.875 -3.640625 L 2.875 -12.75 C 2.875 -13.644531 2.90625 -14.359375 2.96875 -14.890625 L 1.1875 -14.828125 L 1.1875 -16.65625 L 7.953125 -16.703125 C 10.117188 -16.722656 11.789062 -16.34375 12.96875 -15.5625 C 14.15625 -14.78125 14.75 -13.519531 14.75 -11.78125 C 14.75 -10.6875 14.394531 -9.710938 13.6875 -8.859375 C 12.988281 -8.015625 11.945312 -7.394531 10.5625 -7 L 10.5625 -6.96875 C 10.851562 -6.863281 11.144531 -6.671875 11.4375 -6.390625 C 11.738281 -6.109375 11.992188 -5.800781 12.203125 -5.46875 L 13.328125 -3.8125 C 13.867188 -2.96875 14.316406 -2.382812 14.671875 -2.0625 C 15.023438 -1.75 15.460938 -1.585938 15.984375 -1.578125 L 15.984375 0 L 12.0625 0 C 11.789062 -0.1875 11.519531 -0.457031 11.25 -0.8125 C 10.976562 -1.175781 10.671875 -1.648438 10.328125 -2.234375 L 8.5625 -5.09375 C 8.164062 -5.726562 7.832031 -6.1875 7.5625 -6.46875 L 6.328125 -6.46875 L 6.328125 -3.921875 C 6.328125 -3.015625 6.296875 -2.296875 6.234375 -1.765625 C 6.742188 -1.804688 7.414062 -1.828125 8.25 -1.828125 L 8.25 0 L 1.1875 0 Z M 7.46875 -8.1875 C 8.769531 -8.1875 9.707031 -8.472656 10.28125 -9.046875 C 10.863281 -9.628906 11.15625 -10.539062 11.15625 -11.78125 C 11.15625 -13.09375 10.816406 -13.960938 10.140625 -14.390625 C 9.472656 -14.828125 8.734375 -15.046875 7.921875 -15.046875 C 7.367188 -15.046875 6.960938 -14.925781 6.703125 -14.6875 C 6.453125 -14.445312 6.328125 -13.9375 6.328125 -13.15625 L 6.328125 -8.28125 C 6.804688 -8.21875 7.1875 -8.1875 7.46875 -8.1875 Z M 7.46875 -8.1875" stroke-linecap="round" />
</g>
<g transform="matrix(1.33 0 0 1.33 645.3 574.74)"  >
<path style="stroke: none; stroke-width: 1; stroke-dasharray: none; stroke-linecap: butt; stroke-dashoffset: 0; stroke-linejoin: miter; stroke-miterlimit: 4; fill: rgb(190,28,45); fill-rule: nonzero; opacity: 1;" vector-effect="non-scaling-stroke"  transform=" translate(-6.73, 5.95)" d="M 6.8125 0.375 C 5.644531 0.375 4.601562 0.128906 3.6875 -0.359375 C 2.769531 -0.847656 2.046875 -1.550781 1.515625 -2.46875 C 0.992188 -3.394531 0.734375 -4.46875 0.734375 -5.6875 C 0.734375 -6.96875 1.003906 -8.109375 1.546875 -9.109375 C 2.085938 -10.109375 2.8125 -10.882812 3.71875 -11.4375 C 4.632812 -12 5.640625 -12.28125 6.734375 -12.28125 C 7.878906 -12.28125 8.898438 -12.03125 9.796875 -11.53125 C 10.703125 -11.039062 11.414062 -10.332031 11.9375 -9.40625 C 12.46875 -8.476562 12.734375 -7.394531 12.734375 -6.15625 C 12.734375 -4.84375 12.484375 -3.691406 11.984375 -2.703125 C 11.484375 -1.722656 10.785156 -0.960938 9.890625 -0.421875 C 8.992188 0.109375 7.96875 0.375 6.8125 0.375 Z M 6.859375 -1.3125 C 7.722656 -1.3125 8.328125 -1.710938 8.671875 -2.515625 C 9.023438 -3.328125 9.203125 -4.34375 9.203125 -5.5625 C 9.203125 -6.925781 9.003906 -8.109375 8.609375 -9.109375 C 8.210938 -10.109375 7.585938 -10.609375 6.734375 -10.609375 C 5.859375 -10.609375 5.222656 -10.195312 4.828125 -9.375 C 4.429688 -8.550781 4.234375 -7.535156 4.234375 -6.328125 C 4.234375 -4.953125 4.445312 -3.769531 4.875 -2.78125 C 5.300781 -1.800781 5.960938 -1.3125 6.859375 -1.3125 Z M 6.859375 -1.3125" stroke-linecap="round" />
</g>
<g transform="matrix(1.33 0 0 1.33 662.08 574.74)"  >
<path style="stroke: none; stroke-width: 1; stroke-dasharray: none; stroke-linecap: butt; stroke-dashoffset: 0; stroke-linejoin: miter; stroke-miterlimit: 4; fill: rgb(190,28,45); fill-rule: nonzero; opacity: 1;" vector-effect="non-scaling-stroke"  transform=" translate(-5.85, 5.95)" d="M 6.453125 0.375 C 5.765625 0.375 5.09375 0.285156 4.4375 0.109375 C 3.789062 -0.0546875 3.285156 -0.273438 2.921875 -0.546875 L 2.90625 -0.546875 L 2.96875 0.171875 L 1.171875 0.171875 L 1.078125 -3.921875 L 2.625 -3.921875 C 2.695312 -3.191406 3.078125 -2.578125 3.765625 -2.078125 C 4.460938 -1.578125 5.3125 -1.328125 6.3125 -1.328125 C 6.75 -1.328125 7.128906 -1.429688 7.453125 -1.640625 C 7.785156 -1.847656 7.953125 -2.140625 7.953125 -2.515625 C 7.953125 -2.804688 7.847656 -3.046875 7.640625 -3.234375 C 7.429688 -3.421875 7.179688 -3.578125 6.890625 -3.703125 C 6.609375 -3.835938 6.039062 -4.070312 5.1875 -4.40625 C 4.175781 -4.800781 3.414062 -5.125 2.90625 -5.375 C 2.394531 -5.632812 1.9375 -6.015625 1.53125 -6.515625 C 1.125 -7.015625 0.921875 -7.660156 0.921875 -8.453125 C 0.921875 -9.097656 1.082031 -9.707031 1.40625 -10.28125 C 1.738281 -10.863281 2.238281 -11.34375 2.90625 -11.71875 C 3.582031 -12.09375 4.414062 -12.28125 5.40625 -12.28125 C 5.863281 -12.28125 6.359375 -12.207031 6.890625 -12.0625 C 7.429688 -11.914062 7.882812 -11.71875 8.25 -11.46875 L 8.28125 -11.46875 L 8.25 -12.15625 L 10.0625 -12.15625 L 10.0625 -7.953125 L 8.515625 -7.953125 C 8.378906 -8.773438 8.015625 -9.421875 7.421875 -9.890625 C 6.835938 -10.367188 6.117188 -10.609375 5.265625 -10.609375 C 4.816406 -10.609375 4.441406 -10.503906 4.140625 -10.296875 C 3.835938 -10.097656 3.6875 -9.785156 3.6875 -9.359375 C 3.6875 -8.910156 3.859375 -8.578125 4.203125 -8.359375 C 4.554688 -8.148438 5.144531 -7.910156 5.96875 -7.640625 C 6.0625 -7.617188 6.269531 -7.554688 6.59375 -7.453125 C 7.9375 -6.972656 8.96875 -6.414062 9.6875 -5.78125 C 10.414062 -5.144531 10.78125 -4.3125 10.78125 -3.28125 C 10.78125 -2.488281 10.578125 -1.816406 10.171875 -1.265625 C 9.765625 -0.722656 9.234375 -0.3125 8.578125 -0.03125 C 7.921875 0.238281 7.210938 0.375 6.453125 0.375 Z M 6.453125 0.375" stroke-linecap="round" />
</g>
<g transform="matrix(1.33 0 0 1.33 678.26 574.74)"  >
<path style="stroke: none; stroke-width: 1; stroke-dasharray: none; stroke-linecap: butt; stroke-dashoffset: 0; stroke-linejoin: miter; stroke-miterlimit: 4; fill: rgb(190,28,45); fill-rule: nonzero; opacity: 1;" vector-effect="non-scaling-stroke"  transform=" translate(-6.45, 5.95)" d="M 6.609375 0.375 C 5.453125 0.375 4.429688 0.117188 3.546875 -0.390625 C 2.660156 -0.910156 1.96875 -1.644531 1.46875 -2.59375 C 0.976562 -3.539062 0.734375 -4.648438 0.734375 -5.921875 C 0.734375 -7.035156 0.984375 -8.078125 1.484375 -9.046875 C 1.984375 -10.023438 2.6875 -10.804688 3.59375 -11.390625 C 4.5 -11.984375 5.53125 -12.28125 6.6875 -12.28125 C 8.226562 -12.28125 9.507812 -11.828125 10.53125 -10.921875 C 11.550781 -10.015625 12.054688 -8.507812 12.046875 -6.40625 L 4.234375 -6.265625 C 4.234375 -4.867188 4.5 -3.765625 5.03125 -2.953125 C 5.5625 -2.140625 6.414062 -1.734375 7.59375 -1.734375 C 8.144531 -1.734375 8.738281 -1.875 9.375 -2.15625 C 10.007812 -2.445312 10.582031 -2.898438 11.09375 -3.515625 L 12.15625 -2.515625 C 10.8125 -0.585938 8.960938 0.375 6.609375 0.375 Z M 8.75 -7.921875 C 8.707031 -9.710938 8.0625 -10.609375 6.8125 -10.609375 C 6.125 -10.609375 5.578125 -10.363281 5.171875 -9.875 C 4.765625 -9.394531 4.5 -8.742188 4.375 -7.921875 Z M 8.75 -7.921875" stroke-linecap="round" />
</g>
<g transform="matrix(1.33 0 0 1.33 428.88 611.03)"  >
<path style="stroke: none; stroke-width: 1; stroke-dasharray: none; stroke-linecap: butt; stroke-dashoffset: 0; stroke-linejoin: miter; stroke-miterlimit: 4; fill: rgb(190,28,45); fill-rule: nonzero; opacity: 1;" vector-effect="non-scaling-stroke"  transform=" translate(-3.07, 3.17)" d="M 5.3125 -1.859375 C 5.3125 -1.210938 5.101562 -0.738281 4.6875 -0.4375 C 4.269531 -0.144531 3.675781 0 2.90625 0 L 0.828125 0 L 0.828125 -6.34375 L 2.71875 -6.34375 C 3.488281 -6.34375 4.046875 -6.234375 4.390625 -6.015625 C 4.734375 -5.796875 4.90625 -5.425781 4.90625 -4.90625 C 4.90625 -4.476562 4.8125 -4.148438 4.625 -3.921875 C 4.4375 -3.703125 4.203125 -3.550781 3.921875 -3.46875 C 4.335938 -3.40625 4.671875 -3.25 4.921875 -3 C 5.179688 -2.75 5.3125 -2.367188 5.3125 -1.859375 Z M 4.046875 -4.71875 C 4.046875 -5.039062 3.941406 -5.265625 3.734375 -5.390625 C 3.535156 -5.523438 3.175781 -5.59375 2.65625 -5.59375 L 1.6875 -5.59375 L 1.6875 -3.703125 L 2.625 -3.703125 C 3.125 -3.703125 3.484375 -3.785156 3.703125 -3.953125 C 3.929688 -4.117188 4.046875 -4.375 4.046875 -4.71875 Z M 4.421875 -1.890625 C 4.421875 -2.160156 4.367188 -2.367188 4.265625 -2.515625 C 4.171875 -2.671875 4.015625 -2.78125 3.796875 -2.84375 C 3.578125 -2.914062 3.234375 -2.953125 2.765625 -2.953125 L 1.6875 -2.953125 L 1.6875 -0.765625 L 2.546875 -0.765625 C 3.085938 -0.765625 3.476562 -0.800781 3.71875 -0.875 C 3.957031 -0.945312 4.132812 -1.0625 4.25 -1.21875 C 4.363281 -1.382812 4.421875 -1.609375 4.421875 -1.890625 Z M 4.421875 -1.890625" stroke-linecap="round" />
</g>
<g transform="matrix(1.33 0 0 1.33 447.11 611.03)"  >
<path style="stroke: none; stroke-width: 1; stroke-dasharray: none; stroke-linecap: butt; stroke-dashoffset: 0; stroke-linejoin: miter; stroke-miterlimit: 4; fill: rgb(190,28,45); fill-rule: nonzero; opacity: 1;" vector-effect="non-scaling-stroke"  transform=" translate(-3.39, 3.17)" d="M 5.140625 0 L 4.703125 -0.515625 C 4.390625 -0.265625 4.085938 -0.09375 3.796875 0 C 3.503906 0.09375 3.191406 0.140625 2.859375 0.140625 C 2.171875 0.140625 1.625 -0.0195312 1.21875 -0.34375 C 0.820312 -0.675781 0.625 -1.113281 0.625 -1.65625 C 0.625 -1.925781 0.664062 -2.160156 0.75 -2.359375 C 0.84375 -2.554688 0.976562 -2.742188 1.15625 -2.921875 C 1.34375 -3.097656 1.660156 -3.316406 2.109375 -3.578125 C 1.898438 -3.816406 1.722656 -4.054688 1.578125 -4.296875 C 1.429688 -4.546875 1.359375 -4.789062 1.359375 -5.03125 C 1.359375 -6 1.925781 -6.484375 3.0625 -6.484375 C 3.5625 -6.484375 3.945312 -6.363281 4.21875 -6.125 C 4.488281 -5.894531 4.625 -5.601562 4.625 -5.25 C 4.625 -4.90625 4.515625 -4.585938 4.296875 -4.296875 C 4.078125 -4.015625 3.726562 -3.726562 3.25 -3.4375 L 4.765625 -1.640625 C 5.046875 -1.972656 5.25 -2.390625 5.375 -2.890625 L 6.078125 -2.703125 C 5.890625 -1.992188 5.617188 -1.445312 5.265625 -1.0625 L 6.15625 0 Z M 3.828125 -5.234375 C 3.828125 -5.421875 3.757812 -5.570312 3.625 -5.6875 C 3.5 -5.8125 3.300781 -5.875 3.03125 -5.875 C 2.75 -5.875 2.535156 -5.800781 2.390625 -5.65625 C 2.242188 -5.519531 2.171875 -5.328125 2.171875 -5.078125 C 2.171875 -4.910156 2.234375 -4.734375 2.359375 -4.546875 C 2.484375 -4.367188 2.625 -4.179688 2.78125 -3.984375 C 3.113281 -4.160156 3.367188 -4.359375 3.546875 -4.578125 C 3.734375 -4.796875 3.828125 -5.015625 3.828125 -5.234375 Z M 2.578125 -3.03125 C 2.253906 -2.820312 2.019531 -2.648438 1.875 -2.515625 C 1.726562 -2.390625 1.625 -2.257812 1.5625 -2.125 C 1.507812 -2 1.484375 -1.832031 1.484375 -1.625 C 1.484375 -1.3125 1.613281 -1.054688 1.875 -0.859375 C 2.132812 -0.660156 2.472656 -0.5625 2.890625 -0.5625 C 3.242188 -0.5625 3.53125 -0.613281 3.75 -0.71875 C 3.96875 -0.832031 4.132812 -0.941406 4.25 -1.046875 Z M 2.578125 -3.03125" stroke-linecap="round" />
</g>
<g transform="matrix(1.33 0 0 1.33 465.41 611.03)"  >
<path style="stroke: none; stroke-width: 1; stroke-dasharray: none; stroke-linecap: butt; stroke-dashoffset: 0; stroke-linejoin: miter; stroke-miterlimit: 4; fill: rgb(190,28,45); fill-rule: nonzero; opacity: 1;" vector-effect="non-scaling-stroke"  transform=" translate(-3.07, 3.17)" d="M 5.3125 -1.859375 C 5.3125 -1.210938 5.101562 -0.738281 4.6875 -0.4375 C 4.269531 -0.144531 3.675781 0 2.90625 0 L 0.828125 0 L 0.828125 -6.34375 L 2.71875 -6.34375 C 3.488281 -6.34375 4.046875 -6.234375 4.390625 -6.015625 C 4.734375 -5.796875 4.90625 -5.425781 4.90625 -4.90625 C 4.90625 -4.476562 4.8125 -4.148438 4.625 -3.921875 C 4.4375 -3.703125 4.203125 -3.550781 3.921875 -3.46875 C 4.335938 -3.40625 4.671875 -3.25 4.921875 -3 C 5.179688 -2.75 5.3125 -2.367188 5.3125 -1.859375 Z M 4.046875 -4.71875 C 4.046875 -5.039062 3.941406 -5.265625 3.734375 -5.390625 C 3.535156 -5.523438 3.175781 -5.59375 2.65625 -5.59375 L 1.6875 -5.59375 L 1.6875 -3.703125 L 2.625 -3.703125 C 3.125 -3.703125 3.484375 -3.785156 3.703125 -3.953125 C 3.929688 -4.117188 4.046875 -4.375 4.046875 -4.71875 Z M 4.421875 -1.890625 C 4.421875 -2.160156 4.367188 -2.367188 4.265625 -2.515625 C 4.171875 -2.671875 4.015625 -2.78125 3.796875 -2.84375 C 3.578125 -2.914062 3.234375 -2.953125 2.765625 -2.953125 L 1.6875 -2.953125 L 1.6875 -0.765625 L 2.546875 -0.765625 C 3.085938 -0.765625 3.476562 -0.800781 3.71875 -0.875 C 3.957031 -0.945312 4.132812 -1.0625 4.25 -1.21875 C 4.363281 -1.382812 4.421875 -1.609375 4.421875 -1.890625 Z M 4.421875 -1.890625" stroke-linecap="round" />
</g>
<g transform="matrix(1.33 0 0 1.33 496.47 611.03)"  >
<path style="stroke: none; stroke-width: 1; stroke-dasharray: none; stroke-linecap: butt; stroke-dashoffset: 0; stroke-linejoin: miter; stroke-miterlimit: 4; fill: rgb(190,28,45); fill-rule: nonzero; opacity: 1;" vector-effect="non-scaling-stroke"  transform=" translate(-2.95, 3.17)" d="M 0.234375 0 L 2.40625 -6.34375 L 3.5 -6.34375 L 5.671875 0 L 4.78125 0 L 4.234375 -1.65625 L 1.640625 -1.65625 L 1.09375 0 Z M 1.890625 -2.421875 L 3.96875 -2.421875 L 2.9375 -5.515625 Z M 1.890625 -2.421875" stroke-linecap="round" />
</g>
<g transform="matrix(1.33 0 0 1.33 514.66 611.03)"  >
<path style="stroke: none; stroke-width: 1; stroke-dasharray: none; stroke-linecap: butt; stroke-dashoffset: 0; stroke-linejoin: miter; stroke-miterlimit: 4; fill: rgb(190,28,45); fill-rule: nonzero; opacity: 1;" vector-effect="non-scaling-stroke"  transform=" translate(-3.17, 3.17)" d="M 4.515625 0 L 1.65625 -5.453125 L 1.65625 0 L 0.828125 0 L 0.828125 -6.34375 L 2.078125 -6.34375 L 4.703125 -1.359375 L 4.703125 -6.34375 L 5.515625 -6.34375 L 5.515625 0 Z M 4.515625 0" stroke-linecap="round" />
</g>
<g transform="matrix(1.33 0 0 1.33 533.04 611.03)"  >
<path style="stroke: none; stroke-width: 1; stroke-dasharray: none; stroke-linecap: butt; stroke-dashoffset: 0; stroke-linejoin: miter; stroke-miterlimit: 4; fill: rgb(190,28,45); fill-rule: nonzero; opacity: 1;" vector-effect="non-scaling-stroke"  transform=" translate(-3.09, 3.17)" d="M 5.390625 -3.171875 C 5.390625 -2.398438 5.285156 -1.78125 5.078125 -1.3125 C 4.878906 -0.851562 4.570312 -0.519531 4.15625 -0.3125 C 3.738281 -0.101562 3.148438 0 2.390625 0 L 0.78125 0 L 0.78125 -6.34375 L 2.375 -6.34375 C 3.113281 -6.34375 3.695312 -6.234375 4.125 -6.015625 C 4.550781 -5.804688 4.867188 -5.472656 5.078125 -5.015625 C 5.285156 -4.554688 5.390625 -3.941406 5.390625 -3.171875 Z M 4.484375 -3.1875 C 4.484375 -3.789062 4.414062 -4.257812 4.28125 -4.59375 C 4.144531 -4.9375 3.921875 -5.1875 3.609375 -5.34375 C 3.304688 -5.5 2.878906 -5.578125 2.328125 -5.578125 L 1.625 -5.578125 L 1.625 -0.765625 L 2.328125 -0.765625 C 2.878906 -0.765625 3.304688 -0.84375 3.609375 -1 C 3.921875 -1.15625 4.144531 -1.398438 4.28125 -1.734375 C 4.414062 -2.078125 4.484375 -2.5625 4.484375 -3.1875 Z M 4.484375 -3.1875" stroke-linecap="round" />
</g>
<g transform="matrix(1.33 0 0 1.33 563.95 611.03)"  >
<path style="stroke: none; stroke-width: 1; stroke-dasharray: none; stroke-linecap: butt; stroke-dashoffset: 0; stroke-linejoin: miter; stroke-miterlimit: 4; fill: rgb(190,28,45); fill-rule: nonzero; opacity: 1;" vector-effect="non-scaling-stroke"  transform=" translate(-2.77, 3.17)" d="M 0.828125 0 L 0.828125 -6.34375 L 4.71875 -6.34375 L 4.71875 -5.578125 L 1.6875 -5.578125 L 1.6875 -3.734375 L 4.28125 -3.734375 L 4.28125 -2.953125 L 1.6875 -2.953125 L 1.6875 -0.765625 L 4.71875 -0.765625 L 4.71875 0 Z M 0.828125 0" stroke-linecap="round" />
</g>
<g transform="matrix(1.33 0 0 1.33 581.07 611.03)"  >
<path style="stroke: none; stroke-width: 1; stroke-dasharray: none; stroke-linecap: butt; stroke-dashoffset: 0; stroke-linejoin: miter; stroke-miterlimit: 4; fill: rgb(190,28,45); fill-rule: nonzero; opacity: 1;" vector-effect="non-scaling-stroke"  transform=" translate(-2.81, 3.17)" d="M 3.359375 0 L 2.21875 0 L 0.234375 -6.34375 L 1.125 -6.34375 L 2.8125 -0.8125 L 4.515625 -6.34375 L 5.390625 -6.34375 Z M 3.359375 0" stroke-linecap="round" />
</g>
<g transform="matrix(1.33 0 0 1.33 598.54 611.03)"  >
<path style="stroke: none; stroke-width: 1; stroke-dasharray: none; stroke-linecap: butt; stroke-dashoffset: 0; stroke-linejoin: miter; stroke-miterlimit: 4; fill: rgb(190,28,45); fill-rule: nonzero; opacity: 1;" vector-effect="non-scaling-stroke"  transform=" translate(-2.77, 3.17)" d="M 0.828125 0 L 0.828125 -6.34375 L 4.71875 -6.34375 L 4.71875 -5.578125 L 1.6875 -5.578125 L 1.6875 -3.734375 L 4.28125 -3.734375 L 4.28125 -2.953125 L 1.6875 -2.953125 L 1.6875 -0.765625 L 4.71875 -0.765625 L 4.71875 0 Z M 0.828125 0" stroke-linecap="round" />
</g>
<g transform="matrix(1.33 0 0 1.33 616.14 611.03)"  >
<path style="stroke: none; stroke-width: 1; stroke-dasharray: none; stroke-linecap: butt; stroke-dashoffset: 0; stroke-linejoin: miter; stroke-miterlimit: 4; fill: rgb(190,28,45); fill-rule: nonzero; opacity: 1;" vector-effect="non-scaling-stroke"  transform=" translate(-3.17, 3.17)" d="M 4.515625 0 L 1.65625 -5.453125 L 1.65625 0 L 0.828125 0 L 0.828125 -6.34375 L 2.078125 -6.34375 L 4.703125 -1.359375 L 4.703125 -6.34375 L 5.515625 -6.34375 L 5.515625 0 Z M 4.515625 0" stroke-linecap="round" />
</g>
<g transform="matrix(1.33 0 0 1.33 634.02 611.03)"  >
<path style="stroke: none; stroke-width: 1; stroke-dasharray: none; stroke-linecap: butt; stroke-dashoffset: 0; stroke-linejoin: miter; stroke-miterlimit: 4; fill: rgb(190,28,45); fill-rule: nonzero; opacity: 1;" vector-effect="non-scaling-stroke"  transform=" translate(-2.71, 3.17)" d="M 3.140625 -5.578125 L 3.140625 0 L 2.296875 0 L 2.296875 -5.578125 L 0.1875 -5.578125 L 0.1875 -6.34375 L 5.234375 -6.34375 L 5.234375 -5.578125 Z M 3.140625 -5.578125" stroke-linecap="round" />
</g>
<g transform="matrix(1.33 0 0 1.33 651.36 611.03)"  >
<path style="stroke: none; stroke-width: 1; stroke-dasharray: none; stroke-linecap: butt; stroke-dashoffset: 0; stroke-linejoin: miter; stroke-miterlimit: 4; fill: rgb(190,28,45); fill-rule: nonzero; opacity: 1;" vector-effect="non-scaling-stroke"  transform=" translate(-2.77, 3.17)" d="M 5.09375 -1.734375 C 5.09375 -1.140625 4.894531 -0.675781 4.5 -0.34375 C 4.113281 -0.0195312 3.550781 0.140625 2.8125 0.140625 C 2.238281 0.140625 1.757812 0.0390625 1.375 -0.15625 C 0.988281 -0.363281 0.675781 -0.679688 0.4375 -1.109375 L 1.125 -1.5625 C 1.488281 -0.9375 2.039062 -0.625 2.78125 -0.625 C 3.238281 -0.625 3.59375 -0.71875 3.84375 -0.90625 C 4.101562 -1.09375 4.234375 -1.347656 4.234375 -1.671875 C 4.234375 -1.859375 4.191406 -2.015625 4.109375 -2.140625 C 4.023438 -2.273438 3.914062 -2.382812 3.78125 -2.46875 C 3.644531 -2.550781 3.488281 -2.617188 3.3125 -2.671875 C 3.144531 -2.734375 2.96875 -2.785156 2.78125 -2.828125 C 2.46875 -2.910156 2.175781 -2.988281 1.90625 -3.0625 C 1.632812 -3.144531 1.398438 -3.25 1.203125 -3.375 C 1.003906 -3.507812 0.847656 -3.675781 0.734375 -3.875 C 0.628906 -4.070312 0.578125 -4.332031 0.578125 -4.65625 C 0.578125 -5.21875 0.753906 -5.660156 1.109375 -5.984375 C 1.472656 -6.316406 2.015625 -6.484375 2.734375 -6.484375 C 3.316406 -6.484375 3.773438 -6.375 4.109375 -6.15625 C 4.453125 -5.945312 4.722656 -5.675781 4.921875 -5.34375 L 4.25 -4.859375 C 4.082031 -5.140625 3.878906 -5.351562 3.640625 -5.5 C 3.410156 -5.65625 3.109375 -5.734375 2.734375 -5.734375 C 2.328125 -5.734375 2.007812 -5.640625 1.78125 -5.453125 C 1.550781 -5.273438 1.4375 -5.03125 1.4375 -4.71875 C 1.4375 -4.5625 1.46875 -4.425781 1.53125 -4.3125 C 1.601562 -4.207031 1.703125 -4.113281 1.828125 -4.03125 C 1.960938 -3.957031 2.125 -3.894531 2.3125 -3.84375 C 2.5 -3.789062 2.71875 -3.734375 2.96875 -3.671875 C 3.25 -3.597656 3.519531 -3.519531 3.78125 -3.4375 C 4.039062 -3.351562 4.269531 -3.238281 4.46875 -3.09375 C 4.664062 -2.957031 4.816406 -2.78125 4.921875 -2.5625 C 5.035156 -2.351562 5.09375 -2.078125 5.09375 -1.734375 Z M 5.09375 -1.734375" stroke-linecap="round" />
</g>
<g transform="matrix(1.33 0 0 1.33 470.05 499.68)"  >
<path style="stroke: none; stroke-width: 1; stroke-dasharray: none; stroke-linecap: butt; stroke-dashoffset: 0; stroke-linejoin: miter; stroke-miterlimit: 4; fill: rgb(190,28,45); fill-rule: nonzero; opacity: 1;" vector-effect="non-scaling-stroke"  transform=" translate(-135.08, -157.29)" d="M 153.507812 158.027344 C 146.894531 164.246094 132.785156 170.179688 125.582031 162.125 C 123.507812 159.808594 122.152344 157.042969 121.101562 154.136719 C 120.453125 152.347656 119.6875 150.597656 119.140625 148.773438 C 118.835938 147.757812 118.84375 144.09375 117.449219 145.324219 C 116.636719 146.042969 116.675781 149.90625 116.558594 150.996094 C 116.121094 155.03125 115.496094 160.195312 118.839844 163.238281 C 121.082031 165.285156 126.5 167.570312 129.496094 168.546875 C 133.753906 169.933594 140.019531 169.863281 144.152344 168.089844 C 146.636719 167.027344 156.128906 162.089844 153.507812 158.027344" stroke-linecap="round" />
</g>
<g transform="matrix(1.33 0 0 1.33 463.74 482.02)"  >
<path style="stroke: none; stroke-width: 1; stroke-dasharray: none; stroke-linecap: butt; stroke-dashoffset: 0; stroke-linejoin: miter; stroke-miterlimit: 4; fill: rgb(190,28,45); fill-rule: nonzero; opacity: 1;" vector-effect="non-scaling-stroke"  transform=" translate(-130.33, -144.05)" d="M 125.289062 158.046875 C 123.324219 153.535156 121.886719 147.417969 124.113281 142.757812 C 126.164062 138.46875 130.5 137.46875 134.613281 135.992188 C 134.957031 135.871094 140.765625 133.851562 140.605469 133.5 C 140.027344 132.257812 135.332031 130.980469 134.128906 130.625 C 128.210938 128.863281 122.261719 130.074219 120.210938 136.523438 C 119.757812 137.949219 119.960938 160.28125 125.289062 158.046875" stroke-linecap="round" />
</g>
<g transform="matrix(1.33 0 0 1.33 475.1 486.67)"  >
<path style="stroke: none; stroke-width: 1; stroke-dasharray: none; stroke-linecap: butt; stroke-dashoffset: 0; stroke-linejoin: miter; stroke-miterlimit: 4; fill: rgb(190,28,45); fill-rule: nonzero; opacity: 1;" vector-effect="non-scaling-stroke"  transform=" translate(-138.85, -147.53)" d="M 126.238281 155.824219 C 130.851562 157.925781 139.671875 161.449219 144.078125 157.375 C 147.589844 154.128906 146.445312 147.253906 144.496094 143.460938 C 143.753906 142.011719 139.472656 138.925781 139.261719 137.847656 C 139.0625 136.839844 141.234375 134.710938 141.992188 134.367188 C 144.355469 133.285156 147.339844 135.089844 149 136.757812 C 153.09375 140.867188 151.246094 146.929688 149.507812 151.726562 C 147.957031 156.003906 146.476562 159.722656 141.800781 160.660156 C 136.242188 161.777344 129.929688 160.378906 126.238281 155.824219" stroke-linecap="round" />
</g>
<g transform="matrix(1.33 0 0 1.33 477.87 493.53)"  >
<path style="stroke: none; stroke-width: 1; stroke-dasharray: none; stroke-linecap: butt; stroke-dashoffset: 0; stroke-linejoin: miter; stroke-miterlimit: 4; fill: rgb(190,28,45); fill-rule: nonzero; opacity: 1;" vector-effect="non-scaling-stroke"  transform=" translate(-140.94, -152.67)" d="M 127.691406 159.507812 C 143.699219 166.429688 153.679688 157.101562 152.472656 140.644531 C 160.152344 149.292969 152.566406 158.410156 144.230469 162.535156 C 140.640625 164.3125 135.433594 165.101562 131.332031 164.503906 C 128.371094 164.078125 123.863281 158.082031 127.691406 159.507812" stroke-linecap="round" />
</g>
<g transform="matrix(1.33 0 0 1.33 461.87 488.92)"  >
<path style="stroke: none; stroke-width: 1; stroke-dasharray: none; stroke-linecap: butt; stroke-dashoffset: 0; stroke-linejoin: miter; stroke-miterlimit: 4; fill: rgb(190,28,45); fill-rule: nonzero; opacity: 1;" vector-effect="non-scaling-stroke"  transform=" translate(-128.92, -149.21)" d="M 133.699219 156.441406 C 128.671875 153.355469 122.988281 147.25 127.859375 141.675781 C 127.984375 141.535156 127.878906 141.316406 127.691406 141.320312 C 123.335938 141.390625 123.597656 149.789062 124.78125 152.636719 C 125.800781 155.09375 130.617188 158.015625 133.664062 156.828125 C 133.828125 156.761719 133.847656 156.535156 133.699219 156.441406" stroke-linecap="round" />
</g>
<g transform="matrix(1.33 0 0 1.33 470.63 480.87)"  >
<path style="stroke: none; stroke-width: 1; stroke-dasharray: none; stroke-linecap: butt; stroke-dashoffset: 0; stroke-linejoin: miter; stroke-miterlimit: 4; fill: rgb(190,28,45); fill-rule: nonzero; opacity: 1;" vector-effect="non-scaling-stroke"  transform=" translate(-135.49, -143.17)" d="M 129.265625 147.546875 C 130.578125 146.378906 132.367188 145.652344 133.96875 145.03125 C 135.347656 144.496094 136.808594 144.066406 138.292969 143.992188 C 140.402344 143.886719 142.070312 146.128906 142.964844 147.683594 C 143.160156 148.023438 143.683594 147.859375 143.648438 147.46875 C 143.105469 141.332031 138.242188 135.078125 131.4375 138.914062 C 129.226562 140.160156 128.085938 142.355469 127.574219 144.769531 C 127.382812 145.664062 127.273438 146.640625 127.351562 147.554688 C 127.46875 148.875 127.984375 148.867188 128.851562 147.949219 C 128.980469 147.8125 129.121094 147.675781 129.265625 147.546875" stroke-linecap="round" />
</g>
<g transform="matrix(1.33 0 0 1.33 471.74 493.39)"  >
<path style="stroke: none; stroke-width: 1; stroke-dasharray: none; stroke-linecap: butt; stroke-dashoffset: 0; stroke-linejoin: miter; stroke-miterlimit: 4; fill: rgb(190,28,45); fill-rule: nonzero; opacity: 1;" vector-effect="non-scaling-stroke"  transform=" translate(-136.32, -152.55)" d="M 130.097656 150.539062 C 130.832031 151.054688 131.789062 151.398438 132.609375 151.757812 C 133.429688 152.113281 134.257812 152.441406 135.101562 152.734375 C 136.59375 153.257812 138.257812 153.796875 139.863281 153.683594 C 141.148438 153.59375 141.929688 152.824219 141.769531 151.492188 C 141.722656 151.089844 141.613281 150.699219 141.484375 150.316406 C 141.402344 150.082031 141.308594 149.847656 141.210938 149.617188 C 141.160156 149.503906 140.953125 148.863281 140.84375 148.835938 C 144.816406 149.765625 143.828125 154.246094 140.738281 155.722656 C 138.835938 156.636719 136.390625 156.257812 134.472656 155.597656 C 132.449219 154.902344 130.242188 153.59375 129.425781 151.5 C 129.339844 151.277344 129.269531 151.046875 129.21875 150.8125 C 129.191406 150.695312 129.167969 150.566406 129.222656 150.457031 C 129.3125 150.269531 129.582031 150.238281 129.773438 150.324219 C 129.890625 150.375 129.992188 150.460938 130.09375 150.535156 C 130.097656 150.535156 130.097656 150.535156 130.097656 150.539062" stroke-linecap="round" />
</g>
<g transform="matrix(1.33 0 0 1.33 470.66 488.39)"  >
<path style="stroke: none; stroke-width: 1; stroke-dasharray: none; stroke-linecap: butt; stroke-dashoffset: 0; stroke-linejoin: miter; stroke-miterlimit: 4; fill: rgb(190,28,45); fill-rule: nonzero; opacity: 1;" vector-effect="non-scaling-stroke"  transform=" translate(-135.5, -148.8)" d="M 135.5 151.503906 C 134.882812 149.207031 135.054688 145.746094 138.3125 147.484375 C 133.257812 143.304688 130.113281 149.78125 135.5 151.503906" stroke-linecap="round" />
</g>
<g transform="matrix(1.33 0 0 1.33 474.65 490.56)"  >
<path style="stroke: none; stroke-width: 1; stroke-dasharray: none; stroke-linecap: butt; stroke-dashoffset: 0; stroke-linejoin: miter; stroke-miterlimit: 4; fill: rgb(190,28,45); fill-rule: nonzero; opacity: 1;" vector-effect="non-scaling-stroke"  transform=" translate(-138.49, -150.43)" d="M 137.492188 151.503906 C 138.558594 150.582031 138.792969 149.355469 137.238281 148.636719 C 141.210938 148.214844 139.832031 154.296875 137.492188 151.503906" stroke-linecap="round" />
</g>
<g transform="matrix(1.33 0 0 1.33 476.89 503.79)"  >
<path style="stroke: none; stroke-width: 1; stroke-dasharray: none; stroke-linecap: butt; stroke-dashoffset: 0; stroke-linejoin: miter; stroke-miterlimit: 4; fill: rgb(190,28,45); fill-rule: nonzero; opacity: 1;" vector-effect="non-scaling-stroke"  transform=" translate(-140.22, -160.38)" d="M 156.773438 146.996094 C 155.710938 154.039062 156.253906 166.242188 148.859375 169.433594 C 141.824219 172.472656 132.9375 171.828125 126.21875 168.53125 C 125.207031 168.039062 120.167969 165.957031 118.003906 165.066406 C 117.585938 164.894531 117.199219 165.363281 117.4375 165.746094 C 118.335938 167.179688 121.117188 169.84375 129.734375 172.601562 C 135.226562 174.359375 141.121094 173.859375 146.71875 172.777344 C 152.875 171.589844 156.949219 170.0625 160.464844 164.78125 C 165.550781 157.132812 162.589844 153.238281 156.773438 146.996094" stroke-linecap="round" />
</g>
<g transform="matrix(1.33 0 0 1.33 500.27 477.43)"  >
<path style="stroke: none; stroke-width: 1; stroke-dasharray: none; stroke-linecap: butt; stroke-dashoffset: 0; stroke-linejoin: miter; stroke-miterlimit: 4; fill: rgb(190,28,45); fill-rule: nonzero; opacity: 1;" vector-effect="non-scaling-stroke"  transform=" translate(-157.73, -140.6)" d="M 162.527344 152.015625 C 164.65625 147.238281 170.140625 141.382812 165.289062 135.742188 C 163.117188 133.214844 148.265625 125.234375 148.21875 131.378906 C 148.203125 133.671875 154.515625 141.011719 155.683594 142.894531 C 156.617188 144.398438 161.996094 153.027344 162.527344 152.015625" stroke-linecap="round" />
</g>
<g transform="matrix(1.33 0 0 1.33 467.02 465.56)"  >
<path style="stroke: none; stroke-width: 1; stroke-dasharray: none; stroke-linecap: butt; stroke-dashoffset: 0; stroke-linejoin: miter; stroke-miterlimit: 4; fill: rgb(190,28,45); fill-rule: nonzero; opacity: 1;" vector-effect="non-scaling-stroke"  transform=" translate(-132.8, -131.7)" d="M 149.058594 135.117188 C 145.238281 126.964844 138.4375 117.960938 128.210938 123.871094 C 121.355469 127.835938 117.796875 133.9375 116.542969 141.1875 C 116.5 141.433594 116.851562 141.527344 116.9375 141.292969 C 119.3125 134.777344 122.703125 128.234375 130.511719 129.136719 C 134.945312 129.652344 145.71875 132.167969 149.058594 135.117188" stroke-linecap="round" />
</g>
<g transform="matrix(1.33 0 0 1.33 436.34 488.59)"  >
<path style="stroke: none; stroke-width: 1; stroke-dasharray: none; stroke-linecap: butt; stroke-dashoffset: 0; stroke-linejoin: miter; stroke-miterlimit: 4; fill: rgb(190,28,45); fill-rule: nonzero; opacity: 1;" vector-effect="non-scaling-stroke"  transform=" translate(-109.77, -148.97)" d="M 114.996094 135.367188 C 115.597656 135.203125 116.167969 135.71875 116.074219 136.335938 C 115.4375 140.550781 114.1875 144.808594 113.96875 148.976562 C 113.757812 153.050781 114.832031 157.457031 115.777344 161.542969 C 115.957031 162.320312 115.082031 162.90625 114.433594 162.445312 C 109.5 158.945312 105.152344 153.683594 103.714844 147.84375 C 102.007812 140.890625 109.035156 137.007812 114.996094 135.367188" stroke-linecap="round" />
</g>
<g transform="matrix(1.33 0 0 1.33 448.36 519.73)"  >
<path style="stroke: none; stroke-width: 1; stroke-dasharray: none; stroke-linecap: butt; stroke-dashoffset: 0; stroke-linejoin: miter; stroke-miterlimit: 4; fill: rgb(190,28,45); fill-rule: nonzero; opacity: 1;" vector-effect="non-scaling-stroke"  transform=" translate(-118.8, -172.33)" d="M 107.585938 159.128906 C 109.839844 164.609375 111.476562 172.1875 114.914062 176.949219 C 116.496094 179.140625 117.199219 178.761719 120.234375 179.726562 C 121.914062 180.265625 124.125 180.773438 125.445312 182.03125 C 126.570312 183.105469 126.238281 184.714844 127.925781 185.355469 C 132.117188 186.953125 128.851562 181.960938 127.910156 180.683594 C 125.3125 177.15625 122.28125 173.886719 119.410156 170.589844 C 117.039062 167.867188 114.714844 165.070312 112.226562 162.457031 C 111.535156 161.730469 107.519531 158.230469 107.585938 159.128906" stroke-linecap="round" />
</g>
<g transform="matrix(1.33 0 0 1.33 476.78 526.7)"  >
<path style="stroke: none; stroke-width: 1; stroke-dasharray: none; stroke-linecap: butt; stroke-dashoffset: 0; stroke-linejoin: miter; stroke-miterlimit: 4; fill: rgb(190,28,45); fill-rule: nonzero; opacity: 1;" vector-effect="non-scaling-stroke"  transform=" translate(-140.13, -177.54)" d="M 124.972656 172.1875 C 134.246094 175.15625 142.382812 176.203125 151.839844 173.039062 C 159.703125 170.410156 154.832031 174.464844 151.199219 177.390625 C 147.308594 180.523438 142.652344 182.550781 137.578125 182.925781 C 133.125 183.253906 130.121094 181.339844 127.242188 178.03125 C 126.898438 177.636719 122.449219 171.378906 124.972656 172.1875" stroke-linecap="round" />
</g>
<g transform="matrix(1.33 0 0 1.33 607.12 499.68)"  >
<path style="stroke: none; stroke-width: 1; stroke-dasharray: none; stroke-linecap: butt; stroke-dashoffset: 0; stroke-linejoin: miter; stroke-miterlimit: 4; fill: rgb(190,28,45); fill-rule: nonzero; opacity: 1;" vector-effect="non-scaling-stroke"  transform=" translate(-237.88, -157.29)" d="M 256.308594 158.027344 C 249.691406 164.246094 235.582031 170.179688 228.382812 162.125 C 226.308594 159.808594 224.949219 157.042969 223.898438 154.136719 C 223.25 152.347656 222.484375 150.597656 221.9375 148.773438 C 221.632812 147.757812 221.640625 144.09375 220.246094 145.324219 C 219.433594 146.042969 219.476562 149.90625 219.359375 150.996094 C 218.917969 155.03125 218.292969 160.195312 221.636719 163.238281 C 223.882812 165.285156 229.296875 167.570312 232.292969 168.546875 C 236.554688 169.933594 242.816406 169.863281 246.953125 168.089844 C 249.4375 167.027344 258.929688 162.089844 256.308594 158.027344" stroke-linecap="round" />
</g>
<g transform="matrix(1.33 0 0 1.33 600.8 482.02)"  >
<path style="stroke: none; stroke-width: 1; stroke-dasharray: none; stroke-linecap: butt; stroke-dashoffset: 0; stroke-linejoin: miter; stroke-miterlimit: 4; fill: rgb(190,28,45); fill-rule: nonzero; opacity: 1;" vector-effect="non-scaling-stroke"  transform=" translate(-233.13, -144.05)" d="M 228.085938 158.046875 C 226.125 153.535156 224.683594 147.417969 226.914062 142.757812 C 228.964844 138.46875 233.296875 137.46875 237.414062 135.992188 C 237.757812 135.871094 243.566406 133.851562 243.402344 133.5 C 242.824219 132.257812 238.132812 130.980469 236.925781 130.625 C 231.011719 128.863281 225.058594 130.074219 223.007812 136.523438 C 222.554688 137.949219 222.757812 160.28125 228.085938 158.046875" stroke-linecap="round" />
</g>
<g transform="matrix(1.33 0 0 1.33 612.16 486.67)"  >
<path style="stroke: none; stroke-width: 1; stroke-dasharray: none; stroke-linecap: butt; stroke-dashoffset: 0; stroke-linejoin: miter; stroke-miterlimit: 4; fill: rgb(190,28,45); fill-rule: nonzero; opacity: 1;" vector-effect="non-scaling-stroke"  transform=" translate(-241.65, -147.53)" d="M 229.035156 155.824219 C 233.652344 157.925781 242.472656 161.449219 246.875 157.375 C 250.386719 154.128906 249.242188 147.253906 247.292969 143.460938 C 246.550781 142.011719 242.269531 138.925781 242.058594 137.847656 C 241.859375 136.839844 244.03125 134.710938 244.792969 134.367188 C 247.15625 133.285156 250.136719 135.089844 251.796875 136.757812 C 255.890625 140.867188 254.042969 146.929688 252.304688 151.726562 C 250.757812 156.003906 249.277344 159.722656 244.601562 160.660156 C 239.039062 161.777344 232.726562 160.378906 229.035156 155.824219" stroke-linecap="round" />
</g>
<g transform="matrix(1.33 0 0 1.33 614.93 493.53)"  >
<path style="stroke: none; stroke-width: 1; stroke-dasharray: none; stroke-linecap: butt; stroke-dashoffset: 0; stroke-linejoin: miter; stroke-miterlimit: 4; fill: rgb(190,28,45); fill-rule: nonzero; opacity: 1;" vector-effect="non-scaling-stroke"  transform=" translate(-243.74, -152.67)" d="M 230.488281 159.507812 C 246.496094 166.429688 256.476562 157.101562 255.273438 140.644531 C 262.949219 149.292969 255.363281 158.410156 247.03125 162.535156 C 243.4375 164.3125 238.230469 165.101562 234.128906 164.503906 C 231.167969 164.078125 226.660156 158.082031 230.488281 159.507812" stroke-linecap="round" />
</g>
<g transform="matrix(1.33 0 0 1.33 598.94 488.92)"  >
<path style="stroke: none; stroke-width: 1; stroke-dasharray: none; stroke-linecap: butt; stroke-dashoffset: 0; stroke-linejoin: miter; stroke-miterlimit: 4; fill: rgb(190,28,45); fill-rule: nonzero; opacity: 1;" vector-effect="non-scaling-stroke"  transform=" translate(-231.72, -149.21)" d="M 236.496094 156.441406 C 231.472656 153.355469 225.789062 147.25 230.660156 141.675781 C 230.78125 141.535156 230.675781 141.316406 230.488281 141.320312 C 226.136719 141.390625 226.394531 149.789062 227.578125 152.636719 C 228.601562 155.09375 233.417969 158.015625 236.464844 156.828125 C 236.628906 156.761719 236.648438 156.535156 236.496094 156.441406" stroke-linecap="round" />
</g>
<g transform="matrix(1.33 0 0 1.33 607.68 480.87)"  >
<path style="stroke: none; stroke-width: 1; stroke-dasharray: none; stroke-linecap: butt; stroke-dashoffset: 0; stroke-linejoin: miter; stroke-miterlimit: 4; fill: rgb(190,28,45); fill-rule: nonzero; opacity: 1;" vector-effect="non-scaling-stroke"  transform=" translate(-238.29, -143.17)" d="M 232.0625 147.546875 C 233.375 146.378906 235.164062 145.652344 236.765625 145.03125 C 238.144531 144.496094 239.605469 144.066406 241.089844 143.992188 C 243.203125 143.886719 244.867188 146.128906 245.761719 147.683594 C 245.957031 148.023438 246.480469 147.859375 246.445312 147.46875 C 245.902344 141.332031 241.039062 135.078125 234.234375 138.914062 C 232.023438 140.160156 230.886719 142.355469 230.371094 144.769531 C 230.183594 145.664062 230.070312 146.640625 230.152344 147.554688 C 230.265625 148.875 230.785156 148.867188 231.648438 147.949219 C 231.78125 147.8125 231.917969 147.675781 232.0625 147.546875" stroke-linecap="round" />
</g>
<g transform="matrix(1.33 0 0 1.33 608.81 493.39)"  >
<path style="stroke: none; stroke-width: 1; stroke-dasharray: none; stroke-linecap: butt; stroke-dashoffset: 0; stroke-linejoin: miter; stroke-miterlimit: 4; fill: rgb(190,28,45); fill-rule: nonzero; opacity: 1;" vector-effect="non-scaling-stroke"  transform=" translate(-239.12, -152.55)" d="M 232.898438 150.539062 C 233.628906 151.054688 234.585938 151.398438 235.410156 151.757812 C 236.226562 152.113281 237.054688 152.441406 237.898438 152.734375 C 239.390625 153.257812 241.058594 153.796875 242.660156 153.683594 C 243.949219 153.59375 244.730469 152.824219 244.570312 151.492188 C 244.523438 151.089844 244.414062 150.699219 244.28125 150.316406 C 244.199219 150.082031 244.109375 149.847656 244.007812 149.617188 C 243.960938 149.503906 243.75 148.863281 243.644531 148.835938 C 247.613281 149.765625 246.628906 154.246094 243.539062 155.722656 C 241.632812 156.636719 239.191406 156.257812 237.269531 155.597656 C 235.25 154.902344 233.042969 153.59375 232.222656 151.5 C 232.136719 151.277344 232.066406 151.046875 232.015625 150.8125 C 231.988281 150.695312 231.96875 150.566406 232.019531 150.457031 C 232.113281 150.269531 232.378906 150.238281 232.570312 150.324219 C 232.6875 150.375 232.789062 150.460938 232.894531 150.535156 C 232.894531 150.535156 232.894531 150.535156 232.898438 150.539062" stroke-linecap="round" />
</g>
<g transform="matrix(1.33 0 0 1.33 607.72 488.39)"  >
<path style="stroke: none; stroke-width: 1; stroke-dasharray: none; stroke-linecap: butt; stroke-dashoffset: 0; stroke-linejoin: miter; stroke-miterlimit: 4; fill: rgb(190,28,45); fill-rule: nonzero; opacity: 1;" vector-effect="non-scaling-stroke"  transform=" translate(-238.3, -148.8)" d="M 238.296875 151.503906 C 237.683594 149.207031 237.855469 145.746094 241.109375 147.484375 C 236.058594 143.304688 232.910156 149.78125 238.296875 151.503906" stroke-linecap="round" />
</g>
<g transform="matrix(1.33 0 0 1.33 611.72 490.56)"  >
<path style="stroke: none; stroke-width: 1; stroke-dasharray: none; stroke-linecap: butt; stroke-dashoffset: 0; stroke-linejoin: miter; stroke-miterlimit: 4; fill: rgb(190,28,45); fill-rule: nonzero; opacity: 1;" vector-effect="non-scaling-stroke"  transform=" translate(-241.29, -150.43)" d="M 240.289062 151.503906 C 241.355469 150.582031 241.589844 149.355469 240.035156 148.636719 C 244.007812 148.214844 242.628906 154.296875 240.289062 151.503906" stroke-linecap="round" />
</g>
<g transform="matrix(1.33 0 0 1.33 613.94 503.79)"  >
<path style="stroke: none; stroke-width: 1; stroke-dasharray: none; stroke-linecap: butt; stroke-dashoffset: 0; stroke-linejoin: miter; stroke-miterlimit: 4; fill: rgb(190,28,45); fill-rule: nonzero; opacity: 1;" vector-effect="non-scaling-stroke"  transform=" translate(-243.02, -160.38)" d="M 259.570312 146.996094 C 258.511719 154.039062 259.054688 166.242188 251.660156 169.433594 C 244.621094 172.472656 235.734375 171.828125 229.015625 168.53125 C 228.003906 168.039062 222.964844 165.957031 220.800781 165.066406 C 220.382812 164.894531 219.996094 165.363281 220.238281 165.746094 C 221.132812 167.179688 223.914062 169.84375 232.53125 172.601562 C 238.027344 174.359375 243.921875 173.859375 249.515625 172.777344 C 255.675781 171.589844 259.746094 170.0625 263.261719 164.78125 C 268.351562 157.132812 265.386719 153.238281 259.570312 146.996094" stroke-linecap="round" />
</g>
<g transform="matrix(1.33 0 0 1.33 637.33 477.43)"  >
<path style="stroke: none; stroke-width: 1; stroke-dasharray: none; stroke-linecap: butt; stroke-dashoffset: 0; stroke-linejoin: miter; stroke-miterlimit: 4; fill: rgb(190,28,45); fill-rule: nonzero; opacity: 1;" vector-effect="non-scaling-stroke"  transform=" translate(-260.53, -140.6)" d="M 265.324219 152.015625 C 267.453125 147.238281 272.9375 141.382812 268.085938 135.742188 C 265.914062 133.214844 251.066406 125.234375 251.019531 131.378906 C 251 133.671875 257.3125 141.011719 258.480469 142.894531 C 259.414062 144.398438 264.796875 153.027344 265.324219 152.015625" stroke-linecap="round" />
</g>
<g transform="matrix(1.33 0 0 1.33 604.08 465.56)"  >
<path style="stroke: none; stroke-width: 1; stroke-dasharray: none; stroke-linecap: butt; stroke-dashoffset: 0; stroke-linejoin: miter; stroke-miterlimit: 4; fill: rgb(190,28,45); fill-rule: nonzero; opacity: 1;" vector-effect="non-scaling-stroke"  transform=" translate(-235.6, -131.7)" d="M 251.859375 135.117188 C 248.035156 126.964844 241.238281 117.960938 231.007812 123.871094 C 224.15625 127.835938 220.597656 133.9375 219.339844 141.1875 C 219.296875 141.433594 219.648438 141.527344 219.734375 141.292969 C 222.109375 134.777344 225.503906 128.234375 233.3125 129.136719 C 237.746094 129.652344 248.519531 132.167969 251.859375 135.117188" stroke-linecap="round" />
</g>
<g transform="matrix(1.33 0 0 1.33 573.41 488.59)"  >
<path style="stroke: none; stroke-width: 1; stroke-dasharray: none; stroke-linecap: butt; stroke-dashoffset: 0; stroke-linejoin: miter; stroke-miterlimit: 4; fill: rgb(190,28,45); fill-rule: nonzero; opacity: 1;" vector-effect="non-scaling-stroke"  transform=" translate(-212.57, -148.97)" d="M 217.792969 135.367188 C 218.394531 135.203125 218.96875 135.71875 218.875 136.335938 C 218.238281 140.550781 216.984375 144.808594 216.769531 148.976562 C 216.554688 153.050781 217.628906 157.457031 218.574219 161.542969 C 218.753906 162.320312 217.882812 162.90625 217.230469 162.445312 C 212.296875 158.945312 207.949219 153.683594 206.515625 147.84375 C 204.804688 140.890625 211.835938 137.007812 217.792969 135.367188" stroke-linecap="round" />
</g>
<g transform="matrix(1.33 0 0 1.33 585.42 519.73)"  >
<path style="stroke: none; stroke-width: 1; stroke-dasharray: none; stroke-linecap: butt; stroke-dashoffset: 0; stroke-linejoin: miter; stroke-miterlimit: 4; fill: rgb(190,28,45); fill-rule: nonzero; opacity: 1;" vector-effect="non-scaling-stroke"  transform=" translate(-221.6, -172.33)" d="M 210.386719 159.128906 C 212.640625 164.609375 214.273438 172.1875 217.710938 176.949219 C 219.292969 179.140625 219.996094 178.761719 223.03125 179.726562 C 224.710938 180.265625 226.925781 180.773438 228.246094 182.03125 C 229.367188 183.105469 229.039062 184.714844 230.722656 185.355469 C 234.917969 186.953125 231.652344 181.960938 230.710938 180.683594 C 228.113281 177.15625 225.082031 173.886719 222.207031 170.589844 C 219.839844 167.867188 217.511719 165.070312 215.023438 162.457031 C 214.332031 161.730469 210.316406 158.230469 210.386719 159.128906" stroke-linecap="round" />
</g>
<g transform="matrix(1.33 0 0 1.33 613.86 526.7)"  >
<path style="stroke: none; stroke-width: 1; stroke-dasharray: none; stroke-linecap: butt; stroke-dashoffset: 0; stroke-linejoin: miter; stroke-miterlimit: 4; fill: rgb(190,28,45); fill-rule: nonzero; opacity: 1;" vector-effect="non-scaling-stroke"  transform=" translate(-242.93, -177.54)" d="M 227.769531 172.1875 C 237.046875 175.15625 245.183594 176.203125 254.640625 173.039062 C 262.503906 170.410156 257.628906 174.464844 253.996094 177.390625 C 250.109375 180.523438 245.453125 182.550781 240.378906 182.925781 C 235.925781 183.253906 232.917969 181.339844 230.039062 178.03125 C 229.699219 177.636719 225.25 171.378906 227.769531 172.1875" stroke-linecap="round" />
</g>
<g transform="matrix(1.33 0 0 1.33 540.79 488.26)"  >
<path style="stroke: none; stroke-width: 1; stroke-dasharray: none; stroke-linecap: butt; stroke-dashoffset: 0; stroke-linejoin: miter; stroke-miterlimit: 4; fill: rgb(190,28,45); fill-rule: nonzero; opacity: 1;" vector-effect="non-scaling-stroke"  transform=" translate(-188.13, -148.73)" d="M 206.558594 149.457031 C 199.945312 155.679688 185.835938 161.613281 178.632812 153.558594 C 176.5625 151.242188 175.203125 148.476562 174.152344 145.570312 C 173.503906 143.78125 172.738281 142.03125 172.191406 140.207031 C 171.886719 139.1875 171.894531 135.527344 170.5 136.757812 C 169.6875 137.476562 169.730469 141.339844 169.609375 142.429688 C 169.171875 146.464844 168.546875 151.628906 171.890625 154.671875 C 174.132812 156.714844 179.550781 159.003906 182.546875 159.980469 C 186.804688 161.367188 193.070312 161.296875 197.203125 159.523438 C 199.6875 158.460938 209.179688 153.523438 206.558594 149.457031" stroke-linecap="round" />
</g>
<g transform="matrix(1.33 0 0 1.33 534.48 470.6)"  >
<path style="stroke: none; stroke-width: 1; stroke-dasharray: none; stroke-linecap: butt; stroke-dashoffset: 0; stroke-linejoin: miter; stroke-miterlimit: 4; fill: rgb(190,28,45); fill-rule: nonzero; opacity: 1;" vector-effect="non-scaling-stroke"  transform=" translate(-183.38, -135.48)" d="M 178.339844 149.480469 C 176.378906 144.96875 174.9375 138.851562 177.167969 134.191406 C 179.214844 129.902344 183.550781 128.902344 187.667969 127.425781 C 188.007812 127.304688 193.820312 125.285156 193.65625 124.933594 C 193.078125 123.691406 188.386719 122.414062 187.179688 122.054688 C 181.261719 120.296875 175.3125 121.507812 173.261719 127.957031 C 172.808594 129.382812 173.011719 151.710938 178.339844 149.480469" stroke-linecap="round" />
</g>
<g transform="matrix(1.33 0 0 1.33 545.83 475.25)"  >
<path style="stroke: none; stroke-width: 1; stroke-dasharray: none; stroke-linecap: butt; stroke-dashoffset: 0; stroke-linejoin: miter; stroke-miterlimit: 4; fill: rgb(190,28,45); fill-rule: nonzero; opacity: 1;" vector-effect="non-scaling-stroke"  transform=" translate(-191.9, -138.97)" d="M 179.289062 147.257812 C 183.902344 149.359375 192.722656 152.882812 197.128906 148.808594 C 200.640625 145.5625 199.496094 138.6875 197.546875 134.890625 C 196.804688 133.445312 192.523438 130.359375 192.3125 129.28125 C 192.113281 128.273438 194.285156 126.144531 195.046875 125.800781 C 197.410156 124.71875 200.390625 126.523438 202.050781 128.191406 C 206.144531 132.300781 204.296875 138.363281 202.558594 143.15625 C 201.007812 147.433594 199.53125 151.15625 194.855469 152.09375 C 189.292969 153.210938 182.980469 151.808594 179.289062 147.257812" stroke-linecap="round" />
</g>
<g transform="matrix(1.33 0 0 1.33 548.61 482.1)"  >
<path style="stroke: none; stroke-width: 1; stroke-dasharray: none; stroke-linecap: butt; stroke-dashoffset: 0; stroke-linejoin: miter; stroke-miterlimit: 4; fill: rgb(190,28,45); fill-rule: nonzero; opacity: 1;" vector-effect="non-scaling-stroke"  transform=" translate(-193.99, -144.1)" d="M 180.742188 150.941406 C 196.75 157.863281 206.730469 148.535156 205.527344 132.074219 C 213.203125 140.722656 205.617188 149.84375 197.28125 153.96875 C 193.691406 155.746094 188.484375 156.535156 184.382812 155.9375 C 181.421875 155.511719 176.914062 149.511719 180.742188 150.941406" stroke-linecap="round" />
</g>
<g transform="matrix(1.33 0 0 1.33 532.61 477.5)"  >
<path style="stroke: none; stroke-width: 1; stroke-dasharray: none; stroke-linecap: butt; stroke-dashoffset: 0; stroke-linejoin: miter; stroke-miterlimit: 4; fill: rgb(190,28,45); fill-rule: nonzero; opacity: 1;" vector-effect="non-scaling-stroke"  transform=" translate(-181.97, -140.64)" d="M 186.75 147.875 C 181.726562 144.789062 176.039062 138.683594 180.910156 133.109375 C 181.035156 132.96875 180.929688 132.75 180.742188 132.75 C 176.390625 132.824219 176.648438 141.222656 177.832031 144.070312 C 178.851562 146.523438 183.667969 149.449219 186.714844 148.261719 C 186.882812 148.195312 186.902344 147.96875 186.75 147.875" stroke-linecap="round" />
</g>
<g transform="matrix(1.33 0 0 1.33 541.36 469.45)"  >
<path style="stroke: none; stroke-width: 1; stroke-dasharray: none; stroke-linecap: butt; stroke-dashoffset: 0; stroke-linejoin: miter; stroke-miterlimit: 4; fill: rgb(190,28,45); fill-rule: nonzero; opacity: 1;" vector-effect="non-scaling-stroke"  transform=" translate(-188.54, -134.6)" d="M 182.316406 138.980469 C 183.628906 137.8125 185.417969 137.085938 187.019531 136.464844 C 188.398438 135.929688 189.859375 135.5 191.34375 135.425781 C 193.453125 135.320312 195.121094 137.5625 196.015625 139.117188 C 196.210938 139.457031 196.734375 139.292969 196.699219 138.902344 C 196.15625 132.765625 191.292969 126.511719 184.488281 130.347656 C 182.277344 131.59375 181.136719 133.785156 180.625 136.203125 C 180.4375 137.097656 180.324219 138.074219 180.402344 138.988281 C 180.519531 140.308594 181.035156 140.300781 181.902344 139.382812 C 182.03125 139.242188 182.171875 139.109375 182.316406 138.980469" stroke-linecap="round" />
</g>
<g transform="matrix(1.33 0 0 1.33 542.48 481.97)"  >
<path style="stroke: none; stroke-width: 1; stroke-dasharray: none; stroke-linecap: butt; stroke-dashoffset: 0; stroke-linejoin: miter; stroke-miterlimit: 4; fill: rgb(190,28,45); fill-rule: nonzero; opacity: 1;" vector-effect="non-scaling-stroke"  transform=" translate(-189.37, -143.98)" d="M 183.148438 141.96875 C 183.882812 142.488281 184.839844 142.832031 185.664062 143.191406 C 186.480469 143.546875 187.308594 143.875 188.152344 144.167969 C 189.644531 144.691406 191.308594 145.226562 192.914062 145.117188 C 194.203125 145.023438 194.980469 144.257812 194.824219 142.921875 C 194.773438 142.523438 194.667969 142.128906 194.535156 141.75 C 194.453125 141.511719 194.359375 141.28125 194.261719 141.050781 C 194.210938 140.9375 194.003906 140.296875 193.894531 140.269531 C 197.867188 141.199219 196.882812 145.679688 193.792969 147.15625 C 191.886719 148.066406 189.445312 147.6875 187.523438 147.03125 C 185.5 146.335938 183.292969 145.027344 182.476562 142.929688 C 182.390625 142.710938 182.320312 142.480469 182.269531 142.246094 C 182.242188 142.128906 182.222656 142 182.273438 141.890625 C 182.363281 141.699219 182.632812 141.671875 182.824219 141.757812 C 182.941406 141.808594 183.042969 141.894531 183.148438 141.96875" stroke-linecap="round" />
</g>
<g transform="matrix(1.33 0 0 1.33 541.39 476.97)"  >
<path style="stroke: none; stroke-width: 1; stroke-dasharray: none; stroke-linecap: butt; stroke-dashoffset: 0; stroke-linejoin: miter; stroke-miterlimit: 4; fill: rgb(190,28,45); fill-rule: nonzero; opacity: 1;" vector-effect="non-scaling-stroke"  transform=" translate(-188.55, -140.24)" d="M 188.550781 142.9375 C 187.933594 140.640625 188.109375 137.179688 191.363281 138.917969 C 186.308594 134.738281 183.164062 141.214844 188.550781 142.9375" stroke-linecap="round" />
</g>
<g transform="matrix(1.33 0 0 1.33 545.39 479.14)"  >
<path style="stroke: none; stroke-width: 1; stroke-dasharray: none; stroke-linecap: butt; stroke-dashoffset: 0; stroke-linejoin: miter; stroke-miterlimit: 4; fill: rgb(190,28,45); fill-rule: nonzero; opacity: 1;" vector-effect="non-scaling-stroke"  transform=" translate(-191.55, -141.86)" d="M 190.542969 142.9375 C 191.609375 142.015625 191.84375 140.785156 190.289062 140.070312 C 194.261719 139.644531 192.882812 145.730469 190.542969 142.9375" stroke-linecap="round" />
</g>
<g transform="matrix(1.33 0 0 1.33 547.62 492.37)"  >
<path style="stroke: none; stroke-width: 1; stroke-dasharray: none; stroke-linecap: butt; stroke-dashoffset: 0; stroke-linejoin: miter; stroke-miterlimit: 4; fill: rgb(190,28,45); fill-rule: nonzero; opacity: 1;" vector-effect="non-scaling-stroke"  transform=" translate(-193.27, -151.81)" d="M 209.824219 138.429688 C 208.765625 145.46875 209.304688 157.675781 201.910156 160.867188 C 194.875 163.90625 185.988281 163.261719 179.269531 159.964844 C 178.257812 159.46875 173.21875 157.390625 171.054688 156.5 C 170.636719 156.328125 170.25 156.792969 170.488281 157.175781 C 171.386719 158.609375 174.167969 161.277344 182.785156 164.035156 C 188.277344 165.792969 194.175781 165.292969 199.769531 164.210938 C 205.929688 163.023438 210 161.496094 213.515625 156.214844 C 218.601562 148.566406 215.640625 144.671875 209.824219 138.429688" stroke-linecap="round" />
</g>
<g transform="matrix(1.33 0 0 1.33 571.01 466.01)"  >
<path style="stroke: none; stroke-width: 1; stroke-dasharray: none; stroke-linecap: butt; stroke-dashoffset: 0; stroke-linejoin: miter; stroke-miterlimit: 4; fill: rgb(190,28,45); fill-rule: nonzero; opacity: 1;" vector-effect="non-scaling-stroke"  transform=" translate(-210.78, -132.03)" d="M 215.578125 143.445312 C 217.707031 138.671875 223.191406 132.8125 218.339844 127.171875 C 216.167969 124.644531 201.316406 116.667969 201.269531 122.8125 C 201.253906 125.105469 207.566406 132.445312 208.734375 134.328125 C 209.667969 135.832031 215.050781 144.460938 215.578125 143.445312" stroke-linecap="round" />
</g>
<g transform="matrix(1.33 0 0 1.33 537.75 454.14)"  >
<path style="stroke: none; stroke-width: 1; stroke-dasharray: none; stroke-linecap: butt; stroke-dashoffset: 0; stroke-linejoin: miter; stroke-miterlimit: 4; fill: rgb(190,28,45); fill-rule: nonzero; opacity: 1;" vector-effect="non-scaling-stroke"  transform=" translate(-185.85, -123.13)" d="M 202.113281 126.550781 C 198.289062 118.398438 191.488281 109.394531 181.261719 115.304688 C 174.40625 119.269531 170.851562 125.371094 169.59375 132.617188 C 169.550781 132.867188 169.902344 132.960938 169.988281 132.722656 C 172.363281 126.210938 175.753906 119.667969 183.5625 120.570312 C 188 121.082031 198.773438 123.601562 202.113281 126.550781" stroke-linecap="round" />
</g>
<g transform="matrix(1.33 0 0 1.33 507.07 477.17)"  >
<path style="stroke: none; stroke-width: 1; stroke-dasharray: none; stroke-linecap: butt; stroke-dashoffset: 0; stroke-linejoin: miter; stroke-miterlimit: 4; fill: rgb(190,28,45); fill-rule: nonzero; opacity: 1;" vector-effect="non-scaling-stroke"  transform=" translate(-162.82, -140.41)" d="M 168.046875 126.800781 C 168.648438 126.636719 169.21875 127.148438 169.125 127.769531 C 168.492188 131.980469 167.238281 136.242188 167.019531 140.410156 C 166.808594 144.484375 167.882812 148.886719 168.828125 152.976562 C 169.007812 153.753906 168.132812 154.339844 167.484375 153.878906 C 162.550781 150.378906 158.203125 145.117188 156.765625 139.277344 C 155.058594 132.324219 162.085938 128.441406 168.046875 126.800781" stroke-linecap="round" />
</g>
<g transform="matrix(1.33 0 0 1.33 519.1 508.3)"  >
<path style="stroke: none; stroke-width: 1; stroke-dasharray: none; stroke-linecap: butt; stroke-dashoffset: 0; stroke-linejoin: miter; stroke-miterlimit: 4; fill: rgb(190,28,45); fill-rule: nonzero; opacity: 1;" vector-effect="non-scaling-stroke"  transform=" translate(-171.85, -163.76)" d="M 160.636719 150.5625 C 162.890625 156.042969 164.527344 163.617188 167.964844 168.382812 C 169.546875 170.574219 170.25 170.195312 173.285156 171.160156 C 174.964844 171.695312 177.175781 172.203125 178.496094 173.464844 C 179.621094 174.539062 179.289062 176.144531 180.976562 176.789062 C 185.171875 178.386719 181.90625 173.394531 180.960938 172.113281 C 178.363281 168.589844 175.335938 165.320312 172.460938 162.023438 C 170.089844 159.300781 167.765625 156.503906 165.277344 153.890625 C 164.585938 153.164062 160.570312 149.664062 160.636719 150.5625" stroke-linecap="round" />
</g>
<g transform="matrix(1.33 0 0 1.33 547.53 515.28)"  >
<path style="stroke: none; stroke-width: 1; stroke-dasharray: none; stroke-linecap: butt; stroke-dashoffset: 0; stroke-linejoin: miter; stroke-miterlimit: 4; fill: rgb(190,28,45); fill-rule: nonzero; opacity: 1;" vector-effect="non-scaling-stroke"  transform=" translate(-193.18, -168.97)" d="M 178.023438 163.621094 C 187.296875 166.589844 195.433594 167.636719 204.894531 164.472656 C 212.753906 161.84375 207.882812 165.898438 204.25 168.824219 C 200.359375 171.957031 195.703125 173.984375 190.632812 174.359375 C 186.175781 174.6875 183.171875 172.773438 180.292969 169.464844 C 179.949219 169.070312 175.5 162.8125 178.023438 163.621094" stroke-linecap="round" />
</g>
</svg>