<?xml version="1.0" encoding="UTF-8" standalone="no"?>
<svg
   viewBox="0 0 348.56641 345.42761"
   xml:space="preserve"
   version="1.1"
   id="svg74"
   sodipodi:docname="logo-bottom-min.svg"
   width="348.56641"
   height="345.42761"
   inkscape:version="1.3.2 (091e20e, 2023-11-25, custom)"
   xmlns:inkscape="http://www.inkscape.org/namespaces/inkscape"
   xmlns:sodipodi="http://sodipodi.sourceforge.net/DTD/sodipodi-0.dtd"
   xmlns="http://www.w3.org/2000/svg"
   xmlns:svg="http://www.w3.org/2000/svg"><defs
     id="defs74" /><sodipodi:namedview
     id="namedview74"
     pagecolor="#ffffff"
     bordercolor="#000000"
     borderopacity="0.25"
     inkscape:showpageshadow="2"
     inkscape:pageopacity="0.0"
     inkscape:pagecheckerboard="0"
     inkscape:deskcolor="#d1d1d1"
     inkscape:zoom="0.73981481"
     inkscape:cx="175.0438"
     inkscape:cy="173.69212"
     inkscape:window-width="1920"
     inkscape:window-height="1013"
     inkscape:window-x="-9"
     inkscape:window-y="-9"
     inkscape:window-maximized="1"
     inkscape:current-layer="svg74" /><g
     transform="translate(174.7232,173.1538)"
     clip-path="url(#a)"
     id="g2"><clipPath
       id="a"><path
         transform="matrix(1.33,0,0,1.33,-249.815,-249.815)"
         clip-path="url(#undefined)"
         d="m 187.5,57.64 c -72.371,0 -131.04,58.141 -131.04,129.86 0,71.719 58.669,129.86 131.04,129.86 72.371,0 131.04,-58.141 131.04,-129.86 0,-71.719 -58.669,-129.86 -131.04,-129.86 z m 0,0"
         stroke-linecap="round"
         id="path1" /></clipPath><path
       style="opacity:1;fill:none;fill-rule:nonzero;stroke:#be1c2d;stroke-width:4;stroke-linecap:butt;stroke-linejoin:miter;stroke-miterlimit:4;stroke-dasharray:none;stroke-dashoffset:0"
       vector-effect="non-scaling-stroke"
       transform="translate(-174.72,-173.15)"
       d="M 174.72,0 C 78.227,0 0.003,77.523 0.003,173.148 c 0,95.625 78.224,173.146 174.719,173.146 96.495,0 174.719,-77.521 174.719,-173.146 C 349.44,77.522 271.216,0 174.72,0 Z m 0,0"
       id="path2" /></g><path
     style="opacity:1;fill:#be1c2d;fill-rule:nonzero;stroke:none;stroke-width:1.33;stroke-linecap:butt;stroke-linejoin:miter;stroke-miterlimit:4;stroke-dasharray:none;stroke-dashoffset:0"
     vector-effect="non-scaling-stroke"
     d="m 33.66893,213.69406 c 0.56658,-0.0106 0.9975,-0.0731 1.28877,-0.1862 0.30191,-0.12635 0.53998,-0.37506 0.70623,-0.74879 0.16625,-0.3857 0.25004,-0.98686 0.25004,-1.8088 v -15.16998 h -1.45502 c -1.24754,0.0319 -2.21312,0.45752 -2.88876,1.28877 -0.665,0.82061 -0.9975,2.05751 -0.9975,3.72001 h -2.09874 l 0.16625,-7.14875 h 19.18126 l 0.1862,7.14875 H 45.9302 c 0,-1.6625 -0.34846,-2.92068 -1.03873,-3.78252 -0.68096,-0.85785 -1.6359,-1.27281 -2.86748,-1.24754 h -1.51886 v 14.83881 c 0,1.41246 -0.04123,2.36341 -0.12502,2.8462 0.6916,-0.0519 1.53748,-0.0825 2.53498,-0.0825 v 2.43124 h -9.24616 z m 0,0"
     id="path3" /><path
     style="opacity:1;fill:#be1c2d;fill-rule:nonzero;stroke:none;stroke-width:1.33;stroke-linecap:butt;stroke-linejoin:miter;stroke-miterlimit:4;stroke-dasharray:none;stroke-dashoffset:0"
     vector-effect="non-scaling-stroke"
     d="m 57.3855,216.30655 c -1.53881,0 -2.8994,-0.34314 -4.07379,-1.01878 -1.17971,-0.6916 -2.09874,-1.66782 -2.76374,-2.92999 -0.65436,-1.25685 -0.97755,-2.73182 -0.97755,-4.42624 0,-1.48029 0.3325,-2.86748 0.9975,-4.15625 a 7.9667,7.9667 0 0 1 2.8063,-3.11752 c 1.20498,-0.78869 2.57621,-1.1837 4.11502,-1.1837 2.04687,0 3.7506,0.60249 5.11119,1.8088 1.3566,1.20365 2.02692,3.20929 2.01628,6.00495 l -10.39129,0.1862 c 0,1.86067 0.35378,3.325 1.06001,4.40629 0.70756,1.07996 1.83939,1.62127 3.40879,1.62127 0.7315,0 1.52152,-0.18753 2.36873,-0.56126 0.84189,-0.3857 1.60531,-0.98686 2.28627,-1.8088 l 1.41246,1.33 c -1.78752,2.5669 -4.24935,3.84503 -7.37618,3.84503 z m 2.8462,-11.03501 c -0.05719,-2.37937 -0.91504,-3.57371 -2.57754,-3.57371 -0.91371,0 -1.64122,0.32718 -2.1812,0.97622 -0.53998,0.6384 -0.89376,1.50689 -1.06001,2.59749 z m 0,0"
     id="path4" /><path
     style="opacity:1;fill:#be1c2d;fill-rule:nonzero;stroke:none;stroke-width:1.33;stroke-linecap:butt;stroke-linejoin:miter;stroke-miterlimit:4;stroke-dasharray:none;stroke-dashoffset:0"
     vector-effect="non-scaling-stroke"
     d="m 66.95397,213.75229 c 0.79933,0 1.31404,-0.21812 1.53748,-0.665 0.21812,-0.44156 0.3325,-1.16375 0.3325,-2.16125 v -5.29872 c 0,-0.95627 0.04123,-1.85535 0.12502,-2.70256 l -2.20248,0.10507 v -2.41129 c 1.33,0 2.39932,-0.0878 3.21993,-0.26999 0.83125,-0.19285 1.37788,-0.42028 1.64255,-0.68628 h 1.55743 c 0,0.0426 0.0399,0.5719 0.12369,1.58004 h 0.06251 c 0.60781,-0.48279 1.36192,-0.89908 2.26499,-1.24754 0.89908,-0.34181 1.6625,-0.5187 2.2876,-0.5187 1.92052,0 3.29308,0.55594 4.11369,1.6625 0.83125,1.09592 1.24621,2.87812 1.24621,5.33995 v 4.24004 c 0,1.01346 -0.0399,1.9418 -0.12369,2.78502 a 21.147,21.147 0 0 1 2.05618,-0.10507 v 2.41129 h -8.28856 v -2.05751 c 0.80066,0 1.31404,-0.21812 1.53748,-0.665 0.23408,-0.44156 0.35378,-1.16375 0.35378,-2.16125 L 78.779,206.43729 c 0,-1.38187 -0.20216,-2.40065 -0.60249,-3.05501 -0.38969,-0.665 -1.04937,-0.9975 -1.97372,-0.9975 -0.49875,0 -1.01878,0.11438 -1.55876,0.3325 a 4.05384,4.05384 0 0 0 -1.30872,0.8512 v 7.15008 c 0,1.01346 -0.0532,1.9418 -0.1463,2.78502 0.67564,-0.0678 1.36192,-0.10507 2.05751,-0.10507 v 2.41129 H 66.9553 Z m 0,0"
     id="path5" /><path
     style="opacity:1;fill:#be1c2d;fill-rule:nonzero;stroke:none;stroke-width:1.33;stroke-linecap:butt;stroke-linejoin:miter;stroke-miterlimit:4;stroke-dasharray:none;stroke-dashoffset:0"
     vector-effect="non-scaling-stroke"
     d="m 93.67618,216.29255 c -1.88594,0 -3.23589,-0.5453 -4.05251,-1.64122 -0.80465,-1.0906 -1.20498,-2.8728 -1.20498,-5.34128 v -3.63622 c 0,-0.88312 0.0266,-1.8088 0.08379,-2.76507 l -2.20381,0.10507 v -2.41129 c 1.33,0 2.40065,-0.0878 3.22126,-0.26999 0.83125,-0.19285 1.37655,-0.42028 1.64255,-0.68628 h 1.74496 v 9.68506 c 0,1.40182 0.17689,2.42592 0.53998,3.07496 0.3591,0.65436 0.92568,0.97755 1.70506,0.97755 0.52402,0 1.064,-0.1463 1.61994,-0.43757 a 4.66165,4.66165 0 0 0 1.41379,-1.07996 v -6.19381 c 0,-0.9975 0.04655,-1.91786 0.1463,-2.76507 l -2.22509,0.10507 v -2.41129 c 1.33,0 2.39533,-0.0878 3.20131,-0.26999 0.81529,-0.19285 1.36059,-0.42028 1.64122,-0.68628 h 1.74629 v 11.05629 c 0,1.01346 -0.0426,1.9418 -0.12502,2.78502 0.665,-0.0678 1.34995,-0.10507 2.05751,-0.10507 v 2.41262 h -6.02756 l -0.1862,-1.64122 h -0.02128 c -0.79002,0.67963 -1.55344,1.20498 -2.28627,1.57871 -0.72219,0.37373 -1.53216,0.56126 -2.43124,0.56126 z m 0,0"
     id="path6" /><path
     style="opacity:1;fill:#be1c2d;fill-rule:nonzero;stroke:none;stroke-width:1.33;stroke-linecap:butt;stroke-linejoin:miter;stroke-miterlimit:4;stroke-dasharray:none;stroke-dashoffset:0"
     vector-effect="non-scaling-stroke"
     d="m 112.99224,216.29555 c -3.29973,0 -4.9476,-2.0216 -4.9476,-6.06879 l 0.0638,-7.62622 h -2.1413 v -2.61877 c 0.67564,0 1.31537,-0.20748 1.91254,-0.62244 0.59185,-0.4256 1.10124,-0.94563 1.5162,-1.55876 0.4256,-0.62377 0.73283,-1.21562 0.91504,-1.78752 h 2.3275 l -0.0213,3.96872 h 4.01128 v 2.43257 l -4.01128,0.0825 -0.0412,7.7938 c 0,2.05086 0.63441,3.07496 1.91254,3.07496 1.00681,0 1.96308,-0.63441 2.86748,-1.91254 l 1.5162,1.43507 c -0.98686,1.45236 -1.97372,2.38868 -2.97122,2.80364 -0.98686,0.399 -1.95377,0.60249 -2.91004,0.60249 z m 0,0"
     id="path7" /><path
     style="opacity:1;fill:#be1c2d;fill-rule:nonzero;stroke:none;stroke-width:1.33;stroke-linecap:butt;stroke-linejoin:miter;stroke-miterlimit:4;stroke-dasharray:none;stroke-dashoffset:0"
     vector-effect="non-scaling-stroke"
     d="m 123.78569,216.30655 c -1.33,0 -2.38469,-0.39501 -3.15875,-1.1837 -0.76342,-0.79002 -1.1438,-1.79284 -1.1438,-3.01378 0,-1.85535 0.85785,-3.26249 2.57754,-4.21876 1.73033,-0.96691 3.81311,-1.50157 6.25632,-1.59999 v -1.6625 c 0,-1.91254 -0.72219,-2.86748 -2.16125,-2.86748 -0.92967,0 -1.69309,0.28994 -2.28494,0.87248 0.25935,0.3059 0.39368,0.70623 0.39368,1.20498 0,0.51471 -0.18088,0.9709 -0.53998,1.37123 -0.34713,0.40565 -0.8512,0.60249 -1.5162,0.60249 -0.6384,0 -1.13848,-0.20748 -1.49625,-0.62244 -0.36442,-0.41629 -0.54131,-0.92568 -0.54131,-1.53881 0,-0.81529 0.2926,-1.5428 0.87381,-2.1812 0.59185,-0.63441 1.40182,-1.12784 2.43124,-1.4763 a 10.60276,10.60276 0 0 1 3.38751,-0.5187 c 3.89025,0 5.8387,2.01495 5.8387,6.04751 l -0.0199,5.19498 c 0,1.01346 -0.0426,1.9418 -0.12502,2.78502 a 21.147,21.147 0 0 1 2.05751,-0.10507 v 2.41129 h -5.985 c -0.0439,-0.27531 -0.0864,-0.7581 -0.12635,-1.45502 h -0.0412 c -1.28877,1.3034 -2.8462,1.95377 -4.67628,1.95377 z m 1.995,-3.09624 c 0.94031,0 1.77156,-0.37905 2.49375,-1.1438 v -3.53248 c -1.24621,0.12502 -2.28095,0.44688 -3.09624,0.95627 -0.80465,0.49875 -1.20498,1.17971 -1.20498,2.03623 0,0.58254 0.17157,1.01346 0.5187,1.28877 0.34314,0.266 0.77406,0.39501 1.2901,0.39501 z m 0,0"
     id="path8" /><path
     style="opacity:1;fill:#be1c2d;fill-rule:nonzero;stroke:none;stroke-width:1.33;stroke-linecap:butt;stroke-linejoin:miter;stroke-miterlimit:4;stroke-dasharray:none;stroke-dashoffset:0"
     vector-effect="non-scaling-stroke"
     d="m 145.07524,213.69406 c 0.56525,-0.0106 0.9975,-0.0731 1.28744,-0.1862 0.30191,-0.12635 0.53998,-0.37506 0.70623,-0.74879 0.16758,-0.3857 0.25004,-0.98686 0.25004,-1.8088 V 198.8353 c 0,-1.19035 0.0412,-2.1413 0.12502,-2.8462 l -2.36873,0.0825 v -2.43124 h 9.08124 v 2.07746 c -0.5719,0.0319 -1.00814,0.10374 -1.31005,0.22876 -0.28994,0.11438 -0.5187,0.36442 -0.68495,0.74879 -0.16625,0.3724 -0.25004,0.9709 -0.25004,1.78619 v 12.1163 c 0,1.13715 -0.0412,2.06682 -0.12502,2.78502 h 4.24004 c 1.25685,-0.0106 2.2344,-0.45752 2.92999,-1.33 0.70623,-0.88445 1.06001,-2.17189 1.06001,-3.86631 h 2.12002 l -0.18753,7.60627 h -16.87504 z m 0,0"
     id="path9" /><path
     style="opacity:1;fill:#be1c2d;fill-rule:nonzero;stroke:none;stroke-width:1.33;stroke-linecap:butt;stroke-linejoin:miter;stroke-miterlimit:4;stroke-dasharray:none;stroke-dashoffset:0"
     vector-effect="non-scaling-stroke"
     d="m 171.4465,216.30655 c -1.53881,0 -2.8994,-0.34314 -4.07379,-1.01878 -1.17971,-0.6916 -2.09874,-1.66782 -2.76374,-2.92999 -0.65436,-1.25685 -0.97755,-2.73182 -0.97755,-4.42624 0,-1.48029 0.3325,-2.86748 0.9975,-4.15625 a 7.9667,7.9667 0 0 1 2.8063,-3.11752 c 1.20498,-0.78869 2.57621,-1.1837 4.11502,-1.1837 2.04687,0 3.7506,0.60249 5.11119,1.8088 1.3566,1.20365 2.02692,3.20929 2.01628,6.00495 l -10.39129,0.1862 c 0,1.86067 0.35378,3.325 1.06001,4.40629 0.70756,1.07996 1.83939,1.62127 3.40879,1.62127 0.7315,0 1.52152,-0.18753 2.36873,-0.56126 0.84189,-0.3857 1.60531,-0.98686 2.28627,-1.8088 l 1.41246,1.33 c -1.78752,2.5669 -4.24935,3.84503 -7.37618,3.84503 z m 2.8462,-11.03501 c -0.0572,-2.37937 -0.91504,-3.57371 -2.57754,-3.57371 -0.91371,0 -1.64122,0.32718 -2.1812,0.97622 -0.53998,0.6384 -0.89376,1.50689 -1.06001,2.59749 z m 0,0"
     id="path10" /><path
     style="opacity:1;fill:#be1c2d;fill-rule:nonzero;stroke:none;stroke-width:1.33;stroke-linecap:butt;stroke-linejoin:miter;stroke-miterlimit:4;stroke-dasharray:none;stroke-dashoffset:0"
     vector-effect="non-scaling-stroke"
     d="m 193.74893,213.69406 c 0.56658,-0.0106 0.9975,-0.0731 1.28877,-0.1862 0.30191,-0.12635 0.53998,-0.37506 0.70623,-0.74879 0.16625,-0.3857 0.25004,-0.98686 0.25004,-1.8088 v -15.16998 h -1.45502 c -1.24754,0.0319 -2.21312,0.45752 -2.88876,1.28877 -0.665,0.82061 -0.9975,2.05751 -0.9975,3.72001 h -2.09874 l 0.16625,-7.14875 h 19.18126 l 0.1862,7.14875 h -2.07746 c 0,-1.6625 -0.34846,-2.92068 -1.03873,-3.78252 -0.68096,-0.85785 -1.6359,-1.27281 -2.86748,-1.24754 h -1.51886 v 14.83881 c 0,1.41246 -0.0412,2.36341 -0.12502,2.8462 0.6916,-0.0519 1.53748,-0.0825 2.53498,-0.0825 v 2.43124 h -9.24616 z m 0,0"
     id="path11" /><path
     style="opacity:1;fill:#be1c2d;fill-rule:nonzero;stroke:none;stroke-width:1.33;stroke-linecap:butt;stroke-linejoin:miter;stroke-miterlimit:4;stroke-dasharray:none;stroke-dashoffset:0"
     vector-effect="non-scaling-stroke"
     d="m 209.95497,213.75229 c 0.79933,0 1.31404,-0.21812 1.53748,-0.665 0.21812,-0.44156 0.3325,-1.16375 0.3325,-2.16125 v -5.29872 c 0,-0.95627 0.0412,-1.85535 0.12502,-2.70256 l -2.20248,0.10507 v -2.41129 c 1.33,0 2.39932,-0.0878 3.21993,-0.26999 0.83125,-0.19285 1.37788,-0.42028 1.64255,-0.68628 h 1.55743 c 0.0399,0.32319 0.0665,0.73815 0.0825,1.24754 0.0266,0.49875 0.0412,0.99218 0.0412,1.4763 h 0.0625 c 1.43906,-1.93914 2.95659,-2.91004 4.55126,-2.91004 0.80066,0 1.46034,0.22344 1.97505,0.665 0.52402,0.44688 0.78869,1.10124 0.78869,1.97372 0,0.53998 -0.18088,1.0507 -0.53998,1.5162 -0.36309,0.45885 -0.9044,0.68628 -1.62127,0.68628 -0.52934,0 -0.9975,-0.12901 -1.41246,-0.39368 -0.40565,-0.27664 -0.6384,-0.75411 -0.70623,-1.43507 -0.58254,0 -1.18503,0.34846 -1.8088,1.04006 -0.62377,0.67963 -1.03873,1.36059 -1.24621,2.0349 v 5.15508 c 0,1.01346 -0.0532,1.9418 -0.1463,2.78502 0.67564,-0.0678 1.36192,-0.10507 2.05751,-0.10507 v 2.41129 h -8.28856 z m 0,0"
     id="path12" /><path
     style="opacity:1;fill:#be1c2d;fill-rule:nonzero;stroke:none;stroke-width:1.33;stroke-linecap:butt;stroke-linejoin:miter;stroke-miterlimit:4;stroke-dasharray:none;stroke-dashoffset:0"
     vector-effect="non-scaling-stroke"
     d="m 232.6965,216.30655 c -1.53881,0 -2.8994,-0.34314 -4.07379,-1.01878 -1.17971,-0.6916 -2.09874,-1.66782 -2.76374,-2.92999 -0.65436,-1.25685 -0.97755,-2.73182 -0.97755,-4.42624 0,-1.48029 0.3325,-2.86748 0.9975,-4.15625 a 7.9667,7.9667 0 0 1 2.8063,-3.11752 c 1.20498,-0.78869 2.57621,-1.1837 4.11502,-1.1837 2.04687,0 3.7506,0.60249 5.11119,1.8088 1.3566,1.20365 2.02692,3.20929 2.01628,6.00495 l -10.39129,0.1862 c 0,1.86067 0.35378,3.325 1.06001,4.40629 0.70756,1.07996 1.83939,1.62127 3.40879,1.62127 0.7315,0 1.52152,-0.18753 2.36873,-0.56126 0.84189,-0.3857 1.60531,-0.98686 2.28627,-1.8088 l 1.41246,1.33 c -1.78752,2.5669 -4.24935,3.84503 -7.37618,3.84503 z m 2.8462,-11.03501 c -0.0572,-2.37937 -0.91504,-3.57371 -2.57754,-3.57371 -0.91371,0 -1.64122,0.32718 -2.1812,0.97622 -0.53998,0.6384 -0.89376,1.50689 -1.06001,2.59749 z m 0,0"
     id="path13" /><path
     style="opacity:1;fill:#be1c2d;fill-rule:nonzero;stroke:none;stroke-width:1.33;stroke-linecap:butt;stroke-linejoin:miter;stroke-miterlimit:4;stroke-dasharray:none;stroke-dashoffset:0"
     vector-effect="non-scaling-stroke"
     d="m 250.88824,213.69006 c 0.56525,-0.0106 0.9975,-0.0731 1.28744,-0.1862 0.30191,-0.12635 0.53998,-0.37506 0.70623,-0.74879 0.16758,-0.3857 0.25004,-0.98686 0.25004,-1.8088 V 198.8313 c 0,-1.19035 0.0412,-2.1413 0.12502,-2.8462 l -2.36873,0.0825 v -2.43124 l 8.99745,-0.0625 c 2.87812,-0.0266 5.10188,0.4788 6.67128,1.5162 1.57871,1.04006 2.36873,2.71719 2.36873,5.03006 0,1.45502 -0.47215,2.7531 -1.41379,3.88626 -0.92967,1.12119 -2.31686,1.94712 -4.15492,2.47247 v 0.0412 c 0.38437,0.14098 0.77406,0.39501 1.16242,0.76874 0.40033,0.37506 0.73815,0.7847 1.01878,1.22626 l 1.49625,2.20381 c 0.7182,1.12119 1.31404,1.9019 1.78752,2.3275 0.46683,0.41496 1.04937,0.63308 1.74496,0.64372 v 2.09874 h -5.21493 c -0.36442,-0.25004 -0.72219,-0.60781 -1.08129,-1.08129 a 20.30245,20.30245 0 0 1 -1.22626,-1.88993 l -2.34745,-3.8038 c -0.53067,-0.84189 -0.97223,-1.45369 -1.33,-1.82875 h -1.64388 v 3.38751 c 0,1.20498 -0.0412,2.16125 -0.12502,2.86748 0.67564,-0.0519 1.5694,-0.0825 2.68128,-0.0825 v 2.43124 h -9.39246 z m 8.3524,-8.7913 c 1.73166,0 2.97787,-0.37905 3.74129,-1.14247 0.77406,-0.77406 1.16375,-1.98436 1.16375,-3.63622 0,-1.74629 -0.4522,-2.8994 -1.34995,-3.4713 a 5.26813,5.26813 0 0 0 -2.9526,-0.87248 c -0.73682,0 -1.2768,0.16093 -1.61994,0.4788 -0.3325,0.32186 -0.49875,0.9975 -0.49875,2.0349 v 6.48508 c 0.63441,0.0825 1.1438,0.12502 1.5162,0.12502 z m 0,0"
     id="path14" /><path
     style="opacity:1;fill:#be1c2d;fill-rule:nonzero;stroke:none;stroke-width:1.33;stroke-linecap:butt;stroke-linejoin:miter;stroke-miterlimit:4;stroke-dasharray:none;stroke-dashoffset:0"
     vector-effect="non-scaling-stroke"
     d="m 280.13449,216.30655 c -1.55344,0 -2.94063,-0.32718 -4.15625,-0.97622 a 7.17934,7.17934 0 0 1 -2.88876,-2.8063 c -0.69692,-1.23158 -1.04006,-2.66 -1.04006,-4.28127 0,-1.7024 0.3591,-3.21993 1.08129,-4.54993 0.71687,-1.33 1.68378,-2.35942 2.88876,-3.09757 a 7.5145,7.5145 0 0 1 4.00995,-1.12119 c 1.52285,0 2.87812,0.3325 4.07379,0.9975 a 7.1288,7.1288 0 0 1 2.8462,2.82625 c 0.70756,1.2369 1.06001,2.67463 1.06001,4.3225 0,1.74496 -0.3325,3.27845 -0.9975,4.59249 -0.665,1.3034 -1.59467,2.31686 -2.78369,3.03373 -1.19567,0.70623 -2.55626,1.06001 -4.09507,1.06001 z m 0.0612,-2.24504 c 1.14912,0 1.9551,-0.52934 2.41129,-1.59999 0.46683,-1.07996 0.70623,-2.43124 0.70623,-4.05118 0,-1.81412 -0.266,-3.38751 -0.79002,-4.71751 -0.52934,-1.33 -1.36059,-1.995 -2.49375,-1.995 -1.16375,0 -2.00963,0.55062 -2.53498,1.64122 -0.52934,1.09592 -0.79002,2.4472 -0.79002,4.05251 0,1.82875 0.28063,3.40214 0.85253,4.71751 0.56658,1.3034 1.44438,1.95377 2.63872,1.95377 z m 0,0"
     id="path15" /><path
     style="opacity:1;fill:#be1c2d;fill-rule:nonzero;stroke:none;stroke-width:1.33;stroke-linecap:butt;stroke-linejoin:miter;stroke-miterlimit:4;stroke-dasharray:none;stroke-dashoffset:0"
     vector-effect="non-scaling-stroke"
     d="m 297.60569,216.30655 c -0.91371,0 -1.8088,-0.1197 -2.68128,-0.35378 -0.86184,-0.21812 -1.53216,-0.50806 -2.01495,-0.87248 h -0.0213 l 0.0838,0.95627 h -2.39001 l -0.12502,-5.44502 h 2.05751 c 0.0931,0.9709 0.60249,1.78752 1.5162,2.45252 0.92568,0.665 2.05751,0.9975 3.38751,0.9975 0.58254,0 1.08661,-0.13566 1.51753,-0.41629 0.44156,-0.27531 0.665,-0.665 0.665,-1.16375 a 1.23956,1.23956 0 0 0 -0.41496,-0.95494 3.69341,3.69341 0 0 0 -0.9975,-0.6251 47.33071,47.33071 0 0 0 -2.26632,-0.93366 c -1.34463,-0.52535 -2.35809,-0.95627 -3.0324,-1.28877 -0.68096,-0.34314 -1.2901,-0.8512 -1.83008,-1.5162 -0.53998,-0.665 -0.8113,-1.52285 -0.8113,-2.57754 0,-0.85785 0.21413,-1.66782 0.64505,-2.43124 0.44156,-0.77406 1.10656,-1.41379 1.995,-1.91254 0.89908,-0.49875 2.00564,-0.74746 3.325,-0.74746 0.60781,0 1.26749,0.0984 1.97505,0.29127 0.71687,0.19684 1.31936,0.45619 1.80747,0.78869 h 0.0412 l -0.0412,-0.91371 h 2.41129 v 5.58999 h -2.05884 c -0.18221,-1.0906 -0.665,-1.95377 -1.45502,-2.57754 -0.77938,-0.63308 -1.73565,-0.95494 -2.86748,-0.95494 -0.5985,0 -1.09725,0.13965 -1.49625,0.41496 -0.40565,0.266 -0.60382,0.68096 -0.60382,1.24754 0,0.59717 0.22876,1.0374 0.68628,1.33 0.46816,0.2793 1.25286,0.59717 2.34878,0.95494 0.12369,0.0319 0.399,0.11438 0.83125,0.25004 1.78619,0.6384 3.15875,1.38187 4.11369,2.22376 0.96691,0.84588 1.45502,1.95244 1.45502,3.325 0,1.05469 -0.26999,1.94845 -0.8113,2.67995 a 5.0939,5.0939 0 0 1 -2.11603,1.64388 7.3815,7.3815 0 0 1 -2.82625,0.53998 z m 0,0"
     id="path16" /><path
     style="opacity:1;fill:#be1c2d;fill-rule:nonzero;stroke:none;stroke-width:1.33;stroke-linecap:butt;stroke-linejoin:miter;stroke-miterlimit:4;stroke-dasharray:none;stroke-dashoffset:0"
     vector-effect="non-scaling-stroke"
     d="m 313.1965,216.30655 c -1.53881,0 -2.8994,-0.34314 -4.07379,-1.01878 -1.17971,-0.6916 -2.09874,-1.66782 -2.76374,-2.92999 -0.65436,-1.25685 -0.97755,-2.73182 -0.97755,-4.42624 0,-1.48029 0.3325,-2.86748 0.9975,-4.15625 a 7.9667,7.9667 0 0 1 2.8063,-3.11752 c 1.20498,-0.78869 2.57621,-1.1837 4.11502,-1.1837 2.04687,0 3.7506,0.60249 5.11119,1.8088 1.3566,1.20365 2.02692,3.20929 2.01628,6.00495 l -10.39129,0.1862 c 0,1.86067 0.35378,3.325 1.06001,4.40629 0.70756,1.07996 1.83939,1.62127 3.40879,1.62127 0.7315,0 1.52152,-0.18753 2.36873,-0.56126 0.84189,-0.3857 1.60531,-0.98686 2.28627,-1.8088 l 1.41246,1.33 c -1.78752,2.5669 -4.24935,3.84503 -7.37618,3.84503 z m 2.8462,-11.03501 c -0.0572,-2.37937 -0.91504,-3.57371 -2.57754,-3.57371 -0.91371,0 -1.64122,0.32718 -2.1812,0.97622 -0.53998,0.6384 -0.89376,1.50689 -1.06001,2.59749 z m 0,0"
     id="path17" /><path
     style="opacity:1;fill:#be1c2d;fill-rule:nonzero;stroke:none;stroke-width:1.33;stroke-linecap:butt;stroke-linejoin:miter;stroke-miterlimit:4;stroke-dasharray:none;stroke-dashoffset:0"
     vector-effect="non-scaling-stroke"
     d="m 66.58649,245.926 c 0,0.8645 -0.28063,1.49226 -0.83125,1.89259 -0.55594,0.38703 -1.34729,0.58121 -2.37139,0.58121 h -2.76241 v -8.43752 h 2.5137 c 1.0241,0 1.76757,0.1463 2.22509,0.43624 0.45619,0.2926 0.68495,0.7847 0.68495,1.4763 0,0.5719 -0.12369,1.00814 -0.37373,1.30872 a 1.91387,1.91387 0 0 1 -0.93499,0.60249 c 0.55062,0.0838 0.9975,0.29127 1.33,0.62377 0.34314,0.3325 0.5187,0.84189 0.5187,1.5162 z m -1.68511,-3.80114 c 0,-0.4256 -0.14098,-0.72751 -0.41629,-0.89376 -0.26467,-0.17556 -0.74214,-0.26999 -1.43374,-0.26999 h -1.28877 v 2.5137 h 1.24754 c 0.665,0 1.1438,-0.10773 1.43374,-0.3325 0.30191,-0.21679 0.45752,-0.55993 0.45752,-1.01745 z m 0.49875,3.76124 c 0,-0.3591 -0.07315,-0.63308 -0.20748,-0.83125 -0.12502,-0.20748 -0.3325,-0.35245 -0.6251,-0.43624 -0.28994,-0.0931 -0.74746,-0.1463 -1.3699,-0.1463 h -1.43374 v 2.91004 h 1.1438 c 0.71687,0 1.2369,-0.0465 1.55876,-0.14497 a 1.3167,1.3167 0 0 0 0.70623,-0.45752 c 0.15029,-0.21812 0.22876,-0.5187 0.22876,-0.89376 z m 0,0"
     id="path18" /><path
     style="opacity:1;fill:#be1c2d;fill-rule:nonzero;stroke:none;stroke-width:1.33;stroke-linecap:butt;stroke-linejoin:miter;stroke-miterlimit:4;stroke-dasharray:none;stroke-dashoffset:0"
     vector-effect="non-scaling-stroke"
     d="m 84.1604,248.3998 -0.58121,-0.68628 c -0.41496,0.3325 -0.82061,0.56126 -1.20498,0.68628 -0.38969,0.12502 -0.80598,0.1862 -1.24754,0.1862 -0.91371,0 -1.64122,-0.2128 -2.1812,-0.64372 -0.53067,-0.44156 -0.79002,-1.0241 -0.79002,-1.74496 0,-0.3591 0.0532,-0.67032 0.16625,-0.93499 0.12502,-0.26068 0.30191,-0.50939 0.53998,-0.74879 0.25004,-0.23408 0.67032,-0.52402 1.26749,-0.87248 a 6.36405,6.36405 0 0 1 -0.7049,-0.95627 1.8886,1.8886 0 0 1 -0.2926,-0.97622 c 0,-1.28877 0.75411,-1.93249 2.26632,-1.93249 0.665,0 1.17306,0.1596 1.53748,0.47747 0.3591,0.3059 0.53998,0.69559 0.53998,1.16375 0,0.45752 -0.1463,0.88312 -0.43624,1.26749 -0.29127,0.37373 -0.7581,0.7581 -1.39251,1.1438 l 2.01628,2.38868 c 0.3724,-0.44156 0.64372,-0.9975 0.80997,-1.6625 l 0.93499,0.25004 c -0.24871,0.9443 -0.6118,1.67314 -1.07996,2.1812 l 1.1837,1.41379 z m -1.74363,-6.96122 a 0.76608,0.76608 0 0 0 -0.26999,-0.60382 c -0.16625,-0.16625 -0.43092,-0.24871 -0.79002,-0.24871 -0.37373,0 -0.65968,0.0984 -0.8512,0.29127 -0.19817,0.18088 -0.2926,0.43624 -0.2926,0.76874 0,0.22344 0.08379,0.45752 0.25004,0.70623 0.16625,0.2394 0.35378,0.48811 0.56126,0.74879 0.44156,-0.23408 0.77938,-0.49875 1.01878,-0.79002 0.24871,-0.29127 0.37373,-0.58254 0.37373,-0.87248 z m -1.6625,2.92999 c -0.43092,0.2793 -0.74214,0.50939 -0.93499,0.68495 -0.19684,0.16625 -0.3325,0.34314 -0.41629,0.52003 -0.07182,0.16625 -0.10374,0.38969 -0.10374,0.665 0,0.41629 0.1729,0.7581 0.52003,1.01878 0.34314,0.26467 0.79534,0.39368 1.35128,0.39368 0.46683,0 0.8512,-0.0665 1.14247,-0.20748 0.29127,-0.15029 0.50939,-0.29526 0.665,-0.43624 z m 0,0"
     id="path19" /><path
     style="opacity:1;fill:#be1c2d;fill-rule:nonzero;stroke:none;stroke-width:1.33;stroke-linecap:butt;stroke-linejoin:miter;stroke-miterlimit:4;stroke-dasharray:none;stroke-dashoffset:0"
     vector-effect="non-scaling-stroke"
     d="m 103.11649,245.926 c 0,0.8645 -0.28063,1.49226 -0.83125,1.89259 -0.55594,0.38703 -1.34729,0.58121 -2.37139,0.58121 h -2.76241 v -8.43752 h 2.5137 c 1.0241,0 1.76757,0.1463 2.22509,0.43624 0.45619,0.2926 0.68495,0.7847 0.68495,1.4763 0,0.5719 -0.12369,1.00814 -0.37373,1.30872 a 1.91387,1.91387 0 0 1 -0.93499,0.60249 c 0.55062,0.0838 0.9975,0.29127 1.33,0.62377 0.34314,0.3325 0.5187,0.84189 0.5187,1.5162 z m -1.68511,-3.80114 c 0,-0.4256 -0.14098,-0.72751 -0.41629,-0.89376 -0.26467,-0.17556 -0.74214,-0.26999 -1.43374,-0.26999 h -1.28877 v 2.5137 h 1.24754 c 0.665,0 1.1438,-0.10773 1.43374,-0.3325 0.30191,-0.21679 0.45752,-0.55993 0.45752,-1.01745 z m 0.49875,3.76124 c 0,-0.3591 -0.0732,-0.63308 -0.20748,-0.83125 -0.12502,-0.20748 -0.3325,-0.35245 -0.6251,-0.43624 -0.28994,-0.0931 -0.74746,-0.1463 -1.3699,-0.1463 h -1.43374 v 2.91004 h 1.1438 c 0.71687,0 1.2369,-0.0465 1.55876,-0.14497 a 1.3167,1.3167 0 0 0 0.70623,-0.45752 c 0.15029,-0.21812 0.22876,-0.5187 0.22876,-0.89376 z m 0,0"
     id="path20" /><path
     style="opacity:1;fill:#be1c2d;fill-rule:nonzero;stroke:none;stroke-width:1.33;stroke-linecap:butt;stroke-linejoin:miter;stroke-miterlimit:4;stroke-dasharray:none;stroke-dashoffset:0"
     vector-effect="non-scaling-stroke"
     d="m 127.58142,248.3998 2.88876,-8.43752 h 1.45502 l 2.88876,8.43752 h -1.1837 l -0.72884,-2.20248 h -3.44869 l -0.72751,2.20248 z m 2.20381,-3.22126 h 2.76374 l -1.37123,-4.11502 z m 0,0"
     id="path21" /><path
     style="opacity:1;fill:#be1c2d;fill-rule:nonzero;stroke:none;stroke-width:1.33;stroke-linecap:butt;stroke-linejoin:miter;stroke-miterlimit:4;stroke-dasharray:none;stroke-dashoffset:0"
     vector-effect="non-scaling-stroke"
     d="m 151.17348,248.3998 -3.8038,-7.25249 v 7.25249 h -1.10124 v -8.43752 h 1.6625 l 3.49125,6.63005 v -6.63005 h 1.08129 v 8.43752 z m 0,0"
     id="path22" /><path
     style="opacity:1;fill:#be1c2d;fill-rule:nonzero;stroke:none;stroke-width:1.33;stroke-linecap:butt;stroke-linejoin:miter;stroke-miterlimit:4;stroke-dasharray:none;stroke-dashoffset:0"
     vector-effect="non-scaling-stroke"
     d="m 170.8219,244.18104 c 0,1.02942 -0.13965,1.8487 -0.41496,2.4738 -0.266,0.6118 -0.67564,1.05336 -1.22626,1.33 -0.55594,0.27797 -1.34064,0.41496 -2.34745,0.41496 h -2.14263 v -8.43752 h 2.12002 c 0.98154,0 1.7556,0.1463 2.3275,0.43624 0.56658,0.28063 0.98686,0.72219 1.26749,1.33 0.27531,0.61313 0.41629,1.42975 0.41629,2.45252 z m -1.20498,-0.0199 c 0,-0.80066 -0.0931,-1.4231 -0.26999,-1.87131 a 1.81944,1.81944 0 0 0 -0.89376,-0.9975 c -0.40432,-0.20748 -0.9709,-0.31122 -1.7024,-0.31122 h -0.93632 v 6.39996 h 0.93499 c 0.7315,0 1.29941,-0.10374 1.70373,-0.31122 0.41629,-0.20748 0.71288,-0.52934 0.89376,-0.97622 0.17689,-0.45752 0.26999,-1.10257 0.26999,-1.93382 z m 0,0"
     id="path23" /><path
     style="opacity:1;fill:#be1c2d;fill-rule:nonzero;stroke:none;stroke-width:1.33;stroke-linecap:butt;stroke-linejoin:miter;stroke-miterlimit:4;stroke-dasharray:none;stroke-dashoffset:0"
     vector-effect="non-scaling-stroke"
     d="m 196.09044,248.3998 v -8.43752 h 5.1737 v 1.01878 h -4.0299 v 2.45252 h 3.44736 v 1.0374 h -3.44736 v 2.91004 h 4.0299 v 1.01878 z m 0,0"
     id="path24" /><path
     style="opacity:1;fill:#be1c2d;fill-rule:nonzero;stroke:none;stroke-width:1.33;stroke-linecap:butt;stroke-linejoin:miter;stroke-miterlimit:4;stroke-dasharray:none;stroke-dashoffset:0"
     vector-effect="non-scaling-stroke"
     d="m 216.525,248.3998 h -1.51886 l -2.63872,-8.43752 h 1.18503 l 2.24504,7.35756 2.26499,-7.35756 h 1.16375 z m 0,0"
     id="path25" /><path
     style="opacity:1;fill:#be1c2d;fill-rule:nonzero;stroke:none;stroke-width:1.33;stroke-linecap:butt;stroke-linejoin:miter;stroke-miterlimit:4;stroke-dasharray:none;stroke-dashoffset:0"
     vector-effect="non-scaling-stroke"
     d="m 230.68044,248.3998 v -8.43752 h 5.1737 v 1.01878 h -4.0299 v 2.45252 h 3.44736 v 1.0374 h -3.44736 v 2.91004 h 4.0299 v 1.01878 z m 0,0"
     id="path26" /><path
     style="opacity:1;fill:#be1c2d;fill-rule:nonzero;stroke:none;stroke-width:1.33;stroke-linecap:butt;stroke-linejoin:miter;stroke-miterlimit:4;stroke-dasharray:none;stroke-dashoffset:0"
     vector-effect="non-scaling-stroke"
     d="m 252.65348,248.3998 -3.8038,-7.25249 v 7.25249 h -1.10124 v -8.43752 h 1.6625 l 3.49125,6.63005 v -6.63005 h 1.08129 v 8.43752 z m 0,0"
     id="path27" /><path
     style="opacity:1;fill:#be1c2d;fill-rule:nonzero;stroke:none;stroke-width:1.33;stroke-linecap:butt;stroke-linejoin:miter;stroke-miterlimit:4;stroke-dasharray:none;stroke-dashoffset:0"
     vector-effect="non-scaling-stroke"
     d="m 269.3154,240.98106 v 7.41874 h -1.12119 v -7.41874 h -2.8063 v -1.01878 h 6.71251 v 1.01878 z m 0,0"
     id="path28" /><path
     style="opacity:1;fill:#be1c2d;fill-rule:nonzero;stroke:none;stroke-width:1.33;stroke-linecap:butt;stroke-linejoin:miter;stroke-miterlimit:4;stroke-dasharray:none;stroke-dashoffset:0"
     vector-effect="non-scaling-stroke"
     d="m 289.17422,246.09358 c 0,0.78869 -0.266,1.40714 -0.79002,1.8487 -0.51471,0.43092 -1.2635,0.64505 -2.24504,0.64505 -0.76342,0 -1.40182,-0.13566 -1.91121,-0.39501 -0.51471,-0.27531 -0.931,-0.69692 -1.24754,-1.26882 l 0.91504,-0.60382 c 0.48279,0.83125 1.21562,1.24754 2.20248,1.24754 0.60781,0 1.08129,-0.12502 1.41379,-0.37373 a 1.19567,1.19567 0 0 0 0.5187,-1.01878 1.11454,1.11454 0 0 0 -0.16625,-0.62377 1.45635,1.45635 0 0 0 -0.43624,-0.43624 2.85418,2.85418 0 0 0 -0.62377,-0.26999 5.60994,5.60994 0 0 0 -0.7049,-0.20748 c -0.41629,-0.10906 -0.80598,-0.2128 -1.16508,-0.31255 a 3.70405,3.70405 0 0 1 -0.93499,-0.41496 c -0.266,-0.17689 -0.47215,-0.399 -0.62377,-0.665 -0.13832,-0.25802 -0.20748,-0.60648 -0.20748,-1.0374 0,-0.74879 0.23408,-1.33532 0.70623,-1.76624 0.48412,-0.44156 1.20631,-0.665 2.16125,-0.665 0.77406,0 1.3832,0.14497 1.82875,0.43624 0.45752,0.2793 0.81662,0.6384 1.08129,1.07996 l -0.89376,0.64505 a 2.46449,2.46449 0 0 0 -0.8113,-0.85253 c -0.3059,-0.20748 -0.7049,-0.31122 -1.20498,-0.31122 -0.53998,0 -0.96558,0.12369 -1.26749,0.3724 -0.3059,0.2394 -0.45619,0.56259 -0.45619,0.97755 0,0.20881 0.0399,0.38969 0.12369,0.54131 0.0931,0.13965 0.22876,0.26467 0.39501,0.3724 0.17689,0.0998 0.39501,0.18221 0.64372,0.25004 0.25004,0.0731 0.54131,0.1463 0.87381,0.22876 0.37373,0.0984 0.7315,0.20216 1.07996,0.31255 0.34314,0.11305 0.65037,0.26467 0.91504,0.45619 0.25935,0.18221 0.46151,0.41629 0.60249,0.70623 0.15029,0.28063 0.22876,0.64505 0.22876,1.10257 z m 0,0"
     id="path29" /><path
     style="opacity:1;fill:#be1c2d;fill-rule:nonzero;stroke:none;stroke-width:1.33;stroke-linecap:butt;stroke-linejoin:miter;stroke-miterlimit:4;stroke-dasharray:none;stroke-dashoffset:0"
     vector-effect="non-scaling-stroke"
     d="m 129.28284,133.81371 c -8.79529,8.2726 -27.56159,16.16349 -37.14158,5.45034 -2.75842,-3.08028 -4.5619,-6.75906 -5.9584,-10.62404 -0.86317,-2.3807 -1.88195,-4.7082 -2.60813,-7.13412 -0.40565,-1.34995 -0.39501,-6.2244 -2.25036,-4.58717 -1.07996,0.95627 -1.02809,6.09406 -1.1837,7.54376 -0.58254,5.36655 -1.41379,12.236 3.0324,16.28186 2.98319,2.72251 10.18913,5.76156 14.17381,7.06097 5.66314,1.84471 13.99692,1.75028 19.49248,-0.60781 3.30505,-1.41379 15.92941,-7.98 12.44348,-13.38379"
     id="path30" /><path
     style="opacity:1;fill:#be1c2d;fill-rule:nonzero;stroke:none;stroke-width:1.33;stroke-linecap:butt;stroke-linejoin:miter;stroke-miterlimit:4;stroke-dasharray:none;stroke-dashoffset:0"
     vector-effect="non-scaling-stroke"
     d="m 91.7599,133.78931 c -2.61478,-6.00096 -4.52599,-14.13657 -1.56541,-20.3357 2.72783,-5.70304 8.49471,-7.03304 13.965,-8.99745 0.45752,-0.1596 8.18349,-2.8462 7.96936,-3.31436 -0.76874,-1.65186 -7.01309,-3.3516 -8.61308,-3.82375 -7.87094,-2.34346 -15.78311,-0.7315 -18.51094,7.84434 -0.60249,1.89658 -0.3325,31.59814 6.75374,28.62692"
     id="path31" /><path
     style="opacity:1;fill:#be1c2d;fill-rule:nonzero;stroke:none;stroke-width:1.33;stroke-linecap:butt;stroke-linejoin:miter;stroke-miterlimit:4;stroke-dasharray:none;stroke-dashoffset:0"
     vector-effect="non-scaling-stroke"
     d="m 93.04974,130.85472 c 6.13662,2.79566 17.86722,7.48125 23.7272,2.06283 4.67096,-4.31718 3.14811,-13.46093 0.55594,-18.50562 -0.98686,-1.9285 -6.68059,-6.03155 -6.96122,-7.46529 -0.266,-1.34064 2.62276,-4.17221 3.6309,-4.6284 3.14279,-1.44039 7.11284,0.96026 9.32064,3.1787 5.44502,5.4663 2.98718,13.52876 0.67564,19.90877 -2.06283,5.68841 -4.03123,10.63468 -10.25031,11.88089 -7.39347,1.48561 -15.78843,-0.37373 -20.69879,-6.43188"
     id="path32" /><path
     style="opacity:1;fill:#be1c2d;fill-rule:nonzero;stroke:none;stroke-width:1.33;stroke-linecap:butt;stroke-linejoin:miter;stroke-miterlimit:4;stroke-dasharray:none;stroke-dashoffset:0"
     vector-effect="non-scaling-stroke"
     d="m 94.97223,135.77844 c 21.29064,9.20626 34.56537,-3.19998 32.96006,-25.08779 10.2144,11.50184 0.12369,23.62745 -10.96319,29.1137 -4.7747,2.36474 -11.69868,3.41411 -17.15434,2.61877 -3.9368,-0.56658 -9.93377,-8.54126 -4.8412,-6.64468"
     id="path33" /><path
     style="opacity:1;fill:#be1c2d;fill-rule:nonzero;stroke:none;stroke-width:1.33;stroke-linecap:butt;stroke-linejoin:miter;stroke-miterlimit:4;stroke-dasharray:none;stroke-dashoffset:0"
     vector-effect="non-scaling-stroke"
     d="m 102.9502,131.69033 c -6.68724,-4.10438 -14.24696,-12.22403 -7.7672,-19.63745 0.16492,-0.1862 0.02527,-0.4788 -0.22477,-0.47348 -5.79215,0.0931 -5.44369,11.2651 -3.8703,15.05161 1.3566,3.26781 7.76188,7.15407 11.81439,5.57403 a 0.29127,0.29127 0 0 0 0.0465,-0.51471"
     id="path34" /><path
     style="opacity:1;fill:#be1c2d;fill-rule:nonzero;stroke:none;stroke-width:1.33;stroke-linecap:butt;stroke-linejoin:miter;stroke-miterlimit:4;stroke-dasharray:none;stroke-dashoffset:0"
     vector-effect="non-scaling-stroke"
     d="m 97.07498,119.84531 c 1.74496,-1.55344 4.12433,-2.52035 6.25499,-3.34628 1.83407,-0.71155 3.7772,-1.28345 5.75092,-1.38187 2.8063,-0.13965 5.02341,2.84221 6.21376,4.91036 0.25935,0.4522 0.95627,0.23275 0.90839,-0.28595 -0.72219,-8.16221 -7.18998,-16.4787 -16.2393,-11.37815 -2.94063,1.65718 -4.45816,4.57653 -5.13912,7.78848 -0.25403,1.18902 -0.399,2.4871 -0.29526,3.70405 0.15561,1.7556 0.84056,1.74496 1.995,0.52402 a 8.9642,8.9642 0 0 1 0.55062,-0.53466"
     id="path35" /><path
     style="opacity:1;fill:#be1c2d;fill-rule:nonzero;stroke:none;stroke-width:1.33;stroke-linecap:butt;stroke-linejoin:miter;stroke-miterlimit:4;stroke-dasharray:none;stroke-dashoffset:0"
     vector-effect="non-scaling-stroke"
     d="m 98.18754,123.87 c 0.97622,0.68495 2.24903,1.14114 3.33963,1.61994 1.0906,0.47215 2.19317,0.90839 3.31569,1.29808 1.98436,0.69692 4.19748,1.41379 6.33213,1.2635 1.70905,-0.1197 2.74911,-1.1438 2.53631,-2.91536 a 7.71666,7.71666 0 0 0 -0.38038,-1.56408 15.64745,15.64745 0 0 0 -0.36309,-0.92967 c -0.0665,-0.15029 -0.34314,-1.00282 -0.48811,-1.03873 5.28276,1.2369 3.96872,7.1953 -0.14098,9.15971 -2.52966,1.21562 -5.78151,0.71155 -8.33245,-0.16625 -2.69192,-0.92568 -5.6259,-2.66532 -6.71251,-5.45034 a 6.17918,6.17918 0 0 1 -0.27531,-0.91504 c -0.03724,-0.15561 -0.06783,-0.32718 0.0053,-0.47215 0.1197,-0.24871 0.47747,-0.29127 0.7315,-0.17689 0.15694,0.0678 0.2926,0.18221 0.4256,0.28063 0.0066,0 0.0066,0 0.0066,0.005"
     id="path36" /><path
     style="opacity:1;fill:#be1c2d;fill-rule:nonzero;stroke:none;stroke-width:1.33;stroke-linecap:butt;stroke-linejoin:miter;stroke-miterlimit:4;stroke-dasharray:none;stroke-dashoffset:0"
     vector-effect="non-scaling-stroke"
     d="m 105.3832,125.14012 c -0.82061,-3.05501 -0.59185,-7.65814 3.74129,-5.3466 -6.72315,-5.5594 -10.906,3.05501 -3.74129,5.3466"
     id="path37" /><path
     style="opacity:1;fill:#be1c2d;fill-rule:nonzero;stroke:none;stroke-width:1.33;stroke-linecap:butt;stroke-linejoin:miter;stroke-miterlimit:4;stroke-dasharray:none;stroke-dashoffset:0"
     vector-effect="non-scaling-stroke"
     d="m 108.04556,125.14212 c 1.41911,-1.22626 1.73033,-2.85817 -0.33782,-3.81311 5.28409,-0.56126 3.45002,7.5278 0.33782,3.81311"
     id="path38" /><path
     style="opacity:1;fill:#be1c2d;fill-rule:nonzero;stroke:none;stroke-width:1.33;stroke-linecap:butt;stroke-linejoin:miter;stroke-miterlimit:4;stroke-dasharray:none;stroke-dashoffset:0"
     vector-effect="non-scaling-stroke"
     d="m 133.62829,119.14348 c -1.41246,9.36719 -0.6916,25.59718 -10.52562,29.84254 -9.35655,4.04187 -21.17626,3.18402 -30.1112,-1.20099 -1.34596,-0.65436 -8.04783,-3.42342 -10.92595,-4.60845 -0.55594,-0.22743 -1.07065,0.39501 -0.75411,0.9044 1.19567,1.90722 4.8944,5.45034 16.35501,9.11848 7.30569,2.33681 15.14471,1.67181 22.59005,0.23275 8.18748,-1.57871 13.6059,-3.60962 18.28218,-10.63468 6.76438,-10.17184 2.82625,-15.35219 -4.91036,-23.65405"
     id="path39" /><path
     style="opacity:1;fill:#be1c2d;fill-rule:nonzero;stroke:none;stroke-width:1.33;stroke-linecap:butt;stroke-linejoin:miter;stroke-miterlimit:4;stroke-dasharray:none;stroke-dashoffset:0"
     vector-effect="non-scaling-stroke"
     d="m 141.37411,125.76708 c 2.8329,-6.35474 10.12662,-14.14189 3.67346,-21.64442 -2.88876,-3.36091 -22.64059,-13.97564 -22.7031,-5.80279 -0.0213,3.04969 8.37501,12.81189 9.92845,15.31628 1.24089,1.99899 8.39496,13.47556 9.10119,12.1296"
     id="path40" /><path
     style="opacity:1;fill:#be1c2d;fill-rule:nonzero;stroke:none;stroke-width:1.33;stroke-linecap:butt;stroke-linejoin:miter;stroke-miterlimit:4;stroke-dasharray:none;stroke-dashoffset:0"
     vector-effect="non-scaling-stroke"
     d="m 123.36767,103.25841 c -5.0806,-10.84216 -14.12593,-22.81748 -27.72784,-14.95718 -9.11848,5.27345 -13.85062,13.38911 -15.51844,23.03161 -0.05719,0.32718 0.41097,0.4522 0.52402,0.13965 3.16008,-8.66628 7.66878,-17.36847 18.05475,-16.16748 5.89589,0.68495 20.22531,4.03123 24.66751,7.9534"
     id="path41" /><path
     style="opacity:1;fill:#be1c2d;fill-rule:nonzero;stroke:none;stroke-width:1.33;stroke-linecap:butt;stroke-linejoin:miter;stroke-miterlimit:4;stroke-dasharray:none;stroke-dashoffset:0"
     vector-effect="non-scaling-stroke"
     d="m 78.01388,103.65191 a 1.15178,1.15178 0 0 1 1.43374,1.28877 c -0.84588,5.60595 -2.50838,11.26909 -2.79965,16.8112 -0.28063,5.41975 1.14779,11.27973 2.40464,16.71411 0.2394,1.03341 -0.92435,1.81279 -1.78619,1.19966 -6.56222,-4.655 -12.34506,-11.65213 -14.2576,-19.41933 -2.26898,-9.24749 7.07693,-14.41188 15.00506,-16.59441"
     id="path42" /><path
     style="opacity:1;fill:#be1c2d;fill-rule:nonzero;stroke:none;stroke-width:1.33;stroke-linecap:butt;stroke-linejoin:miter;stroke-miterlimit:4;stroke-dasharray:none;stroke-dashoffset:0"
     vector-effect="non-scaling-stroke"
     d="m 68.16858,135.32637 c 2.99782,7.2884 5.1737,17.36847 9.74624,23.7006 2.10406,2.91536 3.03905,2.41129 7.0756,3.69474 2.2344,0.71687 5.17503,1.39118 6.93063,3.06432 1.49625,1.42842 1.05469,3.56972 3.2984,4.42092 5.57536,2.12534 1.23291,-4.51402 -0.01995,-6.21243 -3.45401,-4.69224 -7.48657,-9.04001 -11.305,-13.42502 -3.1521,-3.62159 -6.24435,-7.3416 -9.55339,-10.81689 -0.92036,-0.96691 -6.26031,-5.62191 -6.17253,-4.42624"
     id="path43" /><path
     style="opacity:1;fill:#be1c2d;fill-rule:nonzero;stroke:none;stroke-width:1.33;stroke-linecap:butt;stroke-linejoin:miter;stroke-miterlimit:4;stroke-dasharray:none;stroke-dashoffset:0"
     vector-effect="non-scaling-stroke"
     d="m 91.34429,152.73584 c 12.33309,3.94744 23.1553,5.33995 35.73311,1.13183 10.45779,-3.49657 3.97936,1.89658 -0.8512,5.78816 -5.17503,4.16556 -11.36884,6.8628 -18.11726,7.36155 -5.92249,0.43624 -9.91781,-2.10938 -13.74688,-6.51035 -0.45752,-0.52402 -6.37469,-8.84716 -3.0191,-7.77252"
     id="path44" /><path
     style="opacity:1;fill:#be1c2d;fill-rule:nonzero;stroke:none;stroke-width:1.33;stroke-linecap:butt;stroke-linejoin:miter;stroke-miterlimit:4;stroke-dasharray:none;stroke-dashoffset:0"
     vector-effect="non-scaling-stroke"
     d="m 266.35417,133.81371 c -8.80194,8.2726 -27.56691,16.16349 -37.14158,5.45034 -2.75842,-3.08028 -4.56722,-6.75906 -5.96505,-10.62404 -0.86184,-2.3807 -1.88062,-4.7082 -2.6068,-7.13412 -0.40565,-1.34995 -0.39501,-6.2244 -2.25036,-4.58717 -1.07996,0.95627 -1.0241,6.09406 -1.17971,7.54376 -0.58653,5.36655 -1.41778,12.236 3.02974,16.28186 2.98718,2.72251 10.1878,5.76156 14.17248,7.06097 5.66846,1.84471 13.99559,1.75028 19.4978,-0.60781 3.30372,-1.41379 15.92941,-7.98 12.44348,-13.38379"
     id="path45" /><path
     style="opacity:1;fill:#be1c2d;fill-rule:nonzero;stroke:none;stroke-width:1.33;stroke-linecap:butt;stroke-linejoin:miter;stroke-miterlimit:4;stroke-dasharray:none;stroke-dashoffset:0"
     vector-effect="non-scaling-stroke"
     d="m 228.81458,133.78931 c -2.60813,-6.00096 -4.52466,-14.13657 -1.55876,-20.3357 2.7265,-5.70304 8.48939,-7.03304 13.965,-8.99745 0.45752,-0.1596 8.18216,-2.8462 7.96404,-3.31436 -0.76874,-1.65186 -7.0091,-3.3516 -8.61308,-3.82375 -7.86562,-2.34346 -15.78311,-0.7315 -18.51094,7.84434 -0.60249,1.89658 -0.3325,31.59814 6.75374,28.62692"
     id="path46" /><path
     style="opacity:1;fill:#be1c2d;fill-rule:nonzero;stroke:none;stroke-width:1.33;stroke-linecap:butt;stroke-linejoin:miter;stroke-miterlimit:4;stroke-dasharray:none;stroke-dashoffset:0"
     vector-effect="non-scaling-stroke"
     d="m 230.10475,130.85472 c 6.14061,2.79566 17.87254,7.48125 23.7272,2.06283 4.67096,-4.31718 3.14811,-13.46093 0.55594,-18.50562 -0.98686,-1.9285 -6.68059,-6.03155 -6.96122,-7.46529 -0.266,-1.34064 2.62276,-4.17221 3.63622,-4.6284 3.14279,-1.44039 7.10752,0.96026 9.31532,3.1787 5.44502,5.4663 2.98718,13.52876 0.67564,19.90877 -2.05751,5.68841 -4.02724,10.63468 -10.24499,11.88089 -7.39879,1.48561 -15.79375,-0.37373 -20.70411,-6.43188"
     id="path47" /><path
     style="opacity:1;fill:#be1c2d;fill-rule:nonzero;stroke:none;stroke-width:1.33;stroke-linecap:butt;stroke-linejoin:miter;stroke-miterlimit:4;stroke-dasharray:none;stroke-dashoffset:0"
     vector-effect="non-scaling-stroke"
     d="m 232.02824,135.77844 c 21.29064,9.20626 34.56537,-3.19998 32.96405,-25.08779 10.20908,11.50184 0.1197,23.62745 -10.96186,29.1137 -4.78002,2.36474 -11.704,3.41411 -17.15966,2.61877 -3.93813,-0.56658 -9.93377,-8.54126 -4.8412,-6.64468"
     id="path48" /><path
     style="opacity:1;fill:#be1c2d;fill-rule:nonzero;stroke:none;stroke-width:1.33;stroke-linecap:butt;stroke-linejoin:miter;stroke-miterlimit:4;stroke-dasharray:none;stroke-dashoffset:0"
     vector-effect="non-scaling-stroke"
     d="m 240.01488,131.69033 c -6.68059,-4.10438 -14.24031,-12.22403 -7.76188,-19.63745 0.16093,-0.1862 0.0213,-0.4788 -0.22876,-0.47348 -5.78683,0.0931 -5.44369,11.2651 -3.8703,15.05161 1.36192,3.26781 7.7672,7.15407 11.81971,5.57403 a 0.28994,0.28994 0 0 0 0.0412,-0.51471"
     id="path49" /><path
     style="opacity:1;fill:#be1c2d;fill-rule:nonzero;stroke:none;stroke-width:1.33;stroke-linecap:butt;stroke-linejoin:miter;stroke-miterlimit:4;stroke-dasharray:none;stroke-dashoffset:0"
     vector-effect="non-scaling-stroke"
     d="m 234.12099,119.84531 c 1.74496,-1.55344 4.12433,-2.52035 6.25499,-3.34628 1.83407,-0.71155 3.7772,-1.28345 5.75092,-1.38187 2.81029,-0.13965 5.02341,2.84221 6.21376,4.91036 0.25935,0.4522 0.95494,0.23275 0.90839,-0.28595 -0.72219,-8.16221 -7.18998,-16.4787 -16.2393,-11.37815 -2.94196,1.65718 -4.45284,4.57653 -5.13912,7.78848 -0.24871,1.18902 -0.399,2.4871 -0.29127,3.70405 0.15162,1.7556 0.84189,1.74496 1.98968,0.52402 0.17689,-0.18221 0.3591,-0.36309 0.55195,-0.53466"
     id="path50" /><path
     style="opacity:1;fill:#be1c2d;fill-rule:nonzero;stroke:none;stroke-width:1.33;stroke-linecap:butt;stroke-linejoin:miter;stroke-miterlimit:4;stroke-dasharray:none;stroke-dashoffset:0"
     vector-effect="non-scaling-stroke"
     d="m 235.25754,123.87 c 0.9709,0.68495 2.24504,1.14114 3.34096,1.61994 1.08661,0.47215 2.18785,0.90839 3.30904,1.29808 1.98569,0.69692 4.2028,1.41379 6.33346,1.2635 1.7157,-0.1197 2.7531,-1.1438 2.5403,-2.91536 a 7.39746,7.39746 0 0 0 -0.38437,-1.56408 12.74539,12.74539 0 0 0 -0.36309,-0.92967 c -0.0625,-0.15029 -0.34314,-1.00282 -0.48279,-1.03873 5.27744,1.2369 3.96872,7.1953 -0.14098,9.15971 -2.53498,1.21562 -5.78284,0.71155 -8.3391,-0.16625 -2.68527,-0.92568 -5.62058,-2.66532 -6.71118,-5.45034 a 6.17918,6.17918 0 0 1 -0.27531,-0.91504 c -0.0372,-0.15561 -0.0625,-0.32718 0.005,-0.47215 0.12369,-0.24871 0.47747,-0.29127 0.7315,-0.17689 0.15694,0.0678 0.2926,0.18221 0.43225,0.28063 l 0.004,0.005"
     id="path51" /><path
     style="opacity:1;fill:#be1c2d;fill-rule:nonzero;stroke:none;stroke-width:1.33;stroke-linecap:butt;stroke-linejoin:miter;stroke-miterlimit:4;stroke-dasharray:none;stroke-dashoffset:0"
     vector-effect="non-scaling-stroke"
     d="m 242.43921,125.14012 c -0.81529,-3.05501 -0.58786,-7.65814 3.73996,-5.3466 -6.7165,-5.5594 -10.90467,3.05501 -3.73996,5.3466"
     id="path52" /><path
     style="opacity:1;fill:#be1c2d;fill-rule:nonzero;stroke:none;stroke-width:1.33;stroke-linecap:butt;stroke-linejoin:miter;stroke-miterlimit:4;stroke-dasharray:none;stroke-dashoffset:0"
     vector-effect="non-scaling-stroke"
     d="m 245.1129,125.14212 c 1.41645,-1.22626 1.729,-2.85817 -0.33915,-3.81311 5.28409,-0.56126 3.45002,7.5278 0.33782,3.81311"
     id="path53" /><path
     style="opacity:1;fill:#be1c2d;fill-rule:nonzero;stroke:none;stroke-width:1.33;stroke-linecap:butt;stroke-linejoin:miter;stroke-miterlimit:4;stroke-dasharray:none;stroke-dashoffset:0"
     vector-effect="non-scaling-stroke"
     d="m 270.6743,119.14348 c -1.40714,9.36719 -0.68495,25.59718 -10.5203,29.84254 -9.36187,4.04187 -21.18158,3.18402 -30.11652,-1.20099 -1.34596,-0.65436 -8.04783,-3.42342 -10.92595,-4.60845 -0.55594,-0.22743 -1.07065,0.39501 -0.74879,0.9044 1.19035,1.90722 4.88908,5.45034 16.34969,9.11848 7.30968,2.33681 15.1487,1.67181 22.59005,0.23275 8.1928,-1.57871 13.6059,-3.60962 18.28218,-10.63468 6.7697,-10.17184 2.82625,-15.35219 -4.91036,-23.65405"
     id="path54" /><path
     style="opacity:1;fill:#be1c2d;fill-rule:nonzero;stroke:none;stroke-width:1.33;stroke-linecap:butt;stroke-linejoin:miter;stroke-miterlimit:4;stroke-dasharray:none;stroke-dashoffset:0"
     vector-effect="non-scaling-stroke"
     d="m 278.42912,125.76708 c 2.8329,-6.35474 10.12529,-14.14189 3.67346,-21.64442 -2.88876,-3.36091 -22.6366,-13.97564 -22.69778,-5.80279 -0.0266,3.04969 8.36836,12.81189 9.9218,15.31628 1.24222,1.99899 8.40161,13.47556 9.10252,12.1296"
     id="path55" /><path
     style="opacity:1;fill:#be1c2d;fill-rule:nonzero;stroke:none;stroke-width:1.33;stroke-linecap:butt;stroke-linejoin:miter;stroke-miterlimit:4;stroke-dasharray:none;stroke-dashoffset:0"
     vector-effect="non-scaling-stroke"
     d="m 260.429,103.25841 c -5.08725,-10.84216 -14.12726,-22.81748 -27.73316,-14.95718 -9.11316,5.27345 -13.8453,13.38911 -15.51844,23.03161 -0.0572,0.32718 0.40964,0.4522 0.52402,0.13965 3.15875,-8.66628 7.6741,-17.36847 18.05874,-16.16748 5.89722,0.68495 20.22664,4.03123 24.66751,7.9534"
     id="path56" /><path
     style="opacity:1;fill:#be1c2d;fill-rule:nonzero;stroke:none;stroke-width:1.33;stroke-linecap:butt;stroke-linejoin:miter;stroke-miterlimit:4;stroke-dasharray:none;stroke-dashoffset:0"
     vector-effect="non-scaling-stroke"
     d="m 215.07989,103.65191 a 1.15444,1.15444 0 0 1 1.43906,1.28877 c -0.84721,5.60595 -2.5137,11.26909 -2.79965,16.8112 -0.28595,5.41975 1.14247,11.27973 2.39932,16.71411 0.2394,1.03341 -0.91903,1.81279 -1.78752,1.19966 -6.56089,-4.655 -12.3424,-11.65213 -14.24962,-19.41933 -2.27563,-9.24749 7.0756,-14.41188 14.99841,-16.59441"
     id="path57" /><path
     style="opacity:1;fill:#be1c2d;fill-rule:nonzero;stroke:none;stroke-width:1.33;stroke-linecap:butt;stroke-linejoin:miter;stroke-miterlimit:4;stroke-dasharray:none;stroke-dashoffset:0"
     vector-effect="non-scaling-stroke"
     d="m 205.22991,135.32637 c 2.99782,7.2884 5.16838,17.36847 9.74092,23.7006 2.10406,2.91536 3.03905,2.41129 7.0756,3.69474 2.2344,0.71687 5.18035,1.39118 6.93595,3.06432 1.49093,1.42842 1.05469,3.56972 3.29441,4.42092 5.57935,2.12534 1.2369,-4.51402 -0.016,-6.21243 -3.45534,-4.69224 -7.48657,-9.04001 -11.31032,-13.42502 -3.14811,-3.62159 -6.24435,-7.3416 -9.55472,-10.81689 -0.91903,-0.96691 -6.26031,-5.62191 -6.16588,-4.42624"
     id="path58" /><path
     style="opacity:1;fill:#be1c2d;fill-rule:nonzero;stroke:none;stroke-width:1.33;stroke-linecap:butt;stroke-linejoin:miter;stroke-miterlimit:4;stroke-dasharray:none;stroke-dashoffset:0"
     vector-effect="non-scaling-stroke"
     d="m 228.4203,152.73584 c 12.33841,3.94744 23.16062,5.33995 35.7371,1.13183 10.45912,-3.49657 3.97537,1.89658 -0.85652,5.78816 -5.16971,4.16556 -11.36219,6.8628 -18.11061,7.36155 -5.92249,0.43624 -9.92313,-2.10938 -13.7522,-6.51035 -0.4522,-0.52402 -6.36937,-8.84716 -3.0191,-7.77252"
     id="path59" /><path
     style="opacity:1;fill:#be1c2d;fill-rule:nonzero;stroke:none;stroke-width:1.33;stroke-linecap:butt;stroke-linejoin:miter;stroke-miterlimit:4;stroke-dasharray:none;stroke-dashoffset:0"
     vector-effect="non-scaling-stroke"
     d="m 200.02367,122.38161 c -8.79662,8.27659 -27.56159,16.16748 -37.14158,5.45566 -2.7531,-3.08161 -4.5619,-6.75906 -5.9584,-10.62537 -0.8645,-2.37937 -1.88195,-4.70687 -2.60946,-7.13279 -0.40432,-1.3566 -0.39368,-6.2244 -2.24903,-4.5885 -1.08129,0.9576 -1.0241,6.09539 -1.1837,7.54509 -0.58254,5.36655 -1.41379,12.23467 3.0324,16.28186 2.98319,2.71719 10.1878,5.76156 14.17381,7.05964 5.66314,1.84471 13.99559,1.75161 19.49248,-0.60781 3.30372,-1.41246 15.92941,-7.98 12.44348,-13.38778"
     id="path60" /><path
     style="opacity:1;fill:#be1c2d;fill-rule:nonzero;stroke:none;stroke-width:1.33;stroke-linecap:butt;stroke-linejoin:miter;stroke-miterlimit:4;stroke-dasharray:none;stroke-dashoffset:0"
     vector-effect="non-scaling-stroke"
     d="m 162.5004,122.3742 c -2.60813,-5.99963 -4.52599,-14.13524 -1.55876,-20.33437 2.72251,-5.70437 8.48939,-7.03437 13.965,-8.99745 0.4522,-0.16093 8.18216,-2.8462 7.96404,-3.31436 -0.76874,-1.65319 -7.0091,-3.3516 -8.61308,-3.8304 -7.87094,-2.33681 -15.78444,-0.72618 -18.51094,7.85099 -0.60249,1.89658 -0.3325,31.59282 6.75374,28.62559"
     id="path61" /><path
     style="opacity:1;fill:#be1c2d;fill-rule:nonzero;stroke:none;stroke-width:1.33;stroke-linecap:butt;stroke-linejoin:miter;stroke-miterlimit:4;stroke-dasharray:none;stroke-dashoffset:0"
     vector-effect="non-scaling-stroke"
     d="m 163.7819,119.42694 c 6.13396,2.79433 17.86589,7.48125 23.72587,2.0615 4.67096,-4.31585 3.14811,-13.4596 0.55594,-18.50961 -0.98686,-1.92318 -6.68192,-6.02756 -6.96122,-7.4613 -0.266,-1.34064 2.62276,-4.17088 3.63622,-4.6284 3.14279,-1.43906 7.10752,0.96026 9.31532,3.1787 5.44502,5.4663 2.98718,13.52876 0.67564,19.90345 -2.06283,5.68974 -4.02724,10.64 -10.24632,11.88754 -7.39746,1.48561 -15.79375,-0.37905 -20.70278,-6.43188"
     id="path62" /><path
     style="opacity:1;fill:#be1c2d;fill-rule:nonzero;stroke:none;stroke-width:1.33;stroke-linecap:butt;stroke-linejoin:miter;stroke-miterlimit:4;stroke-dasharray:none;stroke-dashoffset:0"
     vector-effect="non-scaling-stroke"
     d="m 165.71306,124.35233 c 21.29064,9.20626 34.56404,-3.19998 32.96405,-25.09311 10.20908,11.50317 0.1197,23.6341 -10.96718,29.12035 -4.7747,2.36341 -11.70001,3.41278 -17.15434,2.61877 -3.93813,-0.56658 -9.93377,-8.54658 -4.8412,-6.64601"
     id="path63" /><path
     style="opacity:1;fill:#be1c2d;fill-rule:nonzero;stroke:none;stroke-width:1.33;stroke-linecap:butt;stroke-linejoin:miter;stroke-miterlimit:4;stroke-dasharray:none;stroke-dashoffset:0"
     vector-effect="non-scaling-stroke"
     d="m 173.6907,120.27655 c -6.68059,-4.10438 -14.2443,-12.22403 -7.7672,-19.63878 0.16625,-0.1862 0.0266,-0.47747 -0.22344,-0.47747 -5.78683,0.0984 -5.44502,11.26909 -3.8703,15.0556 1.3566,3.26249 7.76188,7.1554 11.81439,5.57536 a 0.28861,0.28861 0 0 0 0.0465,-0.51471"
     id="path64" /><path
     style="opacity:1;fill:#be1c2d;fill-rule:nonzero;stroke:none;stroke-width:1.33;stroke-linecap:butt;stroke-linejoin:miter;stroke-miterlimit:4;stroke-dasharray:none;stroke-dashoffset:0"
     vector-effect="non-scaling-stroke"
     d="m 167.80548,108.4292 c 1.74629,-1.55211 4.12566,-2.51902 6.25632,-3.34495 1.83274,-0.71155 3.7772,-1.28345 5.75092,-1.3832 2.8063,-0.13965 5.02341,2.84221 6.21376,4.91036 0.25935,0.4522 0.95494,0.23408 0.90839,-0.28595 -0.72219,-8.16088 -7.18998,-16.4787 -16.2393,-11.37682 -2.94196,1.65718 -4.45816,4.57121 -5.13912,7.78715 -0.25004,1.19035 -0.399,2.48843 -0.29659,3.70405 0.15694,1.7556 0.84189,1.74629 1.995,0.52535 0.1729,-0.1862 0.3591,-0.36442 0.55062,-0.53599"
     id="path65" /><path
     style="opacity:1;fill:#be1c2d;fill-rule:nonzero;stroke:none;stroke-width:1.33;stroke-linecap:butt;stroke-linejoin:miter;stroke-miterlimit:4;stroke-dasharray:none;stroke-dashoffset:0"
     vector-effect="non-scaling-stroke"
     d="m 168.92804,112.44957 c 0.97755,0.6916 2.25036,1.14779 3.34628,1.62526 1.08528,0.47348 2.18785,0.90972 3.30904,1.29941 1.98569,0.69559 4.19881,1.40847 6.33346,1.2635 1.7157,-0.12635 2.74778,-1.1438 2.5403,-2.92068 a 7.68075,7.68075 0 0 0 -0.38437,-1.55876 14.36799,14.36799 0 0 0 -0.36309,-0.931 c -0.0678,-0.15029 -0.34314,-1.00149 -0.48811,-1.0374 5.28276,1.2369 3.97404,7.1953 -0.13566,9.15838 -2.53498,1.2103 -5.78284,0.70623 -8.3391,-0.16625 -2.69059,-0.92435 -5.6259,-2.66532 -6.71118,-5.45433 a 5.93446,5.93446 0 0 1 -0.27531,-0.90972 c -0.0372,-0.15561 -0.0625,-0.32718 0.004,-0.47215 0.1197,-0.25536 0.4788,-0.2926 0.73283,-0.17689 0.15561,0.0665 0.29127,0.18221 0.43092,0.2793"
     id="path66" /><path
     style="opacity:1;fill:#be1c2d;fill-rule:nonzero;stroke:none;stroke-width:1.33;stroke-linecap:butt;stroke-linejoin:miter;stroke-miterlimit:4;stroke-dasharray:none;stroke-dashoffset:0"
     vector-effect="non-scaling-stroke"
     d="m 176.1127,113.71134 c -0.81928,-3.05501 -0.5852,-7.65814 3.74129,-5.3466 -6.72182,-5.5594 -10.90467,3.05501 -3.73996,5.3466"
     id="path67" /><path
     style="opacity:1;fill:#be1c2d;fill-rule:nonzero;stroke:none;stroke-width:1.33;stroke-linecap:butt;stroke-linejoin:miter;stroke-miterlimit:4;stroke-dasharray:none;stroke-dashoffset:0"
     vector-effect="non-scaling-stroke"
     d="m 178.77339,113.72734 c 1.41778,-1.22626 1.729,-2.86349 -0.33782,-3.81444 5.28409,-0.56525 3.45002,7.5278 0.33782,3.81444"
     id="path68" /><path
     style="opacity:1;fill:#be1c2d;fill-rule:nonzero;stroke:none;stroke-width:1.33;stroke-linecap:butt;stroke-linejoin:miter;stroke-miterlimit:4;stroke-dasharray:none;stroke-dashoffset:0"
     vector-effect="non-scaling-stroke"
     d="m 204.35912,107.7287 c -1.40714,9.36187 -0.6916,25.59718 -10.52562,29.84121 -9.35655,4.0432 -21.17626,3.18535 -30.1112,-1.19966 -1.34596,-0.65968 -8.04783,-3.42342 -10.92595,-4.60845 -0.55594,-0.22876 -1.07065,0.38969 -0.75411,0.89908 1.19567,1.90589 4.8944,5.45433 16.35501,9.1238 7.30436,2.33681 15.1487,1.67181 22.59005,0.23275 8.1928,-1.58004 13.6059,-3.61095 18.28218,-10.63468 6.76438,-10.17317 2.82625,-15.35219 -4.91036,-23.65405"
     id="path69" /><path
     style="opacity:1;fill:#be1c2d;fill-rule:nonzero;stroke:none;stroke-width:1.33;stroke-linecap:butt;stroke-linejoin:miter;stroke-miterlimit:4;stroke-dasharray:none;stroke-dashoffset:0"
     vector-effect="non-scaling-stroke"
     d="m 212.11494,114.34565 c 2.83157,-6.34809 10.12529,-14.14056 3.67346,-21.64309 -2.88876,-3.36091 -22.64192,-13.97032 -22.7031,-5.7988 -0.0213,3.04969 8.37368,12.81189 9.92712,15.31628 1.24222,2.00032 8.40161,13.47689 9.10252,12.12561"
     id="path70" /><path
     style="opacity:1;fill:#be1c2d;fill-rule:nonzero;stroke:none;stroke-width:1.33;stroke-linecap:butt;stroke-linejoin:miter;stroke-miterlimit:4;stroke-dasharray:none;stroke-dashoffset:0"
     vector-effect="non-scaling-stroke"
     d="m 194.10349,91.8423 c -5.08592,-10.84216 -14.13125,-22.81615 -27.73183,-14.95585 -9.11848,5.27345 -13.8453,13.38778 -15.51844,23.02496 -0.0572,0.3325 0.40964,0.45752 0.52402,0.14098 3.15875,-8.66096 7.66878,-17.36315 18.05475,-16.16349 5.90121,0.68096 20.2293,4.03256 24.6715,7.9534"
     id="path71" /><path
     style="opacity:1;fill:#be1c2d;fill-rule:nonzero;stroke:none;stroke-width:1.33;stroke-linecap:butt;stroke-linejoin:miter;stroke-miterlimit:4;stroke-dasharray:none;stroke-dashoffset:0"
     vector-effect="non-scaling-stroke"
     d="m 148.74571,92.2228 a 1.14912,1.14912 0 0 1 1.43374,1.2901 c -0.84189,5.5993 -2.50971,11.26776 -2.79965,16.8112 -0.28063,5.41842 1.14779,11.27441 2.40464,16.71411 0.2394,1.03341 -0.92435,1.81279 -1.78752,1.19966 -6.56089,-4.655 -12.3424,-11.65346 -14.25494,-19.42066 -2.27031,-9.24749 7.0756,-14.41188 15.0024,-16.59308"
     id="path72" /><path
     style="opacity:1;fill:#be1c2d;fill-rule:nonzero;stroke:none;stroke-width:1.33;stroke-linecap:butt;stroke-linejoin:miter;stroke-miterlimit:4;stroke-dasharray:none;stroke-dashoffset:0"
     vector-effect="non-scaling-stroke"
     d="m 138.91041,123.90259 c 2.99782,7.2884 5.1737,17.36182 9.74624,23.7006 2.10406,2.91403 3.03905,2.40996 7.0756,3.69341 2.2344,0.71155 5.1737,1.38719 6.93063,3.06565 1.49625,1.42842 1.05469,3.5644 3.2984,4.42092 5.58068,2.12534 1.2369,-4.51402 -0.0199,-6.21908 -3.45534,-4.68559 -7.48125,-9.03469 -11.305,-13.4197 -3.15343,-3.62026 -6.24435,-7.3416 -9.55472,-10.81556 -0.91903,-0.96691 -6.26031,-5.62191 -6.1712,-4.42624"
     id="path73" /><path
     style="opacity:1;fill:#be1c2d;fill-rule:nonzero;stroke:none;stroke-width:1.33;stroke-linecap:butt;stroke-linejoin:miter;stroke-miterlimit:4;stroke-dasharray:none;stroke-dashoffset:0"
     vector-effect="non-scaling-stroke"
     d="m 162.09379,141.31973 c 12.33442,3.94877 23.1553,5.34128 35.73976,1.13316 10.45247,-3.4979 3.97404,1.89525 -0.85785,5.78683 -5.1737,4.16689 -11.36751,6.8628 -18.11061,7.36155 -5.92781,0.43624 -9.92313,-2.10938 -13.7522,-6.50902 -0.45752,-0.52535 -6.37469,-8.84849 -3.0191,-7.77252"
     id="path74" /></svg>
